<?xml version="1.0" encoding="UTF-8" standalone="no"?>
<svg
   viewBox="0 0 79.999962 22"
   version="1.1"
   id="svg1"
   width="79.999962"
   height="22"
   sodipodi:docname="dtv-epg.svg"
   xml:space="preserve"
   inkscape:version="1.4 (e7c3feb100, 2024-10-09)"
   xmlns:inkscape="http://www.inkscape.org/namespaces/inkscape"
   xmlns:sodipodi="http://sodipodi.sourceforge.net/DTD/sodipodi-0.dtd"
   xmlns="http://www.w3.org/2000/svg"
   xmlns:svg="http://www.w3.org/2000/svg"><sodipodi:namedview
     id="namedview1"
     pagecolor="#ffffff"
     bordercolor="#000000"
     borderopacity="0.25"
     inkscape:showpageshadow="2"
     inkscape:pageopacity="0.0"
     inkscape:pagecheckerboard="0"
     inkscape:deskcolor="#d1d1d1"
     inkscape:zoom="8.131728"
     inkscape:cx="44.209546"
     inkscape:cy="11.928584"
     inkscape:window-width="1360"
     inkscape:window-height="734"
     inkscape:window-x="0"
     inkscape:window-y="0"
     inkscape:window-maximized="1"
     inkscape:current-layer="svg1"><inkscape:page
       x="0"
       y="0"
       width="79.999962"
       height="22"
       id="page2"
       margin="0"
       bleed="0" /></sodipodi:namedview><defs
     id="defs1" /><path
     d="M 17.286979,16 V 4 H 3.5286979 V 16 H 17.286979 m 0,-14 c 0.844277,-1e-7 1.528698,0.8954304 1.528698,2 v 12 c 0,1.10457 -0.684421,2 -1.528698,2 h -3.821745 v 2 H 7.3504425 V 18 H 3.5286979 C 2.6844214,18 2,17.104569 2,16 V 4 C 2,2.8954305 2.6844214,2 3.5286979,2 H 17.286979 M 5.0573958,6.0000001 H 9.6434891 V 10 H 5.0573958 V 6.0000001 m 0,5.9999999 h 4.5860933 v 2 H 5.0573958 V 12 M 11.172188,6.0000001 h 4.586093 v 2 h -4.586093 v -2 m 0,3.9999999 h 4.586093 v 4 h -4.586093 z"
     id="path1"
     style="stroke-width:0.874269"
     sodipodi:nodetypes="ccccccsssccccssssccccccccccccccccccccc" /><text
     xml:space="preserve"
     style="font-size:9.38466px;text-align:start;writing-mode:lr-tb;direction:ltr;text-anchor:start;fill:#000000;stroke-width:0.782063"
     x="21.47084"
     y="12.65959"
     id="text1"
     transform="scale(0.95233665,1.0500488)"><tspan
       sodipodi:role="line"
       id="tspan1"
       x="21.47084"
       y="12.65959"
       style="font-style:normal;font-variant:normal;font-weight:bold;font-stretch:normal;font-family:sans-serif;-inkscape-font-specification:'sans-serif Bold';stroke-width:0.782063">TV PROGRAM</tspan></text><path
     d="M 30.605755,16.391304 H 69.747849 V 18 H 30.605755 v -1.608696"
     style="stroke-width:2.2907"
     id="path1-5" /></svg>
