<?xml version="1.0" encoding="UTF-8" standalone="no"?>
<svg
   viewBox="0 0 16.815678 18"
   version="1.1"
   id="svg1"
   width="16.815678"
   height="18"
   sodipodi:docname="dtv-epg.svg"
   xml:space="preserve"
   inkscape:version="1.4 (e7c3feb100, 2024-10-09)"
   xmlns:inkscape="http://www.inkscape.org/namespaces/inkscape"
   xmlns:sodipodi="http://sodipodi.sourceforge.net/DTD/sodipodi-0.dtd"
   xmlns="http://www.w3.org/2000/svg"
   xmlns:svg="http://www.w3.org/2000/svg"><sodipodi:namedview
     id="namedview1"
     pagecolor="#ffffff"
     bordercolor="#000000"
     borderopacity="0.25"
     inkscape:showpageshadow="2"
     inkscape:pageopacity="0.0"
     inkscape:pagecheckerboard="0"
     inkscape:deskcolor="#d1d1d1"
     inkscape:zoom="16.263456"
     inkscape:cx="16.724613"
     inkscape:cy="11.436684"
     inkscape:window-width="1360"
     inkscape:window-height="696"
     inkscape:window-x="0"
     inkscape:window-y="0"
     inkscape:window-maximized="1"
     inkscape:current-layer="svg1"><inkscape:page
       x="0"
       y="0"
       width="16.815678"
       height="18"
       id="page2"
       margin="0"
       bleed="0" /></sodipodi:namedview><defs
     id="defs1" /><path
     d="M 15.186363,13.692562 V 2.4304128 H 1.6293139 V 13.692562 H 15.186363 m 0,-13.13917409 c 0.831928,-9e-8 1.506339,0.84037259 1.506339,1.87702489 V 13.692562 c 0,1.036653 -0.674411,1.877025 -1.506339,1.877025 h -3.765847 v 1.877025 H 5.3951607 V 15.569587 H 1.6293139 c -0.83192792,0 -1.50633881,-0.840373 -1.50633881,-1.877025 V 2.4304128 c 0,-1.0366522 0.67441089,-1.87702489 1.50633881,-1.87702489 H 15.186363 M 3.1356527,4.3074378 h 4.519016 V 8.0614875 H 3.1356527 V 4.3074378 m 0,5.6310747 h 4.519016 V 11.815537 H 3.1356527 V 9.9385125 M 9.1610084,4.3074378 H 13.680024 V 6.1844627 H 9.1610084 V 4.3074378 m 0,3.7540497 H 13.680024 V 11.815537 H 9.1610084 Z"
     id="path1"
     style="stroke-width:0.840748"
     sodipodi:nodetypes="ccccccsssccccssssccccccccccccccccccccc" /></svg>
