<?xml version="1.0" encoding="UTF-8" standalone="no"?>
<svg
   viewBox="0 0 24 24"
   version="1.1"
   id="svg1"
   sodipodi:docname="ok.svg"
   xml:space="preserve"
   inkscape:version="1.4 (e7c3feb100, 2024-10-09)"
   xmlns:inkscape="http://www.inkscape.org/namespaces/inkscape"
   xmlns:sodipodi="http://sodipodi.sourceforge.net/DTD/sodipodi-0.dtd"
   xmlns="http://www.w3.org/2000/svg"
   xmlns:svg="http://www.w3.org/2000/svg"><defs
     id="defs1" /><sodipodi:namedview
     id="namedview1"
     pagecolor="#ffffff"
     bordercolor="#000000"
     borderopacity="0.25"
     inkscape:showpageshadow="2"
     inkscape:pageopacity="0.0"
     inkscape:pagecheckerboard="0"
     inkscape:deskcolor="#d1d1d1"
     inkscape:zoom="14.377838"
     inkscape:cx="18.361592"
     inkscape:cy="15.857738"
     inkscape:window-width="1360"
     inkscape:window-height="696"
     inkscape:window-x="0"
     inkscape:window-y="0"
     inkscape:window-maximized="1"
     inkscape:current-layer="svg1" /><g
     fill="none"
     id="g2"
     transform="matrix(0.73309836,0,0,0.58770464,0.51377341,2.5966565)"
     style="fill:#000000;fill-opacity:1"><path
       fill="#ffffff"
       d="m 10.750071,10.611422 a 4.1456495,3.7557519 0 0 0 -4.1456493,3.75652 v 3.246536 a 4.1456497,3.755752 0 0 0 8.2912993,0 v -3.246536 a 4.1456495,3.7557519 0 0 0 -4.14565,-3.755752 z m -1.8142513,3.75652 a 1.8142517,1.6436216 0 0 1 3.6285033,0 v 3.246536 a 1.8142517,1.6436216 0 0 1 -3.6285033,0 z M 19.128692,11.668255 a 1.165699,1.0560652 0 1 0 -2.331398,0 v 8.64591 a 1.165699,1.0560652 0 1 0 2.331398,0 v -2.946998 a 0.11021154,0.09984616 0 0 1 0.03222,-0.06989 l 0.0017,-0.0015 0.422195,-0.399384 a 0.10597263,0.09600593 0 0 1 0.165317,0.01459 l 2.835828,3.993846 a 1.1658233,1.0561778 0 0 0 1.960917,-1.142854 l -3.165614,-4.457748 a 0.10597263,0.09600593 0 0 1 0.01272,-0.118279 l 2.921453,-2.762666 a 1.1659429,1.056286 0 1 0 -1.683705,-1.461595 l -3.320759,3.139778 a 0.10597263,0.09600593 0 0 1 -0.182272,-0.06605 z"
       id="path2"
       style="fill:#000000;fill-opacity:1;stroke-width:0.80693" /></g><path
     d="M 12,1 C 5.9245625,1 1,5.9245625 1,12 1,18.075437 5.9245625,23 12,23 18.075437,23 23,18.075437 23,12 23,5.9245625 18.075437,1 12,1 Z m 0,19.9375 C 7.06375,20.9375 3.0625,16.93625 3.0625,12 3.0625,7.06375 7.06375,3.0625 12,3.0625 c 4.93625,0 8.9375,4.00125 8.9375,8.9375 0,4.93625 -4.00125,8.9375 -8.9375,8.9375 z"
     id="path1"
     style="stroke-width:0.6875"
     sodipodi:nodetypes="ssssssssss" /></svg>
