<?xml version="1.0" encoding="UTF-8" standalone="no"?>
<!-- Created with Inkscape (http://www.inkscape.org/) -->

<svg
   version="1.1"
   id="svg2"
   width="1868.6232"
   height="318.25461"
   viewBox="0 0 1868.6232 318.25462"
   sodipodi:docname="vendor-logo.svg"
   xml:space="preserve"
   inkscape:export-filename="mini-logotype-openbosniana.svg"
   inkscape:export-xdpi="26.780001"
   inkscape:export-ydpi="26.780001"
   inkscape:version="1.2.2 (b0a8486541, 2022-12-01)"
   xmlns:inkscape="http://www.inkscape.org/namespaces/inkscape"
   xmlns:sodipodi="http://sodipodi.sourceforge.net/DTD/sodipodi-0.dtd"
   xmlns="http://www.w3.org/2000/svg"
   xmlns:svg="http://www.w3.org/2000/svg"><defs
     id="defs6"><linearGradient
       id="linearGradient8856"
       inkscape:swatch="solid"><stop
         style="stop-color:#000000;stop-opacity:1;"
         offset="0"
         id="stop8854" /></linearGradient><linearGradient
       id="h-6"
       gradientUnits="userSpaceOnUse"
       x1="25.636999"
       x2="57.998001"
       y1="40.675999"
       y2="40.675999"
       gradientTransform="matrix(3.3400036,0,0,3.3400036,-1.0227687,4.5486979)"><stop
         offset="0"
         stop-color="#292c2f"
         id="stop9-7" /><stop
         offset="1"
         stop-color="#292c2f"
         stop-opacity="0"
         id="stop11-5" /></linearGradient><linearGradient
       x1="0.71004629"
       y1="1"
       x2="0"
       y2="1"
       id="linearGradient-1"><stop
         stop-color="#394A9F"
         offset="0%"
         id="stop5195" /><stop
         stop-color="#6176B9"
         offset="100%"
         id="stop5197" /></linearGradient></defs><sodipodi:namedview
     id="namedview4"
     pagecolor="#ffffff"
     bordercolor="#000000"
     borderopacity="0.25"
     inkscape:showpageshadow="2"
     inkscape:pageopacity="0.0"
     inkscape:pagecheckerboard="0"
     inkscape:deskcolor="#d1d1d1"
     showgrid="false"
     inkscape:zoom="0.1767767"
     inkscape:cx="1213.3952"
     inkscape:cy="494.97475"
     inkscape:window-width="1366"
     inkscape:window-height="706"
     inkscape:window-x="0"
     inkscape:window-y="0"
     inkscape:window-maximized="1"
     inkscape:current-layer="svgGroup-3" /><style
     type="text/css"
     id="style183">
	.st0{fill:#15E0ED;}
	.st1{fill:url(#SVGID_1_);}
</style><style
     type="text/css"
     id="style183-2">
	.st0{fill:#15E0ED;}
	.st1{fill:url(#SVGID_1_);}
</style><g
     id="layer3-8-6-9"
     style="fill:#f2f2f2"
     transform="matrix(5.5792404,0,0,2.5402269,-2300.0938,-850.9025)" /><g
     id="svgGroup"
     stroke-linecap="round"
     fill-rule="evenodd"
     font-size="12px"
     stroke="#00a6ff00"
     stroke-width="0.25mm"
     fill="#00bfff"
     style="fill:#000000;stroke-width:0.25mm"
     transform="translate(53.222129,513.64274)"><g
       id="svgGroup-3"
       stroke-linecap="round"
       fill-rule="nonzero"
       font-size="12px"
       stroke="#00a6ff00"
       stroke-width="0.25mm"
       fill="#00bfff"
       style="fill:#000000;stroke-width:0.25mm"
       transform="matrix(1,0,0,1.6121776,335.80256,-419.0917)"><rect
         style="opacity:1;fill:#ffffff;fill-opacity:1;stroke-width:0.212958mm"
         id="rect1105"
         width="1868.6232"
         height="197.40666"
         x="-389.02469"
         y="-58.648029" /><path
         d="M 43.724791,84.216356 H 25.197142 A 37.164145,34.342999 0 0 1 14.384109,82.79249 33.91082,31.336632 0 0 1 10.490156,81.459553 Q 3.7385752,78.702749 -1.2335348,73.914619 A 36.627161,33.846775 0 0 1 -8.6236539,63.36428 41.910153,38.728737 0 0 1 -8.9795589,62.548848 Q -11.753463,55.971212 -11.753463,48.329545 a 43.887484,40.555964 0 0 1 0.978723,-8.711498 36.934907,34.131162 0 0 1 1.7951811,-5.411076 34.747179,32.109505 0 0 1 5.536318,-8.669903 32.226582,29.780249 0 0 1 2.2097061,-2.212215 q 4.97211,-4.497942 11.7236908,-6.964555 a 38.579367,35.650788 0 0 1 11.766631,-2.379555 45.509959,42.055279 0 0 1 2.940355,-0.08705 h 18.527649 a 43.776527,40.453432 0 0 1 9.322419,0.887015 37.032256,34.22112 0 0 1 5.803239,1.627965 34.78905,32.148198 0 0 1 10.192311,5.690624 32.970829,30.467998 0 0 1 1.583736,1.370662 34.209145,31.612315 0 0 1 7.425726,10.389765 39.160315,36.187639 0 0 1 0.215622,0.492355 38.791859,35.84715 0 0 1 2.530031,10.01058 47.068586,43.495587 0 0 1 0.191556,3.966895 43.465638,40.166142 0 0 1 -1.433011,10.435228 39.221027,36.243741 0 0 1 -1.340911,3.784075 q -2.773921,6.577639 -7.74602,11.365773 -4.972109,4.78813 -11.776047,7.544935 a 35.823249,33.103891 0 0 1 -11.923627,2.658138 42.698364,39.457113 0 0 1 -3.045024,0.09868 z M 25.197142,71.931652 h 18.527649 a 25.409037,23.480228 0 0 0 6.508734,-0.749657 22.472876,20.766953 0 0 0 3.121439,-0.991482 q 4.396386,-1.74114 7.589012,-4.788132 a 22.942872,21.201268 0 0 0 4.565955,-6.386109 26.623278,24.602295 0 0 0 0.406166,-0.917001 q 1.779471,-4.25612 1.779471,-9.189344 a 28.115956,25.981663 0 0 0 -0.840535,-6.440281 24.962072,23.067189 0 0 0 -0.938936,-2.700703 q -1.779493,-4.20775 -4.972121,-7.206379 -3.192626,-2.998628 -7.589012,-4.691401 a 24.074423,22.24692 0 0 0 -7.61725,-1.627966 28.585953,26.415981 0 0 0 -2.012923,-0.06482 H 25.197142 a 25.145256,23.236468 0 0 0 -6.681459,0.79996 22.501142,20.793069 0 0 0 -2.791719,0.892816 q -4.344039,1.692772 -7.4843298,4.691403 a 23.067437,21.316378 0 0 0 -4.573289,6.388045 26.613858,24.593589 0 0 0 -0.346462,0.769969 25.498013,23.562448 0 0 0 -1.638187,6.428672 31.043743,28.687202 0 0 0 -0.141315,2.760677 28.230055,26.087099 0 0 0 0.959884,6.880398 25.548257,23.608879 0 0 0 0.819618,2.308943 q 1.779477,4.256118 4.919751,7.303113 3.1402908,3.046992 7.4843298,4.788129 a 23.112446,21.357972 0 0 0 8.046448,1.707285 27.065011,25.010493 0 0 0 1.42673,0.03386 z"
         id="0-6"
         style="fill:#0089f5;fill-opacity:1;stroke-width:0.251561mm" /><path
         d="M 176.03518,64.676907 H 145.46982 V 52.779123 h 30.56536 a 19.896803,18.386429 0 0 0 4.45709,-0.434317 q 3.90654,-0.828976 6.48152,-3.241422 a 13.402707,12.385302 0 0 0 3.7066,-6.967456 18.824923,17.395912 0 0 0 0.21877,-2.705537 17.912148,16.552429 0 0 0 -0.5286,-4.136173 12.686725,11.723671 0 0 0 -3.39677,-5.536823 12.887701,11.909391 0 0 0 -5.92987,-3.032482 q -1.98465,-0.477846 -4.33044,-0.537821 a 24.595705,22.728634 0 0 0 -0.6783,-0.0089 H 135.73494 V 84.216309 H 122.54578 V 13.893685 h 53.4894 q 6.59459,0 11.77605,1.789505 a 26.044421,24.067378 0 0 1 5.77811,2.761641 22.545105,20.833696 0 0 1 2.96231,2.268316 22.972181,21.228354 0 0 1 5.06737,7.008085 26.819024,24.783179 0 0 1 0.37582,0.875405 q 1.88416,4.643039 1.88416,10.446833 a 35.193101,32.521575 0 0 1 -0.59562,6.098825 28.911496,26.716812 0 0 1 -1.28854,4.299645 25.020691,23.121358 0 0 1 -4.3713,6.986804 23.74888,21.94609 0 0 1 -1.07189,1.090147 23.977073,22.156962 0 0 1 -7.14098,4.637234 28.388117,26.233161 0 0 1 -1.59944,0.634548 28.808914,26.622017 0 0 1 -6.65112,1.574764 37.555635,34.70477 0 0 1 -5.12493,0.31147 z"
         id="2-7"
         style="fill:#0089f5;fill-opacity:1;stroke-width:0.251561mm" /><path
         d="M 312.11391,84.216356 H 244.07455 V 13.893685 h 67.93468 v 12.284703 h -54.74551 v 45.753264 h 54.85019 z M 309.18298,53.649695 H 266.99859 V 43.299589 h 42.18439 z"
         id="4-5"
         style="fill:#0089f5;fill-opacity:1;stroke-width:0.251561mm" /><path
         d="M 420.13945,82.475216 366.65007,32.756025 v 51.460331 h -12.6658 V 20.37459 a 11.85455,10.954666 0 0 1 0.22716,-2.207375 q 0.41764,-1.875594 1.60467,-3.161135 a 6.0083991,5.5522989 0 0 1 4.16193,-1.94814 8.4797984,7.8360928 0 0 1 0.8102,-0.03483 q 1.46544,0 2.82623,0.58038 a 7.6350631,7.0554822 0 0 1 1.16716,0.627777 q 0.55266,0.355967 1.12002,0.831878 a 15.154982,14.004561 0 0 1 0.53908,0.474945 l 53.69873,49.235542 V 13.313305 h 12.66582 v 64.422143 a 12.502492,11.553424 0 0 1 -0.19679,2.118388 q -0.24598,1.217828 -0.79868,2.176421 a 6.4344302,5.9459897 0 0 1 -0.83636,1.122069 5.9633885,5.5107048 0 0 1 -4.35556,1.924926 7.8946597,7.2953724 0 0 1 -0.40719,0.0097 7.5869125,7.0109864 0 0 1 -4.07817,-1.124967 11.297674,10.440063 0 0 1 -1.99307,-1.48674 z"
         id="6-3"
         style="fill:#0089f5;fill-opacity:1;stroke-width:0.251561mm" /><path
         d="M 533.60822,84.216356 H 476.35046 V 13.893685 h 55.68761 a 42.611482,39.376827 0 0 1 5.6148,0.327915 33.42617,30.888772 0 0 1 4.48643,0.832845 25.474984,23.541167 0 0 1 4.46965,1.54768 20.341675,18.797533 0 0 1 3.32867,1.886233 q 3.245,2.273154 5.02446,5.707066 a 17.96867,16.604661 0 0 1 1.55969,4.880993 23.224453,21.461474 0 0 1 0.21981,3.002496 27.058732,25.004691 0 0 1 -0.16015,2.795496 q -0.16749,1.373568 -0.50974,2.56528 a 15.614511,14.429206 0 0 1 -0.16752,0.539752 16.778508,15.504842 0 0 1 -1.06139,2.458874 13.182888,12.182171 0 0 1 -1.24145,1.845609 q -1.46548,1.789506 -3.40201,2.998629 a 14.984362,13.846892 0 0 1 -3.36321,1.587339 13.795243,12.748039 0 0 1 -0.6668,0.202165 q 5.2338,1.547677 8.58342,5.610335 a 15.98611,14.772599 0 0 1 2.91735,6.078511 22.477066,20.770821 0 0 1 0.43229,4.174864 27.360198,25.283272 0 0 1 -0.54223,5.133459 22.392277,20.69247 0 0 1 -1.18491,3.620599 q -1.72716,3.917566 -4.91977,6.722736 a 20.988576,19.395322 0 0 1 -6.08587,3.696049 24.981958,23.08557 0 0 1 -1.66015,0.608432 27.859502,25.744675 0 0 1 -6.40409,1.322298 34.696936,32.063075 0 0 1 -3.69713,0.177016 z M 533.08485,53.649695 H 499.27449 V 43.299589 h 32.86826 a 24.424037,22.569997 0 0 0 2.9487,-0.152834 q 3.25334,-0.366606 5.17623,-1.61152 a 6.9892128,6.4586585 0 0 0 0.24914,-0.170247 6.3349882,5.8540962 0 0 0 2.06314,-2.662975 q 0.65843,-1.628931 0.65843,-3.914658 a 13.049952,12.059323 0 0 0 -0.13504,-1.797245 q -0.26063,-1.589271 -1.01643,-2.7007 a 7.3377836,6.7807692 0 0 0 -2.71318,-2.337962 9.058656,8.3710095 0 0 0 -0.58407,-0.273746 q -2.01082,-0.860897 -4.75857,-1.170432 a 22.994164,21.248667 0 0 0 -0.37059,-0.03871 q -2.98321,-0.290188 -6.64689,-0.290188 h -37.36931 v 45.849994 h 38.52074 a 42.472264,39.248175 0 0 0 4.04258,-0.170244 34.191348,31.595869 0 0 0 2.552,-0.313407 19.904131,18.393199 0 0 0 2.66192,-0.591017 14.521693,13.419345 0 0 0 2.57188,-1.005025 9.9913199,9.2328737 0 0 0 2.10714,-1.404521 8.4222263,7.7828913 0 0 0 1.29484,-1.449015 q 1.15351,-1.66859 1.20167,-4.13617 a 12.997612,12.010956 0 0 0 0.002,-0.216675 12.127755,11.207132 0 0 0 -0.34543,-2.757772 8.2432307,7.6174831 0 0 0 -2.5855,-3.964961 9.3789637,8.6670033 0 0 0 -3.2795,-1.681164 q -2.25655,-0.688719 -5.30366,-0.688719 z"
         id="8-5"
         style="fill:#000000;fill-opacity:1;stroke-width:0.251561mm" /><path
         d="m 653.77619,84.216356 h -18.52763 a 37.164145,34.342999 0 0 1 -10.81304,-1.423866 33.91082,31.336632 0 0 1 -3.89394,-1.332937 q -6.75162,-2.756804 -11.72371,-7.544934 a 36.627161,33.846775 0 0 1 -7.39015,-10.550339 41.910153,38.728737 0 0 1 -0.35588,-0.815432 q -2.77389,-6.577636 -2.77389,-14.219303 a 43.887484,40.555964 0 0 1 0.97871,-8.711498 36.934907,34.131162 0 0 1 1.79518,-5.411076 34.747179,32.109505 0 0 1 5.53632,-8.669903 32.226582,29.780249 0 0 1 2.20971,-2.212215 q 4.97209,-4.497942 11.72371,-6.964555 a 38.579367,35.650788 0 0 1 11.76663,-2.379555 45.509959,42.055279 0 0 1 2.94035,-0.08705 h 18.52763 a 43.776527,40.453432 0 0 1 9.32246,0.887015 37.032256,34.22112 0 0 1 5.80321,1.627965 34.78905,32.148198 0 0 1 10.1923,5.690624 32.970829,30.467998 0 0 1 1.58375,1.370662 34.209145,31.612315 0 0 1 7.42571,10.389765 39.160315,36.187639 0 0 1 0.21562,0.492355 38.791859,35.84715 0 0 1 2.53001,10.01058 47.068586,43.495587 0 0 1 0.19157,3.966895 43.465638,40.166142 0 0 1 -1.43302,10.435228 39.221027,36.243741 0 0 1 -1.3409,3.784075 q -2.7739,6.577637 -7.74602,11.365769 -4.9721,4.788132 -11.77603,7.544936 a 35.823249,33.103891 0 0 1 -11.92362,2.658138 42.698364,39.457113 0 0 1 -3.04504,0.09868 z M 635.24856,71.931652 h 18.52763 a 25.409037,23.480228 0 0 0 6.50875,-0.749657 22.472876,20.766953 0 0 0 3.12142,-0.991482 q 4.39639,-1.74114 7.58901,-4.788132 a 22.942872,21.201268 0 0 0 4.56599,-6.386109 26.623278,24.602295 0 0 0 0.40613,-0.917001 q 1.77948,-4.25612 1.77948,-9.189344 a 28.115956,25.981663 0 0 0 -0.84054,-6.440281 24.962072,23.067189 0 0 0 -0.93894,-2.700703 q -1.77948,-4.20775 -4.97212,-7.206379 -3.19262,-2.998628 -7.58901,-4.691401 a 24.074423,22.24692 0 0 0 -7.61724,-1.627966 28.585953,26.415981 0 0 0 -2.01293,-0.06482 h -18.52763 a 25.145256,23.236468 0 0 0 -6.68146,0.79996 22.501142,20.793069 0 0 0 -2.79173,0.892816 q -4.34405,1.692772 -7.48434,4.691403 a 23.067437,21.316378 0 0 0 -4.57328,6.388045 26.613858,24.593589 0 0 0 -0.34647,0.769969 25.498013,23.562448 0 0 0 -1.63819,6.428672 31.043743,28.687202 0 0 0 -0.1413,2.760677 28.230055,26.087099 0 0 0 0.95987,6.880398 25.548257,23.608879 0 0 0 0.81962,2.308943 q 1.77949,4.256118 4.91975,7.303113 3.14029,3.046992 7.48434,4.788129 a 23.112446,21.357972 0 0 0 8.04644,1.707285 27.065011,25.010493 0 0 0 1.42675,0.03386 z"
         id="10-6"
         style="fill:#000000;fill-opacity:1;stroke-width:0.251561mm" /><path
         d="M 789.64556,84.216356 H 732.59717 V 71.931652 h 57.04839 a 16.775367,15.501941 0 0 0 3.2303,-0.268909 q 1.85903,-0.337589 3.30463,-1.097885 a 8.7090384,8.0479315 0 0 0 1.68215,-1.148184 9.0523756,8.3652056 0 0 0 2.77808,-5.172151 12.651135,11.690782 0 0 0 0.1004,-1.502214 13.390146,12.373695 0 0 0 -0.28054,-2.619446 Q 800.0691,58.45427 799.1333,57.21516 a 7.4288517,6.8649243 0 0 0 -1.27076,-1.292312 9.4166472,8.7018259 0 0 0 -3.34964,-1.663755 q -1.38069,-0.399496 -3.04503,-0.536855 a 20.494502,18.938756 0 0 0 -1.82241,-0.07256 h -34.96177 a 30.367539,28.062323 0 0 1 -5.61586,-0.461403 24.576864,22.711223 0 0 1 -4.06667,-1.037911 22.54615,20.834663 0 0 1 -4.67795,-2.188999 19.153605,17.699647 0 0 1 -2.64937,-1.97039 q -2.98324,-2.660075 -4.60575,-6.335809 -1.62245,-3.67574 -1.62245,-8.028587 0,-4.256118 1.51777,-7.883491 1.51782,-3.627375 4.50109,-6.239082 a 19.991012,18.473485 0 0 1 4.77007,-3.06537 24.873097,22.984969 0 0 1 2.60958,-1.045651 25.571287,23.630158 0 0 1 5.34371,-1.212026 34.159947,31.566849 0 0 1 4.70518,-0.287289 h 54.64084 v 12.284719 h -54.64077 q -3.54119,0 -5.84509,1.344547 a 7.6539049,7.0728936 0 0 0 -1.27289,0.928605 8.0673748,7.4549768 0 0 0 -2.18774,3.646719 q -0.31402,1.190747 -0.32342,2.598166 a 15.268032,14.10903 0 0 0 -9e-4,0.09091 12.073323,11.156832 0 0 0 0.30042,2.562378 q 0.51081,2.005208 1.89672,3.383612 a 7.6120346,7.0342015 0 0 0 0.36741,0.341457 8.5729598,7.9221824 0 0 0 3.92221,1.912352 q 1.39011,0.312439 3.03874,0.312439 h 34.85707 a 39.606238,36.599709 0 0 1 6.71604,0.491384 q 6.78404,1.080476 10.92186,4.53857 5.25264,4.389607 5.92155,12.754811 a 37.127509,34.309144 0 0 1 0.0972,2.528521 27.734938,25.629565 0 0 1 -0.60083,5.423649 23.876582,22.064101 0 0 1 -0.86464,2.798396 q -1.46546,3.772469 -4.39639,6.529271 -2.9309,2.756806 -7.37964,4.304483 a 25.022783,23.123293 0 0 1 -4.99094,1.184942 q -2.21711,0.317275 -4.70738,0.356933 a 41.540648,38.387277 0 0 1 -0.7171,0.0059 z"
         id="12"
         style="fill:#000000;fill-opacity:1;stroke-width:0.251561mm" /><path
         d="M 921.32788,82.475216 867.83847,32.756025 V 84.216356 H 855.17272 V 20.37459 a 11.85455,10.954666 0 0 1 0.22711,-2.207375 q 0.41769,-1.875594 1.6047,-3.161135 a 6.0083991,5.5522989 0 0 1 4.16191,-1.94814 8.4797984,7.8360928 0 0 1 0.8102,-0.03483 q 1.46546,0 2.82627,0.58038 a 7.6350631,7.0554822 0 0 1 1.1671,0.627777 q 0.55271,0.355967 1.12006,0.831878 a 15.154982,14.004561 0 0 1 0.53906,0.474945 l 53.69875,49.235542 V 13.313305 h 12.66585 v 64.422143 a 12.502492,11.553424 0 0 1 -0.19679,2.118388 q -0.24604,1.217828 -0.79874,2.176421 a 6.4344302,5.9459897 0 0 1 -0.83634,1.122069 5.9633885,5.5107048 0 0 1 -4.35559,1.924926 7.8946597,7.2953724 0 0 1 -0.40712,0.0097 7.5869125,7.0109864 0 0 1 -4.07817,-1.124967 11.297674,10.440063 0 0 1 -1.9931,-1.48674 z"
         id="14"
         style="fill:#000000;fill-opacity:1;stroke-width:0.251561mm" /><path
         d="M 991.67026,84.216356 H 978.37623 V 13.893685 h 13.29403 z"
         id="16"
         style="fill:#000000;fill-opacity:1;stroke-width:0.251561mm" /><path
         d="m 1131.7263,84.216356 h -16.0153 l -11.4096,-17.701582 h -36.0086 l 6.2806,-9.963182 h 23.3426 l -16.9574,-26.310546 -34.5431,53.97531 h -15.178 l 43.7547,-67.324042 q 1.1513,-1.837869 2.7214,-2.901898 a 5.9236118,5.4739475 0 0 1 2.8369,-1.012763 7.6758869,7.093207 0 0 1 0.9316,-0.05126 6.9599037,6.431574 0 0 1 1.8234,0.210871 5.4588504,5.0444667 0 0 1 1.8925,0.853157 9.2533532,8.5509273 0 0 1 1.633,1.488673 12.41038,11.468303 0 0 1 1.0365,1.413225 z"
         id="18"
         style="fill:#000000;fill-opacity:1;stroke-width:0.251561mm" /><path
         d="m 1236.5072,82.475216 -53.4894,-49.719191 v 51.460331 h -12.6661 V 20.37459 a 11.85455,10.954666 0 0 1 0.2275,-2.207375 q 0.4176,-1.875594 1.6044,-3.161135 a 6.0083991,5.5522989 0 0 1 4.1621,-1.94814 8.4797984,7.8360928 0 0 1 0.8103,-0.03483 q 1.4651,0 2.8263,0.58038 a 7.6350631,7.0554822 0 0 1 1.167,0.627777 q 0.5525,0.355967 1.1201,0.831878 a 15.154982,14.004561 0 0 1 0.5387,0.474945 l 53.6991,49.235542 V 13.313305 h 12.6657 v 64.422143 a 12.502492,11.553424 0 0 1 -0.1968,2.118388 q -0.2461,1.217828 -0.7986,2.176421 a 6.4344302,5.9459897 0 0 1 -0.8364,1.122069 5.9633885,5.5107048 0 0 1 -4.3556,1.924926 7.8946597,7.2953724 0 0 1 -0.4072,0.0097 7.5869125,7.0109864 0 0 1 -4.0779,-1.124967 11.297674,10.440063 0 0 1 -1.9932,-1.48674 z"
         id="20"
         style="fill:#000000;fill-opacity:1;stroke-width:0.251561mm" /><path
         d="m 1388.1826,84.216356 h -16.0154 l -11.4097,-17.701582 h -36.0084 l 6.2806,-9.963182 h 23.3425 l -16.9576,-26.310546 -34.5429,53.97531 h -15.178 l 43.7543,-67.324042 q 1.1516,-1.837869 2.7218,-2.901898 a 5.9236118,5.4739475 0 0 1 2.8363,-1.012763 7.6758869,7.093207 0 0 1 0.9318,-0.05126 6.9599037,6.431574 0 0 1 1.8237,0.210871 5.4588504,5.0444667 0 0 1 1.8924,0.853157 9.2533532,8.5509273 0 0 1 1.6329,1.488673 12.41038,11.468303 0 0 1 1.0365,1.413225 z"
         id="22"
         style="fill:#000000;fill-opacity:1;stroke-width:0.251561mm" /></g></g><g
     id="g5240"
     transform="matrix(0.96124241,0,0,0.96729945,-343.01155,116.45644)"
     style="fill:#000000;fill-opacity:1"><path
       d="m 581.53151,178.66815 c 70.383,0 127.44,-57.057 127.44,-127.440002 0,-70.38299 -57.057,-127.439993 -127.44,-127.439993 -70.383,0 -127.44001,57.057003 -127.44001,127.439993 0,70.383002 57.05701,127.440002 127.44001,127.440002 z m 0,-10.62 c -64.518,0 -116.82,-52.302 -116.82,-116.820002 0,-64.51799 52.302,-116.819993 116.82,-116.819993 64.518,0 116.82,52.302003 116.82,116.819993 0,64.518002 -52.302,116.820002 -116.82,116.820002 z"
       fill="#de5833"
       id="path5204"
       style="fill:#000000;fill-opacity:1" /></g><g
     id="g4571-2-5-0"
     transform="matrix(0.4615525,-0.09133646,0.0692837,0.59676163,371.46803,351.90127)"
     style="clip-rule:evenodd;fill:#000000;fill-opacity:1;fill-rule:evenodd;stroke:none;stroke-linejoin:round;stroke-miterlimit:1.41421;stroke-opacity:0"><g
       id="g3914-1-3-2"
       style="mix-blend-mode:normal;fill:#000000;fill-opacity:1;stroke:none;stroke-opacity:0"
       transform="matrix(1.1758878,-0.19286997,-0.01530367,1.4992355,892.19476,-514.4411)"><path
         class="cls-1"
         d="m -995.71689,78.114226 a 37.879052,26.445532 8.1509219 0 0 6.68815,0.603161 68.058957,47.515845 8.15093 0 0 22.81736,-2.031347 89.771834,62.674848 8.1509276 0 0 20.42775,-6.97306 120.62296,84.213776 8.1509296 0 0 20.55465,-12.941459 146.9438,102.58986 8.1509238 0 0 15.02807,-15.311815 c 1.74976,-2.228314 3.40083,-4.501954 4.83487,-6.859264 0.70221,-1.154387 1.32661,-2.338841 1.92006,-3.530303 0.59392,-1.192034 1.10763,-2.409112 1.65161,-3.616599 a 9.0317102,6.3055531 8.1509273 0 0 0.29201,-0.734031 c 0.51289,-2.016763 1.2606,-3.983186 1.58024,-6.043089 a 66.15177,46.184331 8.150927 0 0 0.39649,-6.215391 55.367563,38.65526 8.1509309 0 0 -4.12,-13.84893351 75.939446,53.017663 8.1509287 0 0 -8.53058,-11.40012349 133.18955,92.987236 8.1509191 0 0 -16.85361,-14.715927 c -4.27279,-3.203243 -8.72707,-6.277493 -13.31803,-9.248384 -2.75337,-1.781453 -5.57368,-3.509304 -8.37557,-5.251264 -7.29818,-4.537198 -14.5367,-9.12169 -21.66622,-13.79596 -5.64857,-3.703157 -11.18978,-7.483578 -16.58031,-11.375224 -5.12024,-3.69663 -10.06763,-7.504206 -14.73305,-11.487967 a 138.68297,96.822502 8.1509314 0 1 -12.1233,-11.675462 85.230533,59.504307 8.1509296 0 1 -9.528,-13.575694 60.47525,42.221228 8.1509283 0 1 -3.8088,-16.07658 65.223669,45.53637 8.1509295 0 1 0.6742,-5.24559 c 0.3376,-1.63483 0.8612,-3.21952 1.4295,-4.79961 a 65.075993,45.43327 8.1509293 0 1 2.8385,-5.7197 c 0.037,-0.06 0,-0.14885 -0.015,-0.22438 a 1.7828507,1.2447101 8.15092 0 0 -0.3658,0.13377 6.0690943,4.2371815 8.1509266 0 0 -0.5739,0.42882 99.972914,69.796814 8.1509272 0 0 -9.4487,10.43532 c -1.0516,1.47932 -2.0338,2.98602 -2.8703,4.53842 a 76.57162,53.459025 8.1509255 0 0 -3.3206,7.71161 78.755906,54.984 8.150928 0 0 1.3776,25.822518 104.48412,72.946323 8.1509269 0 0 7.2298,13.807714 148.71678,103.82769 8.1509169 0 0 10.8957,13.699585 213.82117,149.28075 8.1509323 0 0 20.711,19.26811 360.24028,251.50433 8.1509245 0 0 30.72849,22.358018 c 5.16931,3.41936 10.44512,6.752199 15.75866,10.0546083 a 4.6897474,3.274181 8.1509255 0 1 0.60358,0.4834142 0.26535135,0.18525696 8.1509258 0 1 0.0125,0.1521587 c -0.008,0.021818 -0.11217,0.037891 -0.15694,0.023556 -1.18253,-0.3814875 -2.37973,-0.7387123 -3.54016,-1.1573075 -4.17591,-1.5066017 -8.31028,-3.0738053 -12.34533,-4.7962757 a 179.31591,125.19068 8.1509404 0 1 -41.1488,-23.277214 164.69002,114.97951 8.1509281 0 1 -16.9224,-14.057957 124.67956,87.045931 8.1509113 0 1 -12.18,-13.769684 77.927427,54.405591 8.1509272 0 1 -6.6438,-11.736688 c -0.5182,-1.342672 -0.9031,-2.702134 -1.3517,-4.053687 -0.086,-0.259316 -0.1784,-0.518404 -0.2824,-0.775284 -0.012,-0.02508 -0.1296,-0.04714 -0.1972,-0.05049 -0.054,-0.0024 -0.1466,0.0163 -0.1544,0.04102 -0.3113,0.996163 -0.6285,1.991081 -0.9178,2.992012 -0.1047,0.348995 -0.1047,0.720002 -0.1996,1.071363 -0.4604,1.712025 -0.7094,3.458133 -1.0032,5.198313 -0.4152,2.459351 -0.6318,4.940574 -0.7151,7.437457 a 96.945568,67.683247 8.1509272 0 0 1.7156,15.068434 78.699082,54.944327 8.1509264 0 0 6.4002,13.938504 82.594539,57.663969 8.1509259 0 0 13.1404,14.470396 120.02546,83.796628 8.150918 0 0 15.0399,10.8122549 250.36402,174.7934 8.1509246 0 0 20.99971,11.7380996 q 9.66957,4.9960092 19.34656,9.9846615 c 2.0655,1.066642 4.13731,2.12766 6.18413,3.213266 a 57.006045,39.799173 8.1509297 0 1 11.94779,8.061595 43.331374,30.252108 8.1509303 0 1 9.74467,13.906385 42.044493,29.353662 8.1509326 0 1 0.83845,10.012708 39.430322,27.528559 8.150931 0 1 -1.62416,5.710913 56.270906,39.285936 8.1509235 0 1 -4.5908,7.114439 54.458856,38.020839 8.1509261 0 1 -18.87266,12.2587 52.641797,36.752248 8.1509267 0 1 -17.70871,3.544626 c -1.81358,0.110621 -3.66025,0.0971 -5.49384,0.130359 a 4.0289371,2.812831 8.1509271 0 0 -1.5229,0.146129 z"
         id="path5388-2-8-5-3"
         style="clip-rule:evenodd;display:inline;fill:#000000;fill-opacity:1;stroke:none;stroke-width:1.84162;stroke-miterlimit:10;stroke-opacity:0;enable-background:new" /><path
         class="cls-1"
         d="m -997.69867,-101.49471 a 41.848467,37.718675 35.975775 0 0 1.38823,6.542946 46.199798,41.640598 35.975843 0 0 2.15935,5.596589 44.474986,40.085996 35.975805 0 0 9.58749,13.400332 68.155247,61.429385 35.975793 0 0 11.04433,9.015632 138.53591,124.86458 35.975819 0 0 16.05798,9.38717 c 5.31856,2.756166 10.72681,5.310546 16.11061,7.920338 4.70287,2.279682 9.4087,4.555749 14.07103,6.924219 a 148.52267,133.86578 35.975839 0 1 14.55387,8.271103 84.898438,76.520286 35.975797 0 1 12.23725,9.186545 56.47955,50.9059 35.975778 0 1 9.67674,10.904089 46.761782,42.147121 35.975783 0 1 5.52435,10.5427783 q 0.41608,1.1237625 0.822,2.2502211 c 0.0573,0.1577787 0.14495,0.2137183 0.30442,0.1425641 a 0.31029395,0.27967276 35.975789 0 0 0.13863,-0.1118995 c 0.10972,-0.2899959 0.22258,-0.579998 0.30694,-0.8796454 a 41.290982,37.216204 35.975789 0 1 8.12378,-13.9283116 45.78665,41.268222 35.975803 0 1 9.16059,-7.14483 33.427612,30.128829 35.975772 0 1 9.35242,-3.413823 18.777706,16.924638 35.975791 0 1 9.88515,0.686108 16.539225,14.907063 35.975829 0 1 3.69075,1.818865 0.48924123,0.44096074 35.975817 0 0 0.68548,-0.10245 7.5312504,6.7880333 35.975798 0 0 0.84185,-3.061686 5.1707746,4.6604996 35.975791 0 0 -1.75074,-3.911527 10.799001,9.7333099 35.975755 0 0 -2.69342,-1.907159 27.278415,24.586462 35.97578 0 0 -5.93504,-2.26379 69.555323,62.691297 35.975788 0 0 -9.74033,-1.939892 c -1.5321,-0.205996 -3.06644,-0.35591 -4.5995,-0.541617 -0.39969,-0.0486 -0.79815,-0.134523 -1.19696,-0.205657 a 0.9003822,0.8115285 35.975809 0 1 -0.64381,-0.465821 14.570397,13.132526 35.975804 0 1 -1.61476,-3.245198 2.993153,2.6977755 35.975819 0 1 -0.13397,-0.768812 1.0354928,0.93330575 35.97579 0 1 0.94857,-0.941197 4.5068409,4.0620858 35.975764 0 1 0.98674,0.181002 8.9484483,8.0653759 35.975808 0 1 2.39913,1.173238 42.245535,38.076557 35.97578 0 0 5.55957,3.178043 11.6157,10.46941 35.975824 0 0 3.09641,1.036329 4.087927,3.6845122 35.975803 0 0 0.79308,0.02943 0.78251596,0.70529383 35.975813 0 0 0.531,-0.670751 13.720274,12.366297 35.975846 0 0 -1.09725,-3.198761 16.906715,15.238285 35.975802 0 0 -9.95689,-9.610955 25.719256,23.181164 35.975736 0 0 -7.06983,-1.890966 41.138319,37.078609 35.975815 0 0 -6.98914,-0.378919 44.53087,40.13637 35.975821 0 0 -4.95234,0.203627 c -2.71423,0.412526 -5.47189,0.633712 -8.16819,1.138129 -2.49778,0.467135 -4.98695,0.960931 -7.45092,1.524551 -3.09623,0.708212 -6.15561,1.527539 -9.21664,2.337027 -2.18617,0.578121 -4.34861,1.219884 -6.52256,1.830976 a 1.243037,1.1203688 35.975757 0 1 -1.15268,-0.09656 61.100291,55.070643 35.975784 0 0 -10.84106,-5.977439 c -5.40145,-2.568287 -10.83449,-5.062527 -16.23561,-7.631516 -7.20485,-3.42698 -14.31681,-7.049507 -21.21096,-11.122997 a 119.99948,108.15741 35.975807 0 1 -12.4113,-8.238817 69.03986,62.226699 35.975806 0 1 -9.44573,-8.340705 39.055696,35.201506 35.975784 0 1 -8.58412,-12.79895 1.5535357,1.4002259 35.975846 0 0 -0.18358,-0.34246 c -0.0308,-0.0434 -0.12413,-0.0477 -0.24474,-0.0881 z"
         id="path5390-7-6-7"
         style="clip-rule:evenodd;display:inline;fill:#000000;fill-opacity:1;stroke:none;stroke-width:1.94203;stroke-miterlimit:10;stroke-opacity:0;enable-background:new" /><path
         class="cls-1"
         d="m -1103.6918,-23.695126 a 0.7571163,0.71145131 3.4150368 0 0 -0.025,0.596559 c 0.2241,0.585124 0.436,1.174809 0.6754,1.754566 a 106.25651,99.847724 3.4149763 0 0 7.2278,14.3255947 71.714857,67.389423 3.4150387 0 0 13.3912,15.9569265 56.795951,53.370342 3.4150421 0 0 15.8417,9.7777968 66.226832,62.232404 3.4150371 0 0 6.3509,2.215386 c 2.1062,0.643365 4.2791,0.993378 6.4093,1.521886 a 27.06364,25.431312 3.4150178 0 0 2.9328,0.449628 c 0.599,0.08388 1.2032,0.133538 1.8019,0.220492 a 59.412377,55.828959 3.4150308 0 0 6.412,0.501933 c 2.3658,0.100455 4.7263,0.06156 7.0887,-0.0054 a 1.3471588,1.2659056 3.4150482 0 1 0.4164,0.123288 1.7699317,1.6631794 3.4150268 0 1 -0.2899,0.361269 30.64302,28.794805 3.4150636 0 1 -12.492,5.305615 38.306347,35.995926 3.4150382 0 1 -9.0211,0.59202 c -1.6022,-0.0594 -3.1751,-0.296995 -4.7612,-0.455851 -0.2189,-0.02162 0.069,-0.041 -0.089,0.102047 a 0.1520528,0.14288181 3.415022 0 0 0,0.136793 0.7865385,0.73909893 3.4150402 0 0 0.2096,0.228765 48.286946,45.374554 3.4150416 0 0 9.4627,4.420906 40.754425,38.296348 3.4150355 0 0 7.3699,1.72197 32.859665,30.877756 3.4150048 0 0 16.1036,-1.229069 32.362699,30.410764 3.4150425 0 0 12.9164,-7.74169 34.149027,32.089349 3.4150529 0 0 7.2948,-10.921098 22.822161,21.445655 3.4150377 0 0 1.142,-3.552467 c 0.1987,-0.962117 0.4611,-1.912205 0.6744,-2.8719054 a 1.788753,1.6808655 3.4150973 0 0 -0.028,-0.6087951 c -0.019,-0.085159 -0.1286,-0.2198438 -0.1994,-0.2210386 a 9.5185418,8.9444373 3.4150431 0 0 -1.1515,0.03987 q -4.6738,0.4537839 -9.3718,0.6131621 c -2.9107,0.099083 -5.8222,0.1642591 -8.7366,0.042129 -2.0874,-0.08742 -4.1781,-0.1226359 -6.2626,-0.2560349 -1.8107,-0.115798 -3.6156,-0.3275413 -5.4214,-0.5142779 -1.2586,-0.1302534 -2.518,-0.2630842 -3.77,-0.4424341 a 63.759281,59.913682 3.4150408 0 1 -6.3336,-1.1152181 c -0.6942,-0.1678935 -1.3906,-0.3325009 -2.0943,-0.4553691 a 58.094184,54.590272 3.4150311 0 1 -6.0808,-1.4772475 97.567028,91.682343 3.4150193 0 1 -27.9468,-12.5415424 101.00073,94.908956 3.4150752 0 1 -17.0471,-14.013209 c -0.6356,-0.649495 -1.245,-1.321186 -1.8768,-1.974061 a 1.7010732,1.5984741 3.4150359 0 0 -0.7473,-0.589304 z"
         id="path5392-0-2-5"
         style="clip-rule:evenodd;display:inline;fill:#000000;fill-opacity:1;stroke:none;stroke-width:1.58099;stroke-miterlimit:10;stroke-opacity:0;enable-background:new" /><path
         class="cls-1"
         d="m -1117.5792,29.047663 a 1.9318712,0.86657904 7.7414014 0 0 0.1198,0.768763 105.31517,47.241201 7.7413978 0 0 7.3382,7.524765 107.78369,48.348506 7.7414006 0 0 10.4053,7.742312 74.915896,33.605007 7.7414008 0 0 6.5472,3.927005 c 2.3873,1.238821 4.7226,2.499855 7.1765,3.710141 a 95.812264,42.978487 7.7413979 0 0 35.8098,12.633077 73.419809,32.933906 7.7413995 0 0 27.6208,4.137797 64.23774,28.815109 7.7413982 0 0 21.4257,-0.4484 55.279062,24.796517 7.7413959 0 0 6.4525,-1.098133 65.969662,29.591997 7.7414015 0 0 16.37747,-5.551622 62.007658,27.814761 7.7414007 0 0 9.15689,-7.560394 75.003574,33.644336 7.7414025 0 0 3.0169,-10.66805 90.960533,40.802146 7.7413987 0 0 -6.09305,-13.949896 103.91477,46.613027 7.7413993 0 0 -11.04127,-10.739884 8.5900009,3.8532148 7.7413993 0 0 -0.90542,-0.567682 0.49421793,0.22169122 7.7414031 0 0 -0.30238,-0.0888 c -0.10904,0.05916 -0.28521,0.130613 -0.26448,0.198373 0.20363,0.536106 0.44035,1.073133 0.68374,1.610026 a 106.57062,47.80436 7.7413975 0 1 2.53108,11.320941 75.233814,33.747616 7.7413972 0 1 -4.32301,10.749759 61.862926,27.749839 7.7414013 0 1 -7.41839,5.713035 54.037281,24.239492 7.7414002 0 1 -6.11954,2.719828 59.64398,26.754488 7.7413992 0 1 -17.47094,3.596221 67.413618,30.239712 7.7413983 0 1 -30.184,-0.660956 84.569219,37.935197 7.7413988 0 1 -32.5393,-7.177181 104.64945,46.942579 7.741401 0 1 -12.3367,-4.441158 109.02064,48.903364 7.7414002 0 1 -14.033,-6.569066 121.91915,54.689242 7.7413999 0 1 -11.6308,-6.830975 z"
         id="path5396-93-9-9"
         style="clip-rule:evenodd;display:inline;fill:#000000;fill-opacity:1;stroke:none;stroke-width:2.29545;stroke-miterlimit:10;stroke-opacity:0;enable-background:new" /></g></g></svg>
