<?xml version="1.0" encoding="UTF-8" standalone="no"?>
<!-- Uploaded to: SVG Repo, www.svgrepo.com, Generator: SVG Repo Mixer Tools -->

<svg
   version="1.1"
   id="Layer_1"
   viewBox="0 0 369.99999 369.99999"
   xml:space="preserve"
   sodipodi:docname="epg.svg"
   inkscape:version="1.4 (e7c3feb100, 2024-10-09)"
   inkscape:export-filename="radio.svg"
   inkscape:export-xdpi="96"
   inkscape:export-ydpi="96"
   width="370"
   height="370"
   xmlns:inkscape="http://www.inkscape.org/namespaces/inkscape"
   xmlns:sodipodi="http://sodipodi.sourceforge.net/DTD/sodipodi-0.dtd"
   xmlns="http://www.w3.org/2000/svg"
   xmlns:svg="http://www.w3.org/2000/svg"><defs
   id="defs7" /><sodipodi:namedview
   id="namedview7"
   pagecolor="#ffffff"
   bordercolor="#000000"
   borderopacity="0.25"
   inkscape:showpageshadow="2"
   inkscape:pageopacity="0.0"
   inkscape:pagecheckerboard="0"
   inkscape:deskcolor="#d1d1d1"
   inkscape:zoom="0.37276743"
   inkscape:cx="402.39567"
   inkscape:cy="72.431221"
   inkscape:window-width="1360"
   inkscape:window-height="761"
   inkscape:window-x="0"
   inkscape:window-y="0"
   inkscape:window-maximized="1"
   inkscape:current-layer="Layer_1"><inkscape:page
     x="0"
     y="0"
     width="370"
     height="370"
     id="page1"
     margin="0"
     bleed="0" /></sodipodi:namedview>

<g
   id="g7"
   transform="matrix(0.91712034,0,0,0.80489457,4.9706521,25)"><path
     style="fill:#ffffff"
     d="M 359.855,21.786 H 32.743 c -6.012,0 -10.925,4.848 -10.925,10.925 v 327.111 c 0,6.012 4.848,10.925 10.925,10.925 h 327.111 c 6.012,0 10.925,-4.848 10.925,-10.925 V 32.711 c 10e-4,-6.012 -4.912,-10.925 -10.924,-10.925 z"
     id="path1" /><path
     style="fill:#194f82"
     d="M 359.855,0 H 32.743 C 14.707,0 0.032,14.675 0.032,32.711 v 327.111 c 0,18.101 14.675,32.776 32.711,32.776 h 327.111 c 18.036,0 32.711,-14.675 32.711,-32.711 V 32.711 C 392.566,14.675 377.891,0 359.855,0 Z m 10.925,359.822 c 0,6.012 -4.848,10.925 -10.925,10.925 H 32.743 c -6.012,0 -10.925,-4.848 -10.925,-10.925 V 32.711 c 0,-6.012 4.848,-10.925 10.925,-10.925 h 327.111 c 6.012,0 10.925,4.848 10.925,10.925 v 327.111 z"
     id="path2" /><rect
     x="58.924999"
     y="107.636"
     style="fill:#56ace0"
     width="274.81201"
     height="119.79"
     id="rect2" /><path
     style="fill:#194f82"
     d="M 344.598,85.851 H 48 c -6.012,0 -10.925,4.848 -10.925,10.925 v 141.576 c 0,6.012 4.848,10.925 10.925,10.925 h 296.663 c 6.012,0 10.925,-4.848 10.925,-10.925 V 96.711 c -0.129,-6.012 -4.978,-10.86 -10.99,-10.86 z M 333.673,227.426 H 58.925 v -119.79 h 274.812 v 119.79 z"
     id="path3" /><polygon
     style="fill:#ffc10d"
     points="180.137,150.432 180.137,184.63 204.444,167.499 "
     id="polygon3" /><g
     id="g11">
	<path
   style="fill:#194f82"
   d="m 229.657,158.578 -54.174,-38.012 c -3.297,-2.327 -7.628,-2.651 -11.313,-0.776 -3.62,1.875 -5.883,5.624 -5.883,9.632 v 76.218 c 0,4.073 2.263,7.822 5.883,9.632 3.943,1.745 7.758,1.745 11.313,-0.776 l 54.174,-38.077 c 2.909,-2.004 4.655,-5.43 4.655,-8.857 -0.001,-3.619 -1.746,-6.916 -4.655,-8.984 z m -49.52,26.052 v -34.133 l 24.242,17.067 z"
   id="path4" />
	<path
   style="fill:#194f82"
   d="m 48,65.422 h 189.802 c 6.012,0 10.925,-4.848 10.925,-10.925 0,-6.012 -4.848,-10.925 -10.925,-10.925 H 48 c -6.012,0 -10.925,4.848 -10.925,10.925 0.064,6.077 4.913,10.925 10.925,10.925 z"
   id="path5" />
	<path
   style="fill:#194f82"
   d="m 279.24,65.422 h 10.925 c 6.012,0 10.925,-4.848 10.925,-10.925 0,-6.012 -4.848,-10.925 -10.925,-10.925 H 279.24 c -6.012,0 -10.925,4.848 -10.925,10.925 0,6.077 4.849,10.925 10.925,10.925 z"
   id="path6" />
	<path
   style="fill:#194f82"
   d="m 344.598,43.572 h -10.925 c -6.012,0 -10.925,4.848 -10.925,10.925 0,6.077 4.848,10.925 10.925,10.925 h 10.925 c 6.012,0 10.925,-4.848 10.925,-10.925 0,-6.077 -4.913,-10.925 -10.925,-10.925 z"
   id="path7" />
	<path
   style="fill:#194f82"
   d="M 344.598,277.721 H 233.341 c -6.012,0 -10.925,4.848 -10.925,10.925 0,6.077 4.848,10.925 10.925,10.925 h 111.257 c 6.012,0 10.925,-4.848 10.925,-10.925 0,-6.077 -4.913,-10.925 -10.925,-10.925 z"
   id="path8" />
	<path
   style="fill:#194f82"
   d="M 344.598,324.913 H 233.341 c -6.012,0 -10.925,4.849 -10.925,10.925 0,6.012 4.848,10.925 10.925,10.925 h 111.257 c 6.012,0 10.925,-4.848 10.925,-10.925 -0.064,-6.076 -4.913,-10.925 -10.925,-10.925 z"
   id="path9" />
	<path
   style="fill:#194f82"
   d="M 159.257,277.721 H 48 c -6.012,0 -10.925,4.848 -10.925,10.925 0,6.077 4.848,10.926 10.925,10.926 h 111.257 c 6.012,0 10.925,-4.848 10.925,-10.925 0,-6.077 -4.849,-10.926 -10.925,-10.926 z"
   id="path10" />
	<path
   style="fill:#194f82"
   d="M 159.257,324.913 H 48 c -6.012,0 -10.925,4.849 -10.925,10.925 0,6.012 4.848,10.925 10.925,10.925 h 111.257 c 6.012,0 10.925,-4.848 10.925,-10.925 0,-6.077 -4.849,-10.925 -10.925,-10.925 z"
   id="path11" />
</g></g></svg>
