<?xml version="1.0" encoding="UTF-8" standalone="no"?>
<!-- Uploaded to: SVG Repo, www.svgrepo.com, Generator: SVG Repo Mixer Tools -->

<svg
   version="1.1"
   id="Layer_1"
   viewBox="0 0 370 370"
   xml:space="preserve"
   sodipodi:docname="live.svg"
   width="370"
   height="370"
   xmlns:inkscape="http://www.inkscape.org/namespaces/inkscape"
   xmlns:sodipodi="http://sodipodi.sourceforge.net/DTD/sodipodi-0.dtd"
   xmlns="http://www.w3.org/2000/svg"
   xmlns:svg="http://www.w3.org/2000/svg"><defs
   id="defs3" /><sodipodi:namedview
   id="namedview3"
   pagecolor="#ffffff"
   bordercolor="#000000"
   borderopacity="0.25"
   inkscape:showpageshadow="2"
   inkscape:pageopacity="0.0"
   inkscape:pagecheckerboard="0"
   inkscape:deskcolor="#d1d1d1"><inkscape:page
     x="0"
     y="0"
     width="370"
     height="370"
     id="page2"
     margin="0"
     bleed="0" /></sodipodi:namedview>
<rect
   x="38.052498"
   y="317.5108"
   width="292.5"
   height="23.489187"
   id="rect1"
   style="stroke-width:0.718414" />
<rect
   y="25"
   style="fill:#e04f5f;stroke-width:0.718414"
   width="360"
   height="265.76843"
   id="rect2"
   x="5" />
<g
   id="g3"
   transform="matrix(0.703125,0,0,0.73403713,5,-4.91348)">
	<path
   style="fill:#ffffff"
   d="m 222.08,174.688 v 24.896 h -21.344 v 47.6 c 0,9.632 0.208,15.248 0.608,16.848 0.4,1.6 1.328,2.912 2.784,3.936 1.44,1.04 3.2,1.568 5.28,1.568 2.896,0 7.072,-0.992 12.56,-3.008 l 2.672,24.24 c -7.264,3.104 -15.504,4.672 -24.688,4.672 -5.632,0 -10.704,-0.96 -15.232,-2.848 -4.512,-1.888 -7.824,-4.336 -9.936,-7.328 -2.128,-3.008 -3.584,-7.056 -4.4,-12.176 -0.656,-3.648 -0.992,-10.976 -0.992,-22.016 V 199.584 H 155.04 v -24.896 h 14.336 v -23.472 l 31.36,-18.24 v 41.696 h 21.344 z"
   id="path2" />
	<path
   style="fill:#ffffff"
   d="m 281.92,292.736 -47.6,-118.064 h 32.8 l 22.24,60.256 6.448,20.128 c 1.696,-5.104 2.784,-8.48 3.216,-10.128 1.04,-3.328 2.16,-6.656 3.344,-10 l 22.448,-60.256 h 32.128 l -46.912,118.064 z"
   id="path3" />
</g>
</svg>
