<?xml version="1.0" encoding="UTF-8" standalone="no"?>
<!-- Uploaded to: SVG Repo, www.svgrepo.com, Generator: SVG Repo Mixer Tools -->

<svg
   version="1.1"
   id="Layer_1"
   viewBox="0 0 369.99998 369.99998"
   xml:space="preserve"
   sodipodi:docname="radio.svg"
   inkscape:version="1.4 (e7c3feb100, 2024-10-09)"
   inkscape:export-filename="radio.svg"
   inkscape:export-xdpi="96"
   inkscape:export-ydpi="96"
   width="370"
   height="370"
   xmlns:inkscape="http://www.inkscape.org/namespaces/inkscape"
   xmlns:sodipodi="http://sodipodi.sourceforge.net/DTD/sodipodi-0.dtd"
   xmlns="http://www.w3.org/2000/svg"
   xmlns:svg="http://www.w3.org/2000/svg"><defs
   id="defs7" /><sodipodi:namedview
   id="namedview7"
   pagecolor="#ffffff"
   bordercolor="#000000"
   borderopacity="0.25"
   inkscape:showpageshadow="2"
   inkscape:pageopacity="0.0"
   inkscape:pagecheckerboard="0"
   inkscape:deskcolor="#d1d1d1"
   inkscape:zoom="1.0543455"
   inkscape:cx="116.18582"
   inkscape:cy="235.21701"
   inkscape:window-width="1024"
   inkscape:window-height="740"
   inkscape:window-x="1360"
   inkscape:window-y="0"
   inkscape:window-maximized="1"
   inkscape:current-layer="Layer_1"><inkscape:page
     x="0"
     y="0"
     width="369.99997"
     height="369.99997"
     id="page2"
     margin="0"
     bleed="0" /></sodipodi:namedview>

<path
   style="fill:#ffffff;stroke-width:0.729226"
   d="m 335.08834,309.26486 c 5.52865,0 9.99409,-4.72651 9.99409,-10.57837 V 115.40293 c 0,-5.85186 -4.46544,-10.57838 -9.99409,-10.57838 H 34.98226 c -5.52865,0 -9.99409,4.72652 -9.99409,10.57838 v 183.28356 c 0,5.85186 4.46544,10.57837 9.99409,10.57837 z"
   id="path1"
   inkscape:export-filename="radio.svg"
   inkscape:export-xdpi="96"
   inkscape:export-ydpi="96" /><path
   style="fill:#ffc10d;stroke-width:0.729226"
   d="m 123.51143,250.74617 c -22.7525,0 -41.25219,-19.58126 -41.25219,-43.66395 0,-24.0827 18.49969,-43.66395 41.25219,-43.66395 22.75249,0 41.25218,19.58125 41.25218,43.66395 0,24.08269 -18.49969,43.66395 -41.25218,43.66395 z"
   id="path2" /><rect
   x="255.41919"
   y="144.21214"
   style="fill:#56ace0;stroke-width:0.729226"
   width="50.608349"
   height="125.74017"
   id="rect2" /><g
   id="g5"
   transform="matrix(0.7088004,0,0,0.75023967,4.96456,-40.121755)">
	<path
   style="fill:#194f82"
   d="m 438.85,217.4 h -99.7 c -7.8,0 -14.1,6.3 -14.1,14.1 v 195.8 c 0,7.8 6.3,14.1 14.1,14.1 h 99.7 c 7.8,0 14.1,-6.3 14.1,-14.1 V 231.6 c 0,-7.8 -6.3,-14.2 -14.1,-14.2 z m -14.1,195.8 h -71.4 V 245.7 h 71.4 z"
   id="path3" />
	<path
   style="fill:#194f82"
   d="M 465.75,165 H 169.25302 l 69.63,-50.60963 c 12.29326,-13.19096 -2.90226,-34.14586 -11.6,-25.599998 L 86.55,165 h -44.2 c -23.3,0 -42.3,19 -42.3,42.3 v 244.3 c 0,23.3 19,42.3 42.3,42.3 h 35.3 c 0,7.8 6.3,14.1 14.1,14.1 h 61.3 c 7.8,0 14.1,-6.3 14.1,-14.1 h 173.7 c 0,7.8 6.3,14.1 14.1,14.1 h 61.3 c 7.8,0 14.1,-6.3 14.1,-14.1 h 35.3 c 23.3,0 42.3,-19 42.3,-42.3 V 207.3 C 508.05,184 489.05,165 465.75,165 Z m 14.1,286.6 c 0,7.8 -6.3,14.1 -14.1,14.1 H 42.35 c -7.8,0 -14.1,-6.3 -14.1,-14.1 V 207.3 c 0,-7.8 6.3,-14.1 14.1,-14.1 h 423.3 c 7.8,0 14.1,6.3 14.1,14.1 v 244.3 z"
   id="path4"
   sodipodi:nodetypes="sccccsssscssccsscsscscssssssscc" />
	<path
   style="fill:#194f82"
   d="m 167.25,214.8 c -63.2,0 -114.7,51.4 -114.7,114.7 0,63.3 51.5,114.6 114.7,114.6 63.2,0 114.7,-51.4 114.7,-114.7 0,-63.3 -51.5,-114.6 -114.7,-114.6 z m 0,202 c -48.1,0 -87.3,-39.2 -87.3,-87.3 0,-48.1 39.2,-87.3 87.3,-87.3 48.1,0 87.3,39.2 87.3,87.3 0,48.1 -39.2,87.3 -87.3,87.3 z"
   id="path5" />
</g></svg>
