<?xml version="1.0" encoding="UTF-8" standalone="no"?>
<!-- Uploaded to: SVG Repo, www.svgrepo.com, Generator: SVG Repo Mixer Tools -->

<svg
   version="1.1"
   id="Layer_1"
   viewBox="0 0 370.204 370.204"
   xml:space="preserve"
   sodipodi:docname="videoteka.svg"
   inkscape:version="1.4 (e7c3feb100, 2024-10-09)"
   xmlns:inkscape="http://www.inkscape.org/namespaces/inkscape"
   xmlns:sodipodi="http://sodipodi.sourceforge.net/DTD/sodipodi-0.dtd"
   xmlns="http://www.w3.org/2000/svg"
   xmlns:svg="http://www.w3.org/2000/svg"><defs
   id="defs7" /><sodipodi:namedview
   id="namedview7"
   pagecolor="#ffffff"
   bordercolor="#000000"
   borderopacity="0.25"
   inkscape:showpageshadow="2"
   inkscape:pageopacity="0.0"
   inkscape:pagecheckerboard="0"
   inkscape:deskcolor="#d1d1d1"
   inkscape:zoom="1.0543455"
   inkscape:cx="116.66005"
   inkscape:cy="235.21701"
   inkscape:window-width="1360"
   inkscape:window-height="761"
   inkscape:window-x="0"
   inkscape:window-y="0"
   inkscape:window-maximized="1"
   inkscape:current-layer="Layer_1" />
<g
   id="g7"
   transform="matrix(0.97243682,0,0,1.1822498,5,-35.83621)">
	<g
   id="g2">
		<path
   style="fill:#005fad"
   d="m 0,293.745 c 0,13.75 11.25,25 25,25 h 312.703 c 13.75,0 25,-11.25 25,-25 V 76.458 c 0,-13.75 -11.25,-25 -25,-25 H 25 c -13.75,0 -25,11.25 -25,25 z"
   id="path1" />
		<path
   style="fill:#333e48"
   d="m 362.703,81.229 v -4.771 c 0,-13.75 -11.25,-25 -25,-25 H 25 c -13.75,0 -25,11.25 -25,25 v 4.771 z"
   id="path2" />
		<rect
   y="81.228996"
   style="fill:#0071ce"
   width="7.5"
   height="23.576"
   id="rect2"
   x="0" />
		<polygon
   style="fill:#c3c6c8"
   points="7.5,102.49 3.75,104.805 7.5,104.805 "
   id="polygon2" />
	</g>
	<path
   style="fill:#0071ce"
   d="m 370.203,293.745 c 0,13.75 -11.25,25 -25,25 H 32.5 c -13.75,0 -25,-11.25 -25,-25 V 76.458 c 0,-13.75 11.25,-25 25,-25 h 312.703 c 13.75,0 25,11.25 25,25 z"
   id="path3" />
	<g
   id="g4">
		<circle
   style="fill:#ffffff"
   cx="188.85201"
   cy="209.834"
   r="76"
   id="circle3" />
		<path
   style="fill:#1e252b"
   d="m 178.145,245.685 c -6.927,4.482 -12.594,1.399 -12.594,-6.851 v -58 c 0,-8.25 5.667,-11.333 12.594,-6.852 l 42.812,27.702 c 6.927,4.482 6.927,11.816 0,16.298 z"
   id="path4" />
	</g>
	<path
   style="fill:#1e252b"
   d="m 7.5,81.229 v -4.771 c 0,-13.75 11.25,-25 25,-25 h 312.703 c 13.75,0 25,11.25 25,25 v 4.771 z"
   id="path5" />
	<g
   id="g6">
		<rect
   x="7.5"
   y="81.228996"
   style="fill:#5e96dc"
   width="362.703"
   height="23.576"
   id="rect5" />
		<path
   style="fill:#ffffff"
   d="m 166.51,81.229 -23.575,23.576 h 22.341 l 23.575,-23.576 c 0,0 -22.341,0 -22.341,0 z m -45.917,0 -23.575,23.576 h 22.341 l 23.576,-23.576 c 0,0 -22.342,0 -22.342,0 z m -45.916,0 -23.576,23.576 H 73.443 L 97.018,81.229 Z m -45.917,0 L 7.5,102.49 v 2.315 H 27.526 L 51.101,81.229 c 0,0 -22.341,0 -22.341,0 z m 275.501,0 -23.576,23.576 h 22.342 l 23.575,-23.576 c 0,0 -22.341,0 -22.341,0 z m 45.916,0 -23.575,23.576 h 22.341 l 21.261,-21.261 v -2.315 c 0,0 -20.027,0 -20.027,0 z m -137.749,0 -23.576,23.576 h 22.342 l 23.574,-23.576 c 0,0 -22.34,0 -22.34,0 z m 45.916,0 -23.576,23.576 h 22.342 l 23.575,-23.576 c 0,0 -22.341,0 -22.341,0 z"
   id="path6" />
	</g>
</g>
</svg>
