<?xml version="1.0" encoding="UTF-8" standalone="no"?>
<svg
   viewBox="0 0 64 64"
   version="1.1"
   id="svg10"
   sodipodi:docname="apps.svg"
   inkscape:version="1.2.2 (b0a8486541, 2022-12-01)"
   xmlns:inkscape="http://www.inkscape.org/namespaces/inkscape"
   xmlns:sodipodi="http://sodipodi.sourceforge.net/DTD/sodipodi-0.dtd"
   xmlns="http://www.w3.org/2000/svg"
   xmlns:svg="http://www.w3.org/2000/svg">
  <defs
     id="defs14" />
  <sodipodi:namedview
     id="namedview12"
     pagecolor="#ffffff"
     bordercolor="#000000"
     borderopacity="0.25"
     inkscape:showpageshadow="2"
     inkscape:pageopacity="0.0"
     inkscape:pagecheckerboard="0"
     inkscape:deskcolor="#d1d1d1"
     showgrid="false"
     inkscape:zoom="9.140625"
     inkscape:cx="32.054701"
     inkscape:cy="32.109402"
     inkscape:window-width="1366"
     inkscape:window-height="706"
     inkscape:window-x="0"
     inkscape:window-y="0"
     inkscape:window-maximized="1"
     inkscape:current-layer="svg10" />
  <path
     d="m 51.5 32 c 0.004 10.77 -8.728 19.5 -19.5 19.5 -10.772 0 -19.504 -8.73 -19.5 -19.5 -0.004 -10.77 8.728 -19.5 19.5 -19.5 c 10.772 0 19.504 8.73 19.5 19.5 z"
     style="stroke-dasharray:none;fill:none;stroke-miterlimit:4;stroke:#00bcd4;stroke-width:3;stroke-opacity:1"
     id="path2" />
  <path
     d="m 24.5 32 c 0 1.796 -1.457 3.25 -3.252 3.25 c -1.791 0 -3.248 -1.454 -3.248 -3.25 0 -1.792 1.457 -3.25 3.248 -3.25 1.795 0 3.252 1.458 3.252 3.25"
     style="fill:#00bcd4;fill-opacity:1"
     id="path4" />
  <path
     d="m 35.25 32 c 0 1.796 -1.454 3.25 -3.25 3.25 -1.796 0 -3.25 -1.454 -3.25 -3.25 0 -1.792 1.454 -3.25 3.25 -3.25 1.796 0 3.25 1.458 3.25 3.25 z"
     style="fill:#00bcd4;fill-opacity:1"
     id="path6" />
  <path
     d="m 46 32 c 0 1.796 -1.458 3.25 -3.25 3.25 -1.796 0 -3.25 -1.454 -3.25 -3.25 0 -1.792 1.454 -3.25 3.25 -3.25 1.792 0 3.25 1.458 3.25 3.25 z"
     style="fill:#00bcd4;fill-opacity:1"
     id="path8" />
</svg>
