<?xml version="1.0" encoding="UTF-8" standalone="no"?>
<!-- Uploaded to: SVG Repo, www.svgrepo.com, Generator: SVG Repo Mixer Tools -->

<svg
   height="800px"
   width="800px"
   version="1.1"
   viewBox="0 0 64 64"
   xml:space="preserve"
   id="svg22"
   sodipodi:docname="arrow-up.svg"
   inkscape:version="1.2.2 (b0a8486541, 2022-12-01)"
   xmlns:inkscape="http://www.inkscape.org/namespaces/inkscape"
   xmlns:sodipodi="http://sodipodi.sourceforge.net/DTD/sodipodi-0.dtd"
   xmlns="http://www.w3.org/2000/svg"
   xmlns:svg="http://www.w3.org/2000/svg"><defs
   id="defs26" /><sodipodi:namedview
   id="namedview24"
   pagecolor="#ffffff"
   bordercolor="#000000"
   borderopacity="0.25"
   inkscape:showpageshadow="2"
   inkscape:pageopacity="0.0"
   inkscape:pagecheckerboard="0"
   inkscape:deskcolor="#d1d1d1"
   showgrid="false"
   inkscape:zoom="0.349375"
   inkscape:cx="256.17174"
   inkscape:cy="396.42219"
   inkscape:window-width="1360"
   inkscape:window-height="694"
   inkscape:window-x="0"
   inkscape:window-y="0"
   inkscape:window-maximized="1"
   inkscape:current-layer="svg22" />
<style
   type="text/css"
   id="style2">
	.st0{fill:#77B3D4;}
	.st1{opacity:0.2;}
	.st2{fill:#231F20;}
	.st3{fill:#FFFFFF;}
</style>
<g
   id="Layer_1"
   transform="rotate(178.85787,32,32)">
	<g
   id="g6">
		<circle
   class="st0"
   cx="32"
   cy="32"
   r="32"
   id="circle4" />
	</g>
	<g
   class="st1"
   id="g10">
		<path
   class="st2"
   d="M 49.5,33.9 35.3,15.7 c -1.8,-2.3 -4.7,-2.3 -6.5,0 L 14.5,33.9 c -1.8,2.3 -1,4.1 1.7,4.1 H 24 v 12 c 0,2.2 1.8,4 4,4 h 8 c 2.2,0 4,-1.8 4,-4 V 38 h 7.8 c 2.8,0 3.5,-1.9 1.7,-4.1 z"
   id="path8" />
	</g>
	<g
   id="g14">
		<path
   class="st3"
   d="m 40,48 c 0,2.2 -1.8,4 -4,4 h -8 c -2.2,0 -4,-1.8 -4,-4 V 24 c 0,-2.2 1.8,-4 4,-4 h 8 c 2.2,0 4,1.8 4,4 z"
   id="path12" />
	</g>
	<g
   id="g18">
		<path
   class="st3"
   d="m 16.2,36 c -2.7,0 -3.5,-1.9 -1.7,-4.1 L 28.8,13.8 c 1.8,-2.3 4.7,-2.3 6.5,0 l 14.3,18.1 c 1.8,2.3 1,4.1 -1.7,4.1 z"
   id="path16" />
	</g>
</g>
<g
   id="Layer_2">
</g>
</svg>
