<?xml version="1.0" encoding="UTF-8" standalone="no"?>
<svg
   height="42.309063"
   width="42.309063"
   version="1.1"
   id="svg512"
   sodipodi:docname="education.svg"
   inkscape:version="1.2.2 (b0a8486541, 2022-12-01)"
   xml:space="preserve"
   xmlns:inkscape="http://www.inkscape.org/namespaces/inkscape"
   xmlns:sodipodi="http://sodipodi.sourceforge.net/DTD/sodipodi-0.dtd"
   xmlns:xlink="http://www.w3.org/1999/xlink"
   xmlns="http://www.w3.org/2000/svg"
   xmlns:svg="http://www.w3.org/2000/svg"><defs
     id="defs516"><radialGradient
       id="SVGID_1_"
       cx="6.7430649"
       cy="817.38867"
       r="11"
       gradientTransform="translate(0,-810)"
       gradientUnits="userSpaceOnUse"
       fx="6.7430649"
       fy="817.38867"><stop
         stop-color="#64A5E1"
         offset=".321"
         id="stop6" /><stop
         stop-color="#508CC8"
         offset=".71"
         id="stop8" /><stop
         stop-color="#2C68A4"
         offset=".976"
         id="stop10" /><stop
         stop-color="#2864A0"
         offset="1"
         id="stop12" /></radialGradient><filter
       id="filter3888-7"
       inkscape:label="Drop Shadow"
       color-interpolation-filters="sRGB"
       x="-0.070615493"
       y="-0.053284489"
       width="1.1412309"
       height="1.1273832"><feFlood
         id="feFlood3890-5"
         flood-opacity="0.15"
         flood-color="rgb(0,0,0)"
         result="flood" /><feComposite
         id="feComposite3892-3"
         in2="SourceGraphic"
         in="flood"
         operator="in"
         result="composite1" /><feGaussianBlur
         id="feGaussianBlur3894-5"
         stdDeviation="1.6"
         result="blur" /><feOffset
         id="feOffset3896-6"
         dx="0"
         dy="1.5"
         result="offset" /><feComposite
         id="feComposite3898-2"
         in2="offset"
         in="SourceGraphic"
         operator="over"
         result="fbSourceGraphic" /><feColorMatrix
         result="fbSourceGraphicAlpha"
         in="fbSourceGraphic"
         values="0 0 0 -1 0 0 0 0 -1 0 0 0 0 -1 0 0 0 0 1 0"
         id="feColorMatrix3900-9" /><feFlood
         id="feFlood3902-1"
         flood-opacity="0.5"
         flood-color="rgb(0,0,0)"
         result="flood"
         in="fbSourceGraphic" /><feComposite
         id="feComposite3904-2"
         in2="fbSourceGraphic"
         in="flood"
         operator="in"
         result="composite1" /><feGaussianBlur
         id="feGaussianBlur3906-7"
         stdDeviation="1.6"
         result="blur" /><feOffset
         id="feOffset3908-0"
         dx="0"
         dy="1.5"
         result="offset" /><feComposite
         id="feComposite3910-9"
         in2="offset"
         in="fbSourceGraphic"
         operator="over"
         result="composite2" /></filter><radialGradient
       id="SVGID_1_-7"
       cx="6.7430649"
       cy="817.38867"
       r="11"
       gradientTransform="translate(0,-810)"
       gradientUnits="userSpaceOnUse"
       fx="6.7430649"
       fy="817.38867"><stop
         stop-color="#64A5E1"
         offset=".321"
         id="stop6-5" /><stop
         stop-color="#508CC8"
         offset=".71"
         id="stop8-3" /><stop
         stop-color="#2C68A4"
         offset=".976"
         id="stop10-5" /><stop
         stop-color="#2864A0"
         offset="1"
         id="stop12-6" /></radialGradient><filter
       id="filter3888-7-2"
       inkscape:label="Drop Shadow"
       color-interpolation-filters="sRGB"
       x="-0.070615493"
       y="-0.053284489"
       width="1.1412309"
       height="1.1273832"><feFlood
         id="feFlood3890-5-9"
         flood-opacity="0.15"
         flood-color="rgb(0,0,0)"
         result="flood" /><feComposite
         id="feComposite3892-3-1"
         in2="SourceGraphic"
         in="flood"
         operator="in"
         result="composite1" /><feGaussianBlur
         id="feGaussianBlur3894-5-2"
         stdDeviation="1.6"
         result="blur" /><feOffset
         id="feOffset3896-6-7"
         dx="0"
         dy="1.5"
         result="offset" /><feComposite
         id="feComposite3898-2-0"
         in2="offset"
         in="SourceGraphic"
         operator="over"
         result="fbSourceGraphic" /><feColorMatrix
         result="fbSourceGraphicAlpha"
         in="fbSourceGraphic"
         values="0 0 0 -1 0 0 0 0 -1 0 0 0 0 -1 0 0 0 0 1 0"
         id="feColorMatrix3900-9-9" /><feFlood
         id="feFlood3902-1-3"
         flood-opacity="0.5"
         flood-color="rgb(0,0,0)"
         result="flood"
         in="fbSourceGraphic" /><feComposite
         id="feComposite3904-2-6"
         in2="fbSourceGraphic"
         in="flood"
         operator="in"
         result="composite1" /><feGaussianBlur
         id="feGaussianBlur3906-7-0"
         stdDeviation="1.6"
         result="blur" /><feOffset
         id="feOffset3908-0-6"
         dx="0"
         dy="1.5"
         result="offset" /><feComposite
         id="feComposite3910-9-2"
         in2="offset"
         in="fbSourceGraphic"
         operator="over"
         result="composite2" /></filter><style
       id="style5001">.cls-1{fill:#4d4c78;}.cls-2{fill:#323150;}.cls-3{fill:#3f3e6b;}.cls-4{fill:#64639c;}.cls-5{fill:#f4c23f;}.cls-6{fill:#f4a93f;}.cls-7{fill:#de3226;}.cls-8{fill:#b11a31;}.cls-9{fill:#f8881b;}.cls-10{fill:#f08000;}.cls-11{fill:#fad564;}.cls-12{fill:#f44533;}</style><linearGradient
       id="b-7"
       gradientTransform="matrix(0.46956259,0,0,0.47352583,31.379124,12.012755)"
       gradientUnits="userSpaceOnUse"
       x1="-41.259998"
       x2="-2.994"
       y1="-0.88300002"
       y2="37.956001"><stop
         offset="0"
         stop-color="#21c9fb"
         id="stop487-5"
         style="stop-color:#ffedcb;stop-opacity:1;" /><stop
         offset="1"
         stop-color="#1a86f2"
         id="stop489-9"
         style="stop-color:#cc7d00;stop-opacity:1;" /></linearGradient></defs><sodipodi:namedview
     id="namedview514"
     pagecolor="#ffffff"
     bordercolor="#000000"
     borderopacity="0.25"
     inkscape:showpageshadow="2"
     inkscape:pageopacity="0.0"
     inkscape:pagecheckerboard="0"
     inkscape:deskcolor="#d1d1d1"
     showgrid="false"
     inkscape:zoom="9.3775828"
     inkscape:cx="15.835637"
     inkscape:cy="21.594051"
     inkscape:window-width="1366"
     inkscape:window-height="706"
     inkscape:window-x="0"
     inkscape:window-y="0"
     inkscape:window-maximized="1"
     inkscape:current-layer="svg512" /><linearGradient
     id="a"><stop
       offset="0"
       id="stop481" /><stop
       offset="1"
       stop-opacity="0"
       id="stop483" /></linearGradient><linearGradient
     id="c"
     gradientUnits="userSpaceOnUse"
     x1="10.4"
     x2="23.659"
     xlink:href="#a"
     y1="6.9000001"
     y2="20.159" /><linearGradient
     id="b"
     gradientTransform="matrix(0.4690613,0,0,0.47376883,31.364333,12.029782)"
     gradientUnits="userSpaceOnUse"
     x1="-41.259998"
     x2="-2.994"
     y1="-0.88300002"
     y2="37.956001"><stop
       offset="0"
       stop-color="#21c9fb"
       id="stop487" /><stop
       offset="1"
       stop-color="#1a86f2"
       id="stop489" /></linearGradient><linearGradient
     id="d"
     gradientTransform="matrix(0.49497475,0.49497475,-0.49497475,0.49497475,-0.8001303,-0.80031458)"
     gradientUnits="userSpaceOnUse"
     x1="31.021"
     x2="43.104"
     xlink:href="#a"
     y1="-9.8959999"
     y2="-9.8959999" /><linearGradient
     id="e"
     gradientUnits="userSpaceOnUse"
     x1="15.801"
     x2="17.643999"
     xlink:href="#a"
     y1="8.4530001"
     y2="10.296" /><g
     id="g351"
     transform="matrix(0.79995735,0,0,0.79966217,-4.3053023,-4.303208)"><path
       d="M 51.5,32 C 51.504,42.77 42.772,51.5 32,51.5 21.228,51.5 12.496,42.77 12.5,32 12.496,21.23 21.228,12.5 32,12.5 c 10.772,0 19.504,8.73 19.5,19.5 z"
       style="fill:none;stroke:#00bcd4;stroke-width:3;stroke-miterlimit:4;stroke-dasharray:none;stroke-opacity:1"
       id="path2" /></g><style
     type="text/css"
     id="style1217">
	.st0{opacity:0.05;enable-background:new    ;}
	.st1{opacity:0.07;enable-background:new    ;}
	.st2{fill:url(#SVGID_1_);}
	.st3{fill:url(#SVGID_2_);}
	.st4{fill:#BE4B41;}
	.st5{fill:url(#SVGID_3_);}
	.st6{fill:url(#SVGID_4_);}
	.st7{fill:url(#SVGID_5_);}
	.st8{fill:#2864A0;}
	.st9{fill:url(#SVGID_6_);}
	.st10{fill:#64A5E1;}
</style><path
     d="m 14.932241,12.078438 c -1.359023,0 -2.411336,1.103483 -2.452402,2.473643 v 15.91775 h 15.513916 c 1.359024,0 2.452403,-1.103483 2.452403,-2.473643 v -15.91775 z"
     fill="url(#b)"
     id="path494-2"
     style="fill:url(#b-7);stroke-width:0.649201" /><path
     d="m 30.446158,27.339354 c 0,1.370158 -1.093379,2.473641 -2.452403,2.473641 H 12.479839 v 0.656836 h 15.513916 c 1.359024,0 2.452403,-1.103483 2.452403,-2.473643 z"
     fill="#292c2f"
     opacity="0.2"
     id="path510-2"
     style="stroke-width:0.649201" /><g
     id="g5119"
     transform="matrix(0.00915991,0,0,0.00937662,12.209447,11.653416)"><path
       class="cls-1"
       d="M 978.4,193.8 170.6,511.4 c -18.8,7.5 -18.8,34.1 0,41.6 l 854.9,336.1 a 21.9,21.9 0 0 0 16.3,0 L 1896.7,553 c 18.9,-7.5 18.9,-34.1 0,-41.6 L 1088.9,193.8 a 150.6,150.6 0 0 0 -110.5,0 z"
       id="path5007"
       style="fill:#4d4c78" /><polygon
       class="cls-2"
       points="473.1,671.9 736.7,775.6 741,492.6 "
       id="polygon5009"
       style="fill:#323150" /><polygon
       class="cls-2"
       points="1594.2,671.9 1330.7,775.6 1326.3,492.6 "
       id="polygon5011"
       style="fill:#323150" /><path
       class="cls-1"
       d="M 1434.8,1108.8 H 632.5 L 706.8,530 A 44.3,44.3 0 0 1 741,492.6 q 319.8,-71.2 586.9,-0.9 a 43.7,43.7 0 0 1 32.4,36.9 z"
       id="path5013"
       style="fill:#4d4c78" /><path
       class="cls-2"
       d="m 833.3,620.9 a 44.2,44.2 0 0 1 34.2,-37.4 q 267,-59.4 497.3,-20.3 l -4.5,-34.6 a 43.7,43.7 0 0 0 -32.4,-36.9 q -267,-70.3 -586.9,0.9 A 44.3,44.3 0 0 0 706.8,530 l -74.3,578.8 h 138.2 z"
       id="path5015"
       style="fill:#323150" /><ellipse
       class="cls-2"
       cx="1033.7"
       cy="1108.8"
       rx="401.10001"
       ry="49.299999"
       id="ellipse5017"
       style="fill:#323150" /><path
       class="cls-2"
       d="m 1631.4,1016.8 a 19.9,19.9 0 0 1 -20,-20 V 429 a 20,20 0 0 1 40,0 v 567.8 a 20,20 0 0 1 -20,20 z"
       id="path5019"
       style="fill:#323150" /><path
       class="cls-1"
       d="m 1628.6,1213.3 a 69.4,69.4 0 0 1 -69.3,-69.3 v -111.2 a 69.3,69.3 0 0 1 138.5,0 V 1144 a 69.4,69.4 0 0 1 -69.2,69.3 z"
       id="path5021"
       style="fill:#4d4c78" /><path
       class="cls-2"
       d="m 1594.2,1182 v -111.2 a 69.2,69.2 0 0 1 99.1,-62.5 69.2,69.2 0 0 0 -134,24.5 V 1144 a 69.4,69.4 0 0 0 39.4,62.5 68.8,68.8 0 0 1 -4.5,-24.5 z"
       id="path5023"
       style="fill:#323150" /><path
       class="cls-1"
       d="m 1827.5,1285.4 a 67.5,67.5 0 0 0 -54.3,-27.3 H 240.8 a 67.6,67.6 0 0 0 -54.3,27.3 q -94.6,127.6 0,255.2 a 67.6,67.6 0 0 0 54.3,27.3 h 1532.4 a 67.5,67.5 0 0 0 54.3,-27.3 q 94.8,-127.6 0,-255.2 z"
       id="path5025"
       style="fill:#4d4c78" /><path
       class="cls-3"
       d="M 1867.2,1457.2 H 334.8 a 67.5,67.5 0 0 1 -54.3,-27.3 q -63.7,-85.8 -41.7,-171.8 a 68.2,68.2 0 0 0 -52.3,27.3 q -94.6,127.6 0,255.2 a 67.6,67.6 0 0 0 54.3,27.3 h 1532.4 a 67.5,67.5 0 0 0 54.3,-27.3 q 31.1,-41.7 41.7,-83.4 z"
       id="path5027"
       style="fill:#3f3e6b" /><rect
       class="cls-2"
       height="309.82001"
       width="124.9"
       x="433.60001"
       y="1258.1"
       id="rect5029"
       style="fill:#323150" /><rect
       class="cls-2"
       height="309.82001"
       width="124.9"
       x="1455.5"
       y="1258.1"
       id="rect5031"
       style="fill:#323150" /><rect
       class="cls-4"
       height="379.76001"
       rx="60.299999"
       ry="60.299999"
       transform="rotate(-8.2,1333.1564,826.83002)"
       width="120.7"
       x="1272.3"
       y="636.29999"
       id="rect5033"
       style="fill:#64639c" /><rect
       class="cls-4"
       height="379.76001"
       rx="60.299999"
       ry="60.299999"
       transform="rotate(-70.1,1315.9916,352.60996)"
       width="120.7"
       x="1256.6"
       y="162.3"
       id="rect5035"
       style="fill:#64639c" /><rect
       class="cls-4"
       height="114.13"
       rx="28.4"
       ry="28.4"
       width="56.799999"
       x="1639.5"
       y="1044"
       id="rect5037"
       style="fill:#64639c" /><path
       class="cls-5"
       d="m 1283.9,1533.8 c 0,27.9 -40.4,49.1 -48.6,74.2 -8.2,25.1 11.5,66.9 -4.3,88.6 -15.8,21.7 -61,15.4 -82.9,31.4 -21.9,16 -29.4,60.7 -55.5,69.2 -26.1,8.5 -57.7,-23.4 -85.6,-23.4 -27.9,0 -60.4,31.6 -85.5,23.4 -25.1,-8.2 -33.8,-53.4 -55.5,-69.2 -21.7,-15.8 -67,-9.5 -82.9,-31.4 -15.9,-21.9 4.1,-62.5 -4.3,-88.6 -8.4,-26.1 -48.6,-46.3 -48.6,-74.2 0,-27.9 40.4,-49 48.6,-74.1 8.2,-25.1 -11.5,-66.9 4.3,-88.6 15.8,-21.7 61,-15.5 82.9,-31.4 21.9,-15.9 29.4,-60.8 55.5,-69.2 26.1,-8.4 57.7,23.4 85.5,23.4 27.8,0 60.5,-31.6 85.6,-23.4 25.1,8.2 33.8,53.4 55.5,69.2 21.7,15.8 67,9.5 82.9,31.4 15.9,21.9 -4.2,62.5 4.3,88.6 8.5,26.1 48.6,46.3 48.6,74.1 z"
       id="path5039"
       style="fill:#f4c23f" /><path
       class="cls-6"
       d="M 1000.6,1732.2 A 181.2,181.2 0 0 1 872.5,1423 a 182.8,182.8 0 0 1 57.6,-38.8 181.1,181.1 0 0 1 237.3,237.4 181.1,181.1 0 0 1 -166.8,110.6 z"
       id="path5041"
       style="fill:#f4a93f" /><path
       class="cls-6"
       d="m 1115.4,1590.5 a 15.1,15.1 0 0 0 -19.9,-7.6 l -111.2,50 a 18.1,18.1 0 0 0 -4.2,2.8 18.1,18.1 0 0 0 -4.2,-2.8 l -111.2,-50 a 15.1,15.1 0 0 0 -19.9,7.6 l -51.6,114.9 c 20.1,11.6 54.5,9.3 72.8,22.6 21,15.3 28.9,57.8 53,68.3 l 61.1,-135.9 54.2,120.5 c 20.3,8.8 41.1,21.9 58.3,16.3 26.1,-8.5 33.8,-53.4 55.5,-69.2 6.6,-4.8 15.3,-7.6 24.7,-9.7 z"
       id="path5043"
       style="fill:#f4a93f" /><path
       class="cls-7"
       d="m 891.4,1859.1 -26.3,-46.6 a 15,15 0 0 0 -16.3,-7.3 l -52.3,11.2 a 15.1,15.1 0 0 1 -16.9,-20.9 l 92.2,-205 a 15.1,15.1 0 0 1 19.9,-7.6 l 111.2,50 a 15.2,15.2 0 0 1 7.5,19.9 l -92.2,205 a 15,15 0 0 1 -26.8,1.3 z"
       id="path5045"
       style="fill:#de3226" /><path
       class="cls-8"
       d="m 904,1628.1 a 31.1,31.1 0 0 0 -15.2,-41.3 l -8.9,-4.1 a 14.7,14.7 0 0 0 -8.1,7.8 l -92.2,205 a 15.1,15.1 0 0 0 16.9,20.9 l 22.6,-4.9 z"
       id="path5047"
       style="fill:#b11a31" /><path
       class="cls-7"
       d="m 1122.7,1859.1 26.3,-46.6 a 15,15 0 0 1 16.3,-7.3 l 52.3,11.2 a 15.1,15.1 0 0 0 16.9,-20.9 l -92.2,-205 a 15.1,15.1 0 0 0 -19.9,-7.6 l -111.2,50 a 15.1,15.1 0 0 0 -7.5,19.9 l 92.1,205 a 15.1,15.1 0 0 0 26.9,1.3 z"
       id="path5049"
       style="fill:#de3226" /><path
       class="cls-8"
       d="m 1040.1,1643.8 -33.7,15 89.4,199 a 15.1,15.1 0 0 0 26.9,1.3 l 7.5,-13.3 z"
       id="path5051"
       style="fill:#b11a31" /><path
       class="cls-8"
       d="m 1002.9,1632.9 -111.2,-50 a 15.1,15.1 0 0 0 -19.9,7.6 l -25.2,55.9 a 181.7,181.7 0 0 0 128.9,84.1 l 34.9,-77.7 a 15.2,15.2 0 0 0 -7.5,-19.9 z"
       id="path5053"
       style="fill:#b11a31" /><path
       class="cls-8"
       d="m 1161.8,1633.7 -19.5,-43.2 a 15.1,15.1 0 0 0 -19.9,-7.6 l -111.2,50 a 15.1,15.1 0 0 0 -7.5,19.9 l 33.9,75.6 a 180.7,180.7 0 0 0 33.5,-10.5 182.6,182.6 0 0 0 90.7,-84.2 z"
       id="path5055"
       style="fill:#b11a31" /><circle
       class="cls-9"
       cx="1007"
       cy="1529.4"
       r="169.5"
       id="circle5057"
       style="fill:#f8881b" /><circle
       class="cls-10"
       cx="1007"
       cy="1529.4"
       r="149.7"
       id="circle5059"
       style="fill:#f08000" /><circle
       class="cls-5"
       cx="1007"
       cy="1529.4"
       r="132.89999"
       id="circle5061"
       style="fill:#f4c23f" /><path
       class="cls-11"
       d="m 1125.4,1333.5 v 0 a 31.4,31.4 0 0 0 9.5,-8.6 c -13.1,-19.8 -22.2,-47.9 -42.3,-54.4 -6.9,-2.3 -14.3,-1.5 -22.1,0.8 a 30.3,30.3 0 0 0 0.7,29.2 l 12.6,21.9 a 30.5,30.5 0 0 0 41.6,11.1 z"
       id="path5063"
       style="fill:#fad564" /><path
       class="cls-11"
       d="m 1007.7,1303.9 a 30.6,30.6 0 0 0 4.3,-10.3 41.9,41.9 0 0 1 -5,0.3 c -24.4,0 -52.5,-24.4 -76,-24.8 a 30.4,30.4 0 0 0 13.4,29.7 l 21.2,13.9 a 30.5,30.5 0 0 0 42.1,-8.8 z"
       id="path5065"
       style="fill:#fad564" /><path
       class="cls-11"
       d="m 1235.3,1459.7 c -8.5,-26.1 11.5,-66.9 -4.3,-88.6 -9.9,-13.7 -31.3,-16.3 -51.2,-20.2 a 48.4,48.4 0 0 0 -6.7,29.9 l 3.9,40.8 a 49.3,49.3 0 0 0 53.8,44.4 v 0 a 49.3,49.3 0 0 0 6.7,-1.1 38.5,38.5 0 0 1 -2.2,-5.2 z"
       id="path5067"
       style="fill:#fad564" /><rect
       class="cls-12"
       height="85.82"
       rx="22.5"
       ry="22.5"
       transform="rotate(24.8,926.71004,1783.8425)"
       width="45"
       x="903.90002"
       y="1739.5"
       id="rect5069"
       style="fill:#f44533" /><rect
       class="cls-12"
       height="85.82"
       rx="22.5"
       ry="22.5"
       transform="rotate(-24,1179.5562,1726.1243)"
       width="45"
       x="1156"
       y="1682.4"
       id="rect5071"
       style="fill:#f44533" /><rect
       class="cls-4"
       height="89.050003"
       rx="44.5"
       ry="44.5"
       width="181.2"
       x="1594.2"
       y="1258.1"
       id="rect5073"
       style="fill:#64639c" /><rect
       class="cls-4"
       height="89.050003"
       rx="44.5"
       ry="44.5"
       width="181.2"
       x="1242.1"
       y="1258.1"
       id="rect5075"
       style="fill:#64639c" /><rect
       class="cls-4"
       height="89.050003"
       rx="44.5"
       ry="44.5"
       width="139.5"
       x="267.29999"
       y="1258.1"
       id="rect5077"
       style="fill:#64639c" /></g></svg>
