<?xml version="1.0" encoding="UTF-8" standalone="no"?>
<svg
   width="199.17569"
   height="199.17569"
   viewBox="0 0 149.38177 149.38177"
   version="1.1"
   id="svg20"
   sodipodi:docname="mm.svg"
   xml:space="preserve"
   inkscape:version="1.2.2 (b0a8486541, 2022-12-01)"
   xmlns:inkscape="http://www.inkscape.org/namespaces/inkscape"
   xmlns:sodipodi="http://sodipodi.sourceforge.net/DTD/sodipodi-0.dtd"
   xmlns="http://www.w3.org/2000/svg"
   xmlns:svg="http://www.w3.org/2000/svg"><defs
     id="defs24" /><sodipodi:namedview
     id="namedview22"
     pagecolor="#ffffff"
     bordercolor="#000000"
     borderopacity="0.25"
     inkscape:showpageshadow="2"
     inkscape:pageopacity="0.0"
     inkscape:pagecheckerboard="0"
     inkscape:deskcolor="#d1d1d1"
     showgrid="false"
     inkscape:zoom="2.2851562"
     inkscape:cx="-3.7196581"
     inkscape:cy="90.803419"
     inkscape:window-width="1366"
     inkscape:window-height="706"
     inkscape:window-x="0"
     inkscape:window-y="0"
     inkscape:window-maximized="1"
     inkscape:current-layer="svg20" /><circle
     style="fill:#ececec;fill-opacity:0;stroke:#2790bf;stroke-width:8.50394;stroke-miterlimit:4;stroke-dasharray:none;stroke-opacity:1"
     id="path4485-7"
     cx="74.69088"
     cy="74.69088"
     r="70.438911" /><g
     id="g1438"
     transform="matrix(1.4836351,0,0,1.4836351,27.162363,27.389666)"><rect
       style="opacity:0.2"
       width="58"
       height="46"
       x="3"
       y="10"
       rx="4"
       ry="4"
       id="rect1405" /><rect
       style="fill:#2769bc"
       width="58"
       height="46"
       x="3"
       y="9"
       rx="4"
       ry="4"
       id="rect1407" /><path
       style="opacity:0.2"
       d="M 32,17 A 11,11 0 0 0 21,28 11,11 0 0 0 32,39 11,11 0 0 0 43,28 11,11 0 0 0 32,17 Z m -4,5 h 1 0.115 c 0.195,-0.002 0.387,0.047 0.557,0.15 l 7.807,4.801 C 37.825,27.157 38,27.578 38,28 c 0,0.422 -0.175,0.843 -0.521,1.049 L 29.672,33.85 C 29.502,33.953 29.31,34.001 29.115,34 H 29 28 Z"
       id="path1409" /><path
       style="fill:#ffffff"
       d="M 32,16 A 11,11 0 0 0 21,27 11,11 0 0 0 32,38 11,11 0 0 0 43,27 11,11 0 0 0 32,16 Z m -4,5 h 1 0.115 c 0.195,-0.002 0.387,0.047 0.557,0.15 l 7.807,4.801 C 37.825,26.157 38,26.578 38,27 c 0,0.422 -0.175,0.843 -0.521,1.049 L 29.672,32.85 C 29.502,32.953 29.31,33.001 29.115,33 H 29 28 Z"
       id="path1411" /><rect
       style="opacity:0.5;fill:#ffffff"
       width="34"
       height="3"
       x="15"
       y="45"
       rx="1.5"
       ry="1.5"
       id="rect1413" /><rect
       style="opacity:0.2"
       width="9"
       height="9"
       x="19"
       y="43"
       rx="4.5"
       ry="4.5"
       id="rect1415" /><rect
       style="fill:#ffffff"
       width="9"
       height="9"
       x="19"
       y="42"
       rx="4.5"
       ry="4.5"
       id="rect1417" /><path
       style="opacity:0.3"
       d="m 7,9 v 4 h 4 V 9 Z m 46,0 v 4 h 4 V 9 Z M 7,17 v 4 h 4 v -4 z m 46,0 v 4 h 4 V 17 Z M 7,25 v 4 h 4 v -4 z m 46,0 v 4 h 4 V 25 Z M 7,33 v 4 h 4 v -4 z m 46,0 v 4 h 4 V 33 Z M 7,41 v 4 h 4 v -4 z m 46,0 v 4 h 4 V 41 Z M 7,49 v 4 h 4 v -4 z m 46,0 v 4 h 4 v -4 z"
       id="path1419" /><path
       style="opacity:0.1;fill:#ffffff"
       d="M 7,9 C 4.784,9 3,10.784 3,13 v 1 c 0,-2.216 1.784,-4 4,-4 h 50 c 2.216,0 4,1.784 4,4 V 13 C 61,10.784 59.216,9 57,9 Z"
       id="path1421" /></g></svg>
