<?xml version="1.0" encoding="UTF-8" standalone="no"?>
<svg
   width="199.17569"
   height="199.17569"
   viewBox="0 0 149.38177 149.38177"
   version="1.1"
   id="svg20"
   sodipodi:docname="office.svg"
   xml:space="preserve"
   inkscape:version="1.2.2 (b0a8486541, 2022-12-01)"
   xmlns:inkscape="http://www.inkscape.org/namespaces/inkscape"
   xmlns:sodipodi="http://sodipodi.sourceforge.net/DTD/sodipodi-0.dtd"
   xmlns="http://www.w3.org/2000/svg"
   xmlns:svg="http://www.w3.org/2000/svg"><defs
     id="defs24" /><sodipodi:namedview
     id="namedview22"
     pagecolor="#ffffff"
     bordercolor="#000000"
     borderopacity="0.25"
     inkscape:showpageshadow="2"
     inkscape:pageopacity="0.0"
     inkscape:pagecheckerboard="0"
     inkscape:deskcolor="#d1d1d1"
     showgrid="false"
     inkscape:zoom="1.6158494"
     inkscape:cx="58.483171"
     inkscape:cy="81.381344"
     inkscape:window-width="1360"
     inkscape:window-height="694"
     inkscape:window-x="0"
     inkscape:window-y="0"
     inkscape:window-maximized="1"
     inkscape:current-layer="svg20" /><g
     id="g449"
     transform="matrix(10.654762,0,0,8.3906252,-10.613095,7.5000001)">
	<path
   d="M 1.7,8.065 V 15.16 C 1.7,15.624 2.076,16 2.54,16 h 10.92 c 0.464,0 0.84,-0.376 0.84,-0.84 v -1.2 c -0.7,0.127 -1.42,0.197 -2.157,0.197 -4.478,0 -8.381,-2.456 -10.443,-6.092 z"
   id="path429" />
	<path
   fill="#464646"
   d="m 12.143,8.157 c -3.314,0 -6,-2.686 -6,-6 C 6.143,1.396 6.291,0.67 6.549,0 H 2.54 C 2.076,0 1.7,0.376 1.7,0.84 v 7.225 c 2.062,3.636 5.965,6.092 10.443,6.092 0.737,0 1.457,-0.07 2.157,-0.197 V 7.752 c -0.67,0.257 -1.395,0.405 -2.157,0.405 z"
   id="path431" />
	<path
   fill="#696969"
   d="M 13.46,0 H 9.987 L 14.3,4.314 V 0.84 C 14.3,0.376 13.924,0 13.46,0 Z"
   id="path433" />
	<path
   fill="#696969"
   d="m 12.143,8.157 c 0.761,0 1.486,-0.148 2.157,-0.406 V 5.445 L 8.855,0 H 6.549 C 6.291,0.67 6.143,1.396 6.143,2.157 c 0,3.313 2.687,6 6,6 z"
   id="path435" />
	<path
   fill="#bedc96"
   d="m 9.35,10.364 c -0.44,0 -0.801,0.361 -0.801,0.801 v 2.834 c 0,0.44 0.361,0.801 0.801,0.801 h 2.834 c 0.44,0 0.801,-0.361 0.801,-0.801 v -2.834 c 0,-0.44 -0.361,-0.801 -0.801,-0.801 0,0 -2.834,0 -2.834,0 z m 0,0.37 h 2.834 c 0.24,0 0.431,0.191 0.431,0.431 v 0.308 H 8.919 v -0.308 c 0,-0.24 0.191,-0.431 0.431,-0.431 z m -0.431,1.109 h 1.664 v 1.109 H 8.919 c 0,0 0,-1.109 0,-1.109 z m 2.033,0 h 1.664 v 1.109 h -1.664 c 0,0 0,-1.109 0,-1.109 z m -2.033,1.479 h 1.664 v 1.109 H 9.35 C 9.11,14.431 8.919,14.24 8.919,14 Z m 2.033,0 h 1.664 V 14 c 0,0.24 -0.191,0.431 -0.431,0.431 h -1.232 z"
   id="path437" />
	<path
   fill="#a0d2f5"
   d="m 4.938,8.296 c -0.053,0 -0.103,0.021 -0.141,0.058 l -1.722,1.722 -0.002,0.002 c -0.037,0.037 -0.058,0.088 -0.058,0.141 v 2.784 c 0,0.327 0.27,0.597 0.597,0.597 h 3.05 c 0.327,0 0.597,-0.27 0.597,-0.597 v -4.11 c 0,-0.327 -0.27,-0.597 -0.597,-0.597 0,0 -1.724,0 -1.724,0 z M 6.86,8.893 v 4.11 c 0,0.112 -0.087,0.199 -0.199,0.199 h -3.05 c -0.112,0 -0.199,-0.087 -0.199,-0.199 V 10.417 H 4.54 c 0.327,0 0.597,-0.27 0.597,-0.597 V 8.693 H 6.662 C 6.774,8.694 6.86,8.781 6.86,8.893 Z M 4.739,9.821 c 0,0.112 -0.087,0.199 -0.199,0.199 H 3.694 L 4.739,8.975 Z"
   id="path439" />
	<g
   id="g445">
		<path
   fill="#ff9b5a"
   d="m 12.332,4.95 h -3.13 c -0.36,0 -0.653,0.293 -0.653,0.653 V 8.51 c 0,0.36 0.293,0.653 0.653,0.653 h 3.13 c 0.36,0 0.653,-0.293 0.653,-0.653 V 5.604 c 0,-0.36 -0.293,-0.654 -0.653,-0.654 z M 9.201,5.311 h 3.13 c 0.161,0 0.293,0.131 0.293,0.293 v 0.16 H 8.908 V 5.604 C 8.909,5.442 9.04,5.311 9.201,5.311 Z m 3.131,3.493 H 9.202 C 9.041,8.804 8.909,8.673 8.909,8.511 V 6.125 h 3.716 v 2.386 c -10e-4,0.161 -0.132,0.293 -0.293,0.293 z"
   id="path441" />
		<path
   fill="#ff9b5a"
   d="m 10.62,6.546 0.826,0.826 c 0.056,0.056 0.056,0.146 0,0.201 L 10.637,8.382 C 10.548,8.471 10.395,8.409 10.394,8.283 L 10.376,6.648 c 0,-0.127 0.154,-0.192 0.244,-0.102 z"
   id="path443" />
	</g>
	<path
   fill="#be73d7"
   d="m 5.182,2.764 c -1.196,0 -2.166,0.323 -2.166,0.722 v 2.888 c 0,0.399 0.97,0.722 2.166,0.722 1.196,0 2.166,-0.323 2.166,-0.722 V 3.486 c 0,-0.399 -0.97,-0.722 -2.166,-0.722 m 0,0.361 c 0.997,0 1.805,0.162 1.805,0.361 0,0.199 -0.809,0.361 -1.805,0.361 -0.996,0 -1.806,-0.161 -1.806,-0.361 0,-0.2 0.808,-0.361 1.806,-0.361 M 3.376,3.884 c 0.4,0.202 1.078,0.324 1.805,0.324 0.726,0 1.404,-0.122 1.805,-0.324 V 4.93 c 0,0.2 -0.808,0.361 -1.805,0.361 C 4.184,5.291 3.376,5.13 3.376,4.93 Z m 0,1.444 c 0.4,0.202 1.078,0.324 1.805,0.324 0.726,0 1.404,-0.122 1.805,-0.324 v 1.046 c 0,0.2 -0.808,0.361 -1.805,0.361 -0.997,0 -1.805,-0.161 -1.805,-0.361 z"
   id="path447" />
</g></svg>
