<?xml version="1.0" encoding="UTF-8" standalone="no"?>
<svg
   width="199.17569"
   height="199.17569"
   viewBox="0 0 149.38177 149.38177"
   version="1.1"
   id="svg20"
   sodipodi:docname="office.svg"
   xml:space="preserve"
   inkscape:version="1.2.2 (b0a8486541, 2022-12-01)"
   xmlns:inkscape="http://www.inkscape.org/namespaces/inkscape"
   xmlns:sodipodi="http://sodipodi.sourceforge.net/DTD/sodipodi-0.dtd"
   xmlns="http://www.w3.org/2000/svg"
   xmlns:svg="http://www.w3.org/2000/svg"><defs
     id="defs24" /><sodipodi:namedview
     id="namedview22"
     pagecolor="#ffffff"
     bordercolor="#000000"
     borderopacity="0.25"
     inkscape:showpageshadow="2"
     inkscape:pageopacity="0.0"
     inkscape:pagecheckerboard="0"
     inkscape:deskcolor="#d1d1d1"
     showgrid="false"
     inkscape:zoom="2.2851562"
     inkscape:cx="99.555556"
     inkscape:cy="93.42906"
     inkscape:window-width="1366"
     inkscape:window-height="706"
     inkscape:window-x="0"
     inkscape:window-y="0"
     inkscape:window-maximized="1"
     inkscape:current-layer="svg20" /><circle
     style="fill:#ececec;fill-opacity:0;stroke:#2790bf;stroke-width:8.50394;stroke-miterlimit:4;stroke-dasharray:none;stroke-opacity:1"
     id="path4485-7"
     cx="74.69088"
     cy="74.69088"
     r="70.438911" /><g
     id="g1569"
     transform="matrix(1.6797547,0,0,1.6797547,20.572345,21.175185)"><path
       d="m 22.264277,7.620729 c -0.979907,0 -1.904233,0.9272259 -1.904233,1.9085127 V 49.506051 c 0,0.927224 0.979915,1.908512 1.904233,1.908512 H 52.66361 c 0.924323,0 1.904234,-0.981288 1.904234,-1.908512 V 19.937446 L 41.73992,7.6200441 m -19.475643,0"
       style="fill:#0ca228;fill-opacity:1;fill-rule:nonzero;stroke:none;stroke-width:0.698338"
       id="path2-3" /><path
       d="m 13.456648,13.220207 c -1.018593,0 -1.979402,0.874552 -1.979402,1.800093 v 37.705794 c 0,0.874553 1.018591,1.800093 1.979402,1.800093 h 31.59931 c 0.96081,0 1.979402,-0.92554 1.979402,-1.800093 V 24.837231 L 33.701067,13.219562 m -20.244419,0"
       style="fill:#53a1f2;fill-opacity:1;fill-rule:nonzero;stroke:none;stroke-width:0.691468"
       id="path2" /><path
       d="m 36.664243,24.837877 10.371117,9.035966 v -9.035966 z m 0,0"
       style="fill:#000000;fill-opacity:0.196;fill-rule:nonzero;stroke:none;stroke-width:0.691468"
       id="path4" /><path
       d="m 33.701067,13.220207 13.32244,11.61767 H 35.743436 c -0.99859,0 -2.043109,-0.920378 -2.043109,-1.789767 m 0,-9.827903"
       style="fill:#ffffff;fill-opacity:0.392;fill-rule:nonzero;stroke:none;stroke-width:0.691468"
       id="path6" /><path
       d="m 20.366774,27.419582 h 8.889529 v 6.454261 h -8.889529 z m 0,0"
       style="fill:#f8f8f8;fill-opacity:1;fill-rule:evenodd;stroke:none;stroke-width:0.691468"
       id="path8" /><path
       d="m 30.73789,27.419582 h 7.407941 v 1.290851 H 30.73789 Z m 0,0"
       style="fill:#f8f8f8;fill-opacity:1;fill-rule:evenodd;stroke:none;stroke-width:0.691468"
       id="path10" /><path
       d="m 30.73789,30.001286 h 7.407941 v 1.290852 H 30.73789 Z m 0,0"
       style="fill:#f8f8f8;fill-opacity:1;fill-rule:evenodd;stroke:none;stroke-width:0.691468"
       id="path12" /><path
       d="m 30.73789,32.58299 h 7.407941 v 1.290853 H 30.73789 Z m 0,0"
       style="fill:#f8f8f8;fill-opacity:1;fill-rule:evenodd;stroke:none;stroke-width:0.691468"
       id="path14" /><path
       d="m 20.366774,35.164695 h 17.779057 v 1.290852 H 20.366774 Z m 0,0"
       style="fill:#f8f8f8;fill-opacity:1;fill-rule:evenodd;stroke:none;stroke-width:0.691468"
       id="path16" /><path
       d="m 20.366774,37.746399 h 17.779057 v 1.290853 H 20.366774 Z m 0,0"
       style="fill:#f8f8f8;fill-opacity:1;fill-rule:evenodd;stroke:none;stroke-width:0.691468"
       id="path18" /><path
       d="m 20.366774,40.328103 h 17.779057 v 1.290853 H 20.366774 Z m 0,0"
       style="fill:#f8f8f8;fill-opacity:1;fill-rule:evenodd;stroke:none;stroke-width:0.691468"
       id="path20" /><path
       d="m 20.366774,42.909808 h 17.779057 v 1.290853 H 20.366774 Z m 0,0"
       style="fill:#f8f8f8;fill-opacity:1;fill-rule:evenodd;stroke:none;stroke-width:0.691468"
       id="path22" /><path
       d="m 44.590568,19.93813 9.977276,9.580201 V 19.93813 Z m 0,0"
       style="fill:#000000;fill-opacity:0.196;fill-rule:nonzero;stroke:none;stroke-width:0.698338"
       id="path4-6" /><path
       d="M 41.73992,7.620729 54.556442,19.93813 H 43.704729 c -0.960668,0 -1.965522,-0.975812 -1.965522,-1.897564 m 0,-10.419837"
       style="fill:#ffffff;fill-opacity:0.392;fill-rule:nonzero;stroke:none;stroke-width:0.698338"
       id="path6-7" /></g></svg>
