<?xml version="1.0" encoding="UTF-8" standalone="no"?>
<svg
   width="199.17569"
   height="199.17569"
   viewBox="0 0 149.38177 149.38177"
   version="1.1"
   id="svg20"
   sodipodi:docname="privacy.svg"
   xml:space="preserve"
   inkscape:version="1.2.2 (b0a8486541, 2022-12-01)"
   xmlns:inkscape="http://www.inkscape.org/namespaces/inkscape"
   xmlns:sodipodi="http://sodipodi.sourceforge.net/DTD/sodipodi-0.dtd"
   xmlns="http://www.w3.org/2000/svg"
   xmlns:svg="http://www.w3.org/2000/svg"><defs
     id="defs24"><linearGradient
       id="a"
       y1="543.8"
       y2="515.8"
       x2="0"
       gradientUnits="userSpaceOnUse"
       gradientTransform="matrix(1.125,0,0,1,-51.07,0)"><stop
         stop-color="#1d1e1e"
         id="stop337" /><stop
         offset="1"
         stop-color="#44484c"
         id="stop339" /></linearGradient><linearGradient
       id="b"
       y1="525.8"
       y2="503.8"
       x2="0"
       gradientUnits="userSpaceOnUse"><stop
         stop-color="#c6cdd1"
         id="stop342" /><stop
         offset="1"
         stop-color="#e0e5e7"
         id="stop344" /></linearGradient><linearGradient
       id="c"
       y1="14"
       x1="5"
       y2="36"
       x2="27"
       gradientUnits="userSpaceOnUse"
       gradientTransform="matrix(0.71927115,0,0,0.71927115,391.47796,506.75058)"><stop
         stop-color="#383e51"
         id="stop347" /><stop
         offset="1"
         stop-color="#655c6f"
         stop-opacity="0"
         id="stop349" /></linearGradient><linearGradient
       id="d"
       y1="543.8"
       y2="515.8"
       gradientUnits="userSpaceOnUse"
       x2="0"
       gradientTransform="matrix(1.16129,0,0,1,-65.38,0)"><stop
         stop-color="#197cf1"
         id="stop352" /><stop
         offset="1"
         stop-color="#20bcfa"
         id="stop354" /></linearGradient><style
       id="current-color-scheme"
       type="text/css">
   .ColorScheme-Text { color:#cecfce; } .ColorScheme-Highlight { color:#3daee9; }
  </style><linearGradient
       id="a-3"
       gradientUnits="userSpaceOnUse"
       x1="16"
       x2="16"
       y1="30"
       y2="2"
       gradientTransform="matrix(0.60490741,0,0,0.5358913,29.83014,13.750933)"><stop
         offset="0"
         stop-color="#197cf1"
         id="stop278"
         style="stop-color:#4df119;stop-opacity:1;" /><stop
         offset="1"
         stop-color="#20bcfa"
         id="stop280"
         style="stop-color:#1ead05;stop-opacity:1;" /></linearGradient><linearGradient
       id="b-6"
       gradientUnits="userSpaceOnUse"
       x1="14"
       x2="25"
       y1="10"
       y2="21"
       gradientTransform="matrix(1.867426,0,0,1.6543645,2.1898328,5.728315)"><stop
         offset="0"
         stop-color="#292c2f"
         id="stop283" /><stop
         offset="1"
         stop-opacity="0"
         id="stop285" /></linearGradient><linearGradient
       id="c-7"
       gradientUnits="userSpaceOnUse"
       x1="14"
       x2="14"
       y1="21"
       y2="9"
       gradientTransform="matrix(1.867426,0,0,1.6543645,2.1898328,5.728315)"><stop
         offset="0"
         stop-color="#7cbaf8"
         id="stop288" /><stop
         offset="1"
         stop-color="#f4fcff"
         id="stop290" /></linearGradient></defs><sodipodi:namedview
     id="namedview22"
     pagecolor="#ffffff"
     bordercolor="#000000"
     borderopacity="0.25"
     inkscape:showpageshadow="2"
     inkscape:pageopacity="0.0"
     inkscape:pagecheckerboard="0"
     inkscape:deskcolor="#d1d1d1"
     showgrid="false"
     inkscape:zoom="0.80792475"
     inkscape:cx="-0.61886952"
     inkscape:cy="133.05695"
     inkscape:window-width="1360"
     inkscape:window-height="694"
     inkscape:window-x="0"
     inkscape:window-y="0"
     inkscape:window-maximized="1"
     inkscape:current-layer="svg20" /><style
     type="text/css"
     id="current-color-scheme-0">
        .ColorScheme-NegativeText {
            color:#da4453;
        }
    </style><g
     id="g651"
     transform="matrix(4.1263543,0,0,3.7710675,0.35092941,6.7457867)">
	<path
   opacity="0.05"
   d="M 34.25,9.898 34.248,9.778 C 34.243,9.502 34.238,9.255 34.238,9.044 34.238,6.709 32.016,5.731 30.947,5.26 30.17,4.919 29.513,4.037 29.297,3.745 29.169,3.573 29.037,3.254 28.909,2.946 28.483,1.919 27.77,0.2 25.498,0.2 H 10.502 C 8.228,0.2 7.516,1.919 7.091,2.946 6.963,3.254 6.831,3.572 6.702,3.745 6.487,4.035 5.832,4.917 5.052,5.26 3.984,5.73 1.762,6.707 1.762,9.044 c 0,0.212 -0.005,0.457 -0.01,0.733 L 1.75,9.901 c -0.033,1.818 -0.09,4.863 0.585,8.175 0.617,3.028 1.839,5.922 3.533,8.369 4.577,6.611 10.16,9.355 12.132,9.355 1.973,0 7.556,-2.744 12.132,-9.354 1.692,-2.445 2.914,-5.339 3.532,-8.369 0.675,-3.315 0.619,-6.359 0.586,-8.179"
   id="path629" />
	<path
   opacity="0.07"
   d="M 33.75,9.907 C 33.744,9.578 33.738,9.288 33.738,9.044 33.738,7.034 31.792,6.178 30.746,5.718 29.845,5.322 29.13,4.359 28.894,4.042 28.73,3.82 28.592,3.488 28.447,3.137 28.02,2.108 27.436,0.7 25.498,0.7 H 10.502 C 8.564,0.7 7.979,2.108 7.553,3.137 7.408,3.488 7.27,3.82 7.106,4.042 6.871,4.359 6.157,5.322 5.253,5.718 4.207,6.178 2.262,7.034 2.262,9.044 c 0,0.245 -0.006,0.535 -0.012,0.866 -0.033,1.798 -0.089,4.808 0.575,8.067 0.604,2.962 1.798,5.792 3.454,8.184 4.417,6.379 9.898,9.139 11.721,9.139 1.823,0 7.305,-2.76 11.721,-9.139 1.655,-2.391 2.849,-5.221 3.453,-8.184 0.664,-3.261 0.609,-6.271 0.576,-8.07 z"
   id="path631" />
	<path
   fill="#64a0d2"
   d="M 18,34.8 C 16.406,34.8 11.042,32.162 6.691,25.876 4.954,23.367 3.86,20.542 3.317,17.877 2.542,14.075 2.763,10.621 2.763,9.044 2.763,7.512 4.091,6.776 5.456,6.176 6.45,5.739 7.195,4.761 7.507,4.34 8.236,3.357 8.287,1.2 10.502,1.2 12.717,1.2 18,1.2 18,1.2 Z"
   id="path633" />
	<path
   fill="#2864a0"
   d="m 18,34.8 c 1.594,0 6.958,-2.638 11.309,-8.924 1.737,-2.509 2.831,-5.334 3.374,-7.999 0.775,-3.802 0.554,-7.256 0.554,-8.833 0,-1.532 -1.328,-2.268 -2.693,-2.868 C 29.549,5.739 28.805,4.761 28.492,4.34 27.763,3.357 27.712,1.2 25.497,1.2 23.282,1.2 18,1.2 18,1.2 Z"
   id="path635" />
	<g
   id="g649">
		<path
   fill="#ffc837"
   d="M 15.539,27.671 H 18 V 13.534 h -4.813 c -1.405,0 -2.544,1.139 -2.544,2.544 v 6.697 c 0,2.703 2.192,4.896 4.896,4.896 z"
   id="path637" />
		<path
   fill="#ffa50f"
   d="M 20.461,27.671 H 18 V 13.534 h 4.813 c 1.405,0 2.544,1.139 2.544,2.544 v 6.697 c 0,2.703 -2.192,4.896 -4.896,4.896 z"
   id="path639" />
		<path
   fill="#fafafb"
   d="m 18,22.766 v 0 -4.328 0 c -0.596,0 -1.08,0.484 -1.08,1.08 v 2.168 c 0,0.597 0.484,1.08 1.08,1.08 z"
   id="path641" />
		<path
   fill="#d7d7d7"
   d="m 18,22.766 v 0 -4.328 0 c 0.596,0 1.08,0.484 1.08,1.08 v 2.168 c 0,0.597 -0.484,1.08 -1.08,1.08 z"
   id="path643" />
		<path
   fill="#fafafb"
   d="m 18,5.67 c -2.604,0 -4.714,2.111 -4.714,4.714 v 3.149 h 2.357 v -3.185 c 0,-1.302 1.055,-2.357 2.357,-2.357 v 0 z"
   id="path645" />
		<path
   fill="#d7d7d7"
   d="m 18,5.67 c 2.604,0 4.714,2.111 4.714,4.714 v 3.149 H 20.357 V 10.348 C 20.357,9.046 19.302,7.991 18,7.991 v 0 z"
   id="path647" />
	</g>
</g></svg>
