<?xml version="1.0" encoding="UTF-8" standalone="no"?>
<svg
   width="199.17569"
   height="199.17569"
   viewBox="0 0 149.38177 149.38177"
   version="1.1"
   id="svg20"
   sodipodi:docname="usb.svg"
   xml:space="preserve"
   inkscape:version="1.2.2 (b0a8486541, 2022-12-01)"
   xmlns:inkscape="http://www.inkscape.org/namespaces/inkscape"
   xmlns:sodipodi="http://sodipodi.sourceforge.net/DTD/sodipodi-0.dtd"
   xmlns="http://www.w3.org/2000/svg"
   xmlns:svg="http://www.w3.org/2000/svg"><defs
     id="defs24" /><sodipodi:namedview
     id="namedview22"
     pagecolor="#ffffff"
     bordercolor="#000000"
     borderopacity="0.25"
     inkscape:showpageshadow="2"
     inkscape:pageopacity="0.0"
     inkscape:pagecheckerboard="0"
     inkscape:deskcolor="#d1d1d1"
     showgrid="false"
     inkscape:zoom="1.6158495"
     inkscape:cx="163.69099"
     inkscape:cy="107.37386"
     inkscape:window-width="1366"
     inkscape:window-height="706"
     inkscape:window-x="0"
     inkscape:window-y="0"
     inkscape:window-maximized="1"
     inkscape:current-layer="svg20" /><g
     id="g18"
     transform="matrix(2.3371527,0,0,2.3371527,18.349732,19.649407)"><path
       d="m 12.563,7.5 h 22.875 c 1.141,0 2.063,0.922 2.063,2.063 v 28.875 c 0,1.141 -0.922,2.063 -2.063,2.063 H 12.563 c -1.141,0 -2.063,-0.922 -2.063,-2.063 V 9.563 C 10.5,8.422 11.422,7.5 12.563,7.5 m 0,0"
       style="fill:#829495;fill-opacity:1;fill-rule:nonzero;stroke:none"
       id="path2" /><path
       d="m 30.01,7.5 h 4.5 v 33 h -4.5 m 0,-33"
       style="fill:#fcf5e3;fill-opacity:0.463;fill-rule:nonzero;stroke:none"
       id="path4" /><path
       d="m 24.09,11.965 c -1.453,-0.016 -2.926,0.316 -4.297,1.043 -4.395,2.328 -6.03,7.77 -3.699,12.164 1.93,3.641 5.984,5.402 9.828,4.582 l -1.676,-5.91 c -0.055,0.004 -0.102,0.031 -0.156,0.031 -1.676,0 -3.035,-1.355 -3.035,-3.03 0,-1.676 1.359,-3.035 3.035,-3.035 1.672,0 3.03,1.359 3.03,3.035 0,0.75 -0.277,1.43 -0.727,1.957 l 3.887,4.645 c 2.816,-2.719 3.629,-7.078 1.703,-10.711 -1.598,-3.02 -4.703,-4.734 -7.895,-4.77 m 0,0"
       style="fill:#063642;fill-opacity:1;fill-rule:nonzero;stroke:none"
       id="path6" /><path
       d="M 26.805,26.719 29.899,36 h 3.094 v -2.063 m -6.188,-7.219"
       style="fill:#063642;fill-opacity:1;fill-rule:nonzero;stroke:none"
       id="path8" /><path
       d="m 15.527,23.621 c 0.805,2.531 2.738,4.629 5.316,5.637 l 2.121,-5.645 c -0.309,-0.121 -0.582,-0.293 -0.848,-0.52 -0.426,-0.367 -0.734,-0.824 -0.902,-1.32 m -5.688,1.848"
       style="fill:#93a1a1;fill-opacity:0.494;fill-rule:nonzero;stroke:none"
       id="path10" /><path
       d="m 15.27,18.992 c -0.566,2.594 0.059,5.379 1.789,7.543 l 4.652,-3.828 C 21.508,22.445 21.356,22.16 21.242,21.832 21.054,21.301 21.015,20.75 21.121,20.234 m -5.852,-1.242"
       style="fill:#268bd1;fill-opacity:0.247;fill-rule:nonzero;stroke:none"
       id="path12" /><path
       d="m 32.523,17.969 c -0.824,-2.523 -2.77,-4.605 -5.359,-5.598 l -2.078,5.66 c 0.309,0.117 0.586,0.289 0.852,0.512 0.426,0.363 0.738,0.82 0.91,1.316 m 5.676,-1.891"
       style="fill:#93a1a1;fill-opacity:0.494;fill-rule:nonzero;stroke:none"
       id="path14" /><path
       d="M 32.816,22.598 C 33.363,20 32.718,17.219 30.972,15.071 l -4.629,3.859 c 0.207,0.258 0.363,0.543 0.48,0.871 0.188,0.527 0.23,1.082 0.129,1.594 m 5.863,1.203"
       style="fill:#268bd1;fill-opacity:0.192;fill-rule:nonzero;stroke:none"
       id="path16" /></g><path
     d="m 94.739812,105.67745 22.653858,-22.902579 9.70879,9.815125 -32.362648,32.714014 c -6.63805,-6.71109 -12.77955,-12.96355 -19.41758,-19.67094 l 9.70879,-9.77537"
     style="fill:#00c1fc;fill-opacity:1;stroke-width:0.924645"
     id="path253" /><circle
     style="fill:#ececec;fill-opacity:0;stroke:#2790bf;stroke-width:8.50394;stroke-miterlimit:4;stroke-dasharray:none;stroke-opacity:1"
     id="path4485-7"
     cx="74.69088"
     cy="74.69088"
     r="70.438911" /></svg>
