<?xml version="1.0" encoding="UTF-8" standalone="no"?>
<!-- Uploaded to: SVG Repo, www.svgrepo.com, Generator: SVG Repo Mixer Tools -->

<svg
   fill="#000000"
   width="800"
   height="800"
   viewBox="0 0 32 32"
   version="1.1"
   id="svg4"
   sodipodi:docname="menu.svg"
   inkscape:export-filename="menu.svg"
   inkscape:export-xdpi="96"
   inkscape:export-ydpi="96"
   xmlns:inkscape="http://www.inkscape.org/namespaces/inkscape"
   xmlns:sodipodi="http://sodipodi.sourceforge.net/DTD/sodipodi-0.dtd"
   xmlns="http://www.w3.org/2000/svg"
   xmlns:svg="http://www.w3.org/2000/svg">
  <defs
     id="defs8" />
  <sodipodi:namedview
     id="namedview6"
     pagecolor="#ffffff"
     bordercolor="#000000"
     borderopacity="0.25"
     inkscape:showpageshadow="2"
     inkscape:pageopacity="0.0"
     inkscape:pagecheckerboard="0"
     inkscape:deskcolor="#d1d1d1"
     showgrid="false" />
  <path
     d="M 0.844,6.05 C 0.588,5.794 0.463,5.469 0.463,5.075 0.463,4.681 0.588,4.356 0.844,4.1 1.1,3.844 1.425,3.719 1.819,3.719 h 28.512 c 0.394,0 0.719,0.125 0.975,0.381 0.256,0.256 0.381,0.581 0.381,0.975 0,0.394 -0.125,0.719 -0.381,0.975 -0.256,0.256 -0.581,0.381 -0.975,0.381 H 1.819 C 1.425,6.431 1.1,6.306 0.844,6.05 Z m 30.462,8.913 c 0.256,0.256 0.381,0.581 0.381,0.975 0,0.394 -0.125,0.719 -0.381,0.975 -0.256,0.256 -0.581,0.381 -0.975,0.381 H 1.819 C 1.425,17.294 1.1,17.169 0.844,16.913 0.588,16.657 0.463,16.332 0.463,15.938 c 0,-0.394 0.125,-0.719 0.381,-0.975 0.256,-0.256 0.581,-0.381 0.975,-0.381 h 28.512 c 0.394,0 0.719,0.125 0.975,0.381 z m 0,10.856 c 0.256,0.256 0.381,0.581 0.381,0.975 0,0.394 -0.125,0.719 -0.381,0.975 -0.256,0.256 -0.581,0.381 -0.975,0.381 H 1.819 C 1.425,28.15 1.1,28.025 0.844,27.769 0.588,27.513 0.463,27.188 0.463,26.794 0.463,26.4 0.588,26.075 0.844,25.819 1.1,25.563 1.425,25.438 1.819,25.438 h 28.512 c 0.394,0 0.719,0.131 0.975,0.381 z"
     id="path2"
     style="fill:#ffffff" />
</svg>
