<?xml version="1.0" encoding="UTF-8" standalone="no"?>
<svg
   width="700"
   height="150"
   viewBox="0 0 700 150"
   fill="none"
   version="1.1"
   id="svg306"
   sodipodi:docname="gh.svg"
   inkscape:version="1.2.2 (b0a8486541, 2022-12-01)"
   xmlns:inkscape="http://www.inkscape.org/namespaces/inkscape"
   xmlns:sodipodi="http://sodipodi.sourceforge.net/DTD/sodipodi-0.dtd"
   xmlns="http://www.w3.org/2000/svg"
   xmlns:svg="http://www.w3.org/2000/svg">
  <sodipodi:namedview
     id="namedview308"
     pagecolor="#ffffff"
     bordercolor="#000000"
     borderopacity="0.25"
     inkscape:showpageshadow="2"
     inkscape:pageopacity="0.0"
     inkscape:pagecheckerboard="0"
     inkscape:deskcolor="#d1d1d1"
     showgrid="false"
     inkscape:zoom="0.79645937"
     inkscape:cx="276.85028"
     inkscape:cy="119.90568"
     inkscape:window-width="1360"
     inkscape:window-height="694"
     inkscape:window-x="0"
     inkscape:window-y="0"
     inkscape:window-maximized="1"
     inkscape:current-layer="g299" />
  <g
     clip-path="url(#clip0_4_67)"
     id="g299"
     transform="scale(1.2748134,1.0828761)"
     style="fill:#666666">
    <path
       fill-rule="evenodd"
       clip-rule="evenodd"
       d="M 63.867402,0 C 28.549607,0 0,31.74 0,71.02 c 0,31.39 18.293131,57.96 43.671567,67.37 3.171172,0.71 4.330915,-1.53 4.330915,-3.41 0,-1.65 -0.108726,-7.29 -0.108726,-13.17 -17.767623,4.23 -21.464304,-8.47 -21.464304,-8.47 -2.854054,-8.23 -7.085304,-10.35 -7.085304,-10.35 -5.816835,-4.35 0.425844,-4.35 0.425844,-4.35 6.451069,0.47 9.830632,7.29 9.830632,7.29 5.70811,10.82 14.904508,7.76 18.610249,5.88 0.525508,-4.59 2.21982,-7.76 4.022858,-9.52 -14.170608,-1.65 -29.075116,-7.76 -29.075116,-35.04 0,-7.76 2.536938,-14.11 6.550735,-19.05 -0.634234,-1.76 -2.854054,-9.05 0.634235,-18.81 0,0 5.390992,-1.88 17.550171,7.29 5.209782,-1.55 10.573593,-2.35 15.964585,-2.35 5.390992,0 10.89071,0.82 15.964585,2.35 12.159179,-9.17 17.550172,-7.29 17.550172,-7.29 3.488292,9.76 1.268468,17.05 0.634234,18.81 4.122528,4.94 6.559798,11.29 6.559798,19.05 0,27.28 -14.90451,33.27 -29.183844,35.04 2.328546,2.23 4.330914,6.47 4.330914,13.17 0,9.52 -0.108725,17.17 -0.108725,19.52 0,1.88 1.159742,4.12 4.330914,3.41 C 109.31482,128.98 127.60796,102.41 127.60796,71.02 127.7348,31.74 99.08553,0 63.867402,0 Z"
       fill="#24292f"
       id="path283"
       style="fill:#ececec;stroke-width:0.951866" />
    <path
       d="m 258.29,66.66 h -30.27 c -0.78,0 -1.41,0.63 -1.41,1.41 v 14.8 c 0,0.78 0.63,1.42 1.41,1.42 h 11.81 v 18.39 c 0,0 -2.65,0.9 -9.98,0.9 -8.65,0 -20.73,-3.16 -20.73,-29.72 0,-26.56 12.58,-30.06 24.39,-30.06 10.22,0 14.63,1.8 17.43,2.67 0.88,0.27 1.69,-0.61 1.69,-1.39 l 3.38,-14.3 c 0,-0.37 -0.12,-0.81 -0.54,-1.1 -1.14,-0.81 -8.08,-4.7 -25.62,-4.7 -20.21,0 -40.93,8.6 -40.93,49.92 0,41.32 23.73,47.48 43.73,47.48 16.56,0 26.6,-7.08 26.6,-7.08 0.41,-0.23 0.46,-0.81 0.46,-1.07 V 68.08 c 0,-0.78 -0.63,-1.41 -1.41,-1.41 z"
       fill="#24292f"
       id="path285"
       style="fill:#ececec" />
    <path
       d="m 414.27,29.92 c 0,-0.79 -0.62,-1.42 -1.4,-1.42 h -17.04 c -0.78,0 -1.41,0.64 -1.41,1.42 V 62.85 H 367.86 V 29.92 c 0,-0.79 -0.63,-1.42 -1.41,-1.42 h -17.04 c -0.78,0 -1.41,0.64 -1.41,1.42 v 89.17 c 0,0.79 0.63,1.43 1.41,1.43 h 17.04 c 0.78,0 1.41,-0.64 1.41,-1.43 V 80.95 h 26.56 l -0.05,38.14 c 0,0.79 0.63,1.43 1.41,1.43 h 17.08 c 0.78,0 1.4,-0.64 1.41,-1.43 z"
       fill="#24292f"
       id="path287"
       style="fill:#ececec" />
    <path
       d="m 290.45,41.62 c 0,-6.14 -4.92,-11.1 -10.99,-11.1 -6.07,0 -10.99,4.96 -10.99,11.1 0,6.14 4.92,11.1 10.99,11.1 6.07,0 10.99,-4.97 10.99,-11.1 z"
       fill="#24292f"
       id="path289"
       style="fill:#ececec" />
    <path
       d="M 289.23,100.28 V 59.12 c 0,-0.78 -0.63,-1.42 -1.41,-1.42 h -16.99 c -0.78,0 -1.48,0.8 -1.48,1.59 v 58.98 c 0,1.73 1.08,2.25 2.48,2.25 h 15.31 c 1.68,0 2.09,-0.82 2.09,-2.28 v -17.95 z"
       fill="#24292f"
       id="path291"
       style="fill:#ececec" />
    <path
       d="m 479.04,57.83 h -16.91 c -0.78,0 -1.41,0.64 -1.41,1.43 v 43.73 c 0,0 -4.3,3.14 -10.39,3.14 -6.09,0 -7.72,-2.77 -7.72,-8.74 V 59.26 c 0,-0.79 -0.63,-1.43 -1.41,-1.43 h -17.16 c -0.77,0 -1.41,0.64 -1.41,1.43 v 41.02 c 0,17.73 9.88,22.07 23.48,22.07 11.15,0 20.15,-6.16 20.15,-6.16 0,0 0.43,3.25 0.62,3.63 0.19,0.38 0.7,0.77 1.24,0.77 l 10.92,-0.05 c 0.77,0 1.41,-0.64 1.41,-1.42 V 59.26 c 0,-0.79 -0.64,-1.43 -1.42,-1.43 z"
       fill="#24292f"
       id="path293"
       style="fill:#ececec" />
    <path
       d="m 525.26,55.83 c -9.61,0 -16.14,4.29 -16.14,4.29 v -30.2 c 0,-0.79 -0.63,-1.42 -1.41,-1.42 h -17.09 c -0.78,0 -1.41,0.64 -1.41,1.42 v 89.17 c 0,0.79 0.63,1.43 1.41,1.43 h 11.86 c 0.53,0 0.94,-0.28 1.24,-0.76 0.29,-0.48 0.72,-4.11 0.72,-4.11 0,0 6.99,6.62 20.22,6.62 15.53,0 24.44,-7.88 24.44,-35.37 0,-27.49 -14.23,-31.08 -23.84,-31.08 z m -6.67,50.24 c -5.87,-0.18 -9.84,-2.84 -9.84,-2.84 V 74.99 c 0,0 3.92,-2.41 8.74,-2.84 6.09,-0.55 11.96,1.29 11.96,15.82 0,15.32 -2.65,18.34 -10.85,18.1 z"
       fill="#24292f"
       id="path295"
       style="fill:#ececec" />
    <path
       d="m 338.21,57.69 h -12.78 c 0,0 -0.02,-16.88 -0.02,-16.89 0,-0.64 -0.33,-0.96 -1.07,-0.96 h -17.42 c -0.68,0 -1.04,0.3 -1.04,0.95 v 17.45 c 0,0 -8.73,2.11 -9.32,2.28 -0.59,0.17 -1.02,0.71 -1.02,1.36 v 10.97 c 0,0.79 0.63,1.42 1.41,1.42 h 8.93 v 26.38 c 0,19.6 13.75,21.52 23.02,21.52 4.24,0 9.31,-1.36 10.15,-1.67 0.51,-0.19 0.8,-0.71 0.8,-1.28 v -12.06 c 0.01,-0.79 -0.65,-1.42 -1.4,-1.42 -0.75,0 -2.65,0.3 -4.61,0.3 -6.28,0 -8.41,-2.92 -8.41,-6.7 0,-3.78 0,-25.07 0,-25.07 h 12.78 c 0.78,0 1.41,-0.64 1.41,-1.42 V 59.11 c 0,-0.79 -0.63,-1.42 -1.41,-1.42 z"
       fill="#24292f"
       id="path297"
       style="fill:#ececec" />
  </g>
  <defs
     id="defs304">
    <clipPath
       id="clip0_4_67">
      <rect
         width="549.09998"
         height="138.52"
         fill="#ffffff"
         id="rect301"
         x="0"
         y="0" />
    </clipPath>
  </defs>
</svg>
