<?xml version="1.0" encoding="UTF-8" standalone="no"?>
<!-- Uploaded to: SVG Repo, www.svgrepo.com, Generator: SVG Repo Mixer Tools -->

<svg
   width="699.73273"
   height="150.29601"
   viewBox="-19.5 0 258.02644 55.421651"
   version="1.1"
   preserveAspectRatio="xMidYMid"
   id="svg169"
   sodipodi:docname="kl.svg"
   inkscape:version="1.2.2 (b0a8486541, 2022-12-01)"
   xml:space="preserve"
   xmlns:inkscape="http://www.inkscape.org/namespaces/inkscape"
   xmlns:sodipodi="http://sodipodi.sourceforge.net/DTD/sodipodi-0.dtd"
   xmlns="http://www.w3.org/2000/svg"
   xmlns:svg="http://www.w3.org/2000/svg"><sodipodi:namedview
     id="namedview171"
     pagecolor="#ffffff"
     bordercolor="#000000"
     borderopacity="0.25"
     inkscape:showpageshadow="2"
     inkscape:pageopacity="0.0"
     inkscape:pagecheckerboard="0"
     inkscape:deskcolor="#d1d1d1"
     showgrid="false"
     inkscape:zoom="0.51530408"
     inkscape:cx="340.57561"
     inkscape:cy="86.356778"
     inkscape:window-width="1366"
     inkscape:window-height="706"
     inkscape:window-x="0"
     inkscape:window-y="0"
     inkscape:window-maximized="1"
     inkscape:current-layer="svg169" /><defs
     id="defs107"><filter
       x="-0.066359905"
       y="-0.24764047"
       width="1.1327198"
       height="1.4952809"
       filterUnits="objectBoundingBox"
       id="filter-1"><feOffset
         dx="0"
         dy="0"
         in="SourceAlpha"
         result="shadowOffsetOuter1"
         id="feOffset2" /><feGaussianBlur
         stdDeviation="6.5"
         in="shadowOffsetOuter1"
         result="shadowBlurOuter1"
         id="feGaussianBlur4" /></filter><linearGradient
       x1="289.77637"
       y1="138.69225"
       x2="291.19351"
       y2="96.78817"
       id="linearGradient-2"
       gradientTransform="scale(0.61576809,1.623988)"
       gradientUnits="userSpaceOnUse"><stop
         stop-color="#FFEED7"
         offset="0%"
         id="stop7" /><stop
         stop-color="#BDBFC2"
         offset="100%"
         id="stop9" /></linearGradient><linearGradient
       x1="104.50885"
       y1="5.6628647"
       x2="100.18904"
       y2="51.918793"
       id="linearGradient-3"
       gradientTransform="scale(1.1465328,0.87219488)"
       gradientUnits="userSpaceOnUse"><stop
         stop-color="#FFFFFF"
         stop-opacity="0.8"
         offset="0%"
         id="stop12" /><stop
         stop-color="#FFFFFF"
         stop-opacity="0"
         offset="100%"
         id="stop14" /></linearGradient><linearGradient
       x1="121.74679"
       y1="53.924801"
       x2="120.81263"
       y2="35.182899"
       id="linearGradient-4"
       gradientTransform="scale(0.80696645,1.2392089)"
       gradientUnits="userSpaceOnUse"><stop
         stop-color="#FFEED7"
         offset="0%"
         id="stop17" /><stop
         stop-color="#BDBFC2"
         offset="100%"
         id="stop19" /></linearGradient><linearGradient
       x1="148.08321"
       y1="59.380508"
       x2="148.08276"
       y2="37.695564"
       id="linearGradient-5"
       gradientTransform="scale(0.88070839,1.1354496)"
       gradientUnits="userSpaceOnUse"><stop
         stop-color="#FFEED7"
         offset="0%"
         id="stop22" /><stop
         stop-color="#BDBFC2"
         offset="100%"
         id="stop24" /></linearGradient><linearGradient
       x1="155.58861"
       y1="41.362473"
       x2="154.90092"
       y2="49.220295"
       id="linearGradient-6"
       gradientTransform="scale(0.825109,1.2119611)"
       gradientUnits="userSpaceOnUse"><stop
         stop-color="#FFFFFF"
         stop-opacity="0.65"
         offset="0%"
         id="stop27" /><stop
         stop-color="#FFFFFF"
         stop-opacity="0"
         offset="100%"
         id="stop29" /></linearGradient><linearGradient
       x1="123.9845"
       y1="40.584888"
       x2="124.62241"
       y2="46.677853"
       id="linearGradient-7"
       gradientTransform="scale(0.78277271,1.27751)"
       gradientUnits="userSpaceOnUse"><stop
         stop-color="#FFFFFF"
         stop-opacity="0.65"
         offset="0%"
         id="stop32" /><stop
         stop-color="#FFFFFF"
         stop-opacity="0"
         offset="100%"
         id="stop34" /></linearGradient><linearGradient
       x1="148.01524"
       y1="182.55482"
       x2="148.01524"
       y2="114.0479"
       id="linearGradient-8"
       gradientTransform="scale(0.81292571,1.2301247)"
       gradientUnits="userSpaceOnUse"><stop
         stop-color="#FFEED7"
         offset="0%"
         id="stop37" /><stop
         stop-color="#BDBFC2"
         offset="100%"
         id="stop39" /></linearGradient><linearGradient
       x1="108.99021"
       y1="156.39291"
       x2="101.37504"
       y2="102.29666"
       id="linearGradient-9"
       gradientTransform="scale(0.6927423,1.4435382)"
       gradientUnits="userSpaceOnUse"><stop
         stop-color="#FFEED7"
         offset="0%"
         id="stop42" /><stop
         stop-color="#BDBFC2"
         offset="100%"
         id="stop44" /></linearGradient><linearGradient
       x1="104.4003"
       y1="144.85883"
       x2="104.69366"
       y2="204.60101"
       id="linearGradient-10"
       gradientTransform="scale(1.1078988,0.90260955)"
       gradientUnits="userSpaceOnUse"><stop
         stop-color="#FFFFFF"
         stop-opacity="0.8"
         offset="0%"
         id="stop47" /><stop
         stop-color="#FFFFFF"
         stop-opacity="0"
         offset="100%"
         id="stop49" /></linearGradient><linearGradient
       x1="102.8446"
       y1="110.18868"
       x2="103.19609"
       y2="134.55942"
       id="linearGradient-11"
       gradientTransform="scale(1.136719,0.87972488)"
       gradientUnits="userSpaceOnUse"><stop
         stop-color="#FFFFFF"
         stop-opacity="0.65"
         offset="0%"
         id="stop52" /><stop
         stop-color="#FFFFFF"
         stop-opacity="0"
         offset="100%"
         id="stop54" /></linearGradient><linearGradient
       x1="103.1627"
       y1="63.007332"
       x2="103.1627"
       y2="108.0084"
       id="linearGradient-12"
       gradientTransform="scale(0.57191183,1.7485213)"
       gradientUnits="userSpaceOnUse"><stop
         stop-color="#FFFFFF"
         stop-opacity="0.65"
         offset="0%"
         id="stop57" /><stop
         stop-color="#FFFFFF"
         stop-opacity="0"
         offset="100%"
         id="stop59" /></linearGradient><linearGradient
       x1="330.86072"
       y1="58.717892"
       x2="330.85519"
       y2="99.45192"
       id="linearGradient-13"
       gradientTransform="scale(0.5729452,1.7453676)"
       gradientUnits="userSpaceOnUse"><stop
         stop-color="#FFFFFF"
         stop-opacity="0.65"
         offset="0%"
         id="stop62" /><stop
         stop-color="#FFFFFF"
         stop-opacity="0"
         offset="100%"
         id="stop64" /></linearGradient><linearGradient
       x1="54.491844"
       y1="225.12328"
       x2="41.523434"
       y2="269.05215"
       id="linearGradient-14"
       gradientTransform="scale(1.0116266,0.98850707)"
       gradientUnits="userSpaceOnUse"><stop
         stop-color="#FFA63F"
         offset="0%"
         id="stop67" /><stop
         stop-color="#FFFF00"
         offset="100%"
         id="stop69" /></linearGradient><linearGradient
       x1="181.20529"
       y1="222.52386"
       x2="179.43167"
       y2="145.70831"
       id="linearGradient-15"
       gradientTransform="scale(1.0209089,0.97951932)"
       gradientUnits="userSpaceOnUse"><stop
         stop-color="#FFEED7"
         offset="0%"
         id="stop72" /><stop
         stop-color="#BDBFC2"
         offset="100%"
         id="stop74" /></linearGradient><linearGradient
       x1="180.03931"
       y1="200.21825"
       x2="211.41542"
       y2="249.23077"
       id="linearGradient-16"
       gradientTransform="scale(0.95626685,1.0457332)"
       gradientUnits="userSpaceOnUse"><stop
         stop-color="#FFA63F"
         offset="0%"
         id="stop77" /><stop
         stop-color="#FFFF00"
         offset="100%"
         id="stop79" /></linearGradient><linearGradient
       x1="224.73553"
       y1="142.26692"
       x2="218.79765"
       y2="186.40591"
       id="linearGradient-17"
       gradientTransform="scale(0.81152014,1.2322553)"
       gradientUnits="userSpaceOnUse"><stop
         stop-color="#FFFFFF"
         stop-opacity="0.65"
         offset="0%"
         id="stop82" /><stop
         stop-color="#FFFFFF"
         stop-opacity="0"
         offset="100%"
         id="stop84" /></linearGradient><linearGradient
       x1="53.035789"
       y1="186.02083"
       x2="55.101501"
       y2="244.90747"
       id="linearGradient-18"
       gradientTransform="scale(0.98730924,1.0128539)"
       gradientUnits="userSpaceOnUse"><stop
         stop-color="#FFFFFF"
         stop-opacity="0.65"
         offset="0%"
         id="stop87" /><stop
         stop-color="#FFFFFF"
         stop-opacity="0"
         offset="100%"
         id="stop89" /></linearGradient><linearGradient
       x1="172.70966"
       y1="182.05424"
       x2="175.56216"
       y2="200.62123"
       id="linearGradient-19"
       gradientTransform="scale(1.0442251,0.95764792)"
       gradientUnits="userSpaceOnUse"><stop
         stop-color="#FFFFFF"
         stop-opacity="0.65"
         offset="0%"
         id="stop92" /><stop
         stop-color="#FFFFFF"
         stop-opacity="0"
         offset="100%"
         id="stop94" /></linearGradient><linearGradient
       x1="95.570847"
       y1="77.674019"
       x2="95.991547"
       y2="119.35325"
       id="linearGradient-20"
       gradientTransform="scale(1.210709,0.82596234)"
       gradientUnits="userSpaceOnUse"><stop
         stop-color="#FFA63F"
         offset="0%"
         id="stop97" /><stop
         stop-color="#FFFF00"
         offset="100%"
         id="stop99" /></linearGradient><linearGradient
       x1="89.542679"
       y1="78.12915"
       x2="89.431244"
       y2="98.910095"
       id="linearGradient-21"
       gradientTransform="scale(1.2523967,0.79846905)"
       gradientUnits="userSpaceOnUse"><stop
         stop-color="#FFFFFF"
         stop-opacity="0.65"
         offset="0%"
         id="stop102" /><stop
         stop-color="#FFFFFF"
         stop-opacity="0"
         offset="100%"
         id="stop104" /></linearGradient></defs><g
     fill="none"
     id="g167"
     transform="matrix(0.18524392,0,0,0.19188139,-20.439644,-1.0369984)"
     style="fill:#666666"><g
       transform="translate(10)"
       id="g165"
       style="fill:#666666"><path
         fill="#444444"
         d="m 115.57217,75.881808 c 0,0.954549 -0.97376,0.954549 -0.97376,0.954549 h -0.97379 c -0.97376,0 -0.97376,-0.954549 -1.94753,-1.909099 0,0 -0.97378,-0.954549 -0.97378,-1.909091 0,-0.954549 0,-0.954549 0.97378,-0.954549 l 1.94753,0.954549 c 0.97379,0.954542 1.94755,1.909091 1.94755,2.863641 z M 98.044242,66.336327 c 0,-4.772739 -1.947529,-7.63638 -4.868846,-7.63638 0,0 0,0.954549 -0.973787,0.954549 v 1.909092 h 2.921317 c 0,1.909098 0.973787,2.863647 0.973787,4.772739 z m 34.082088,-4.772739 c 1.94755,0 2.92131,1.909098 3.8951,4.772739 h 1.94753 c -0.97377,-0.954549 -0.97377,-1.909092 -0.97377,-2.863641 0,-0.954549 0,-1.909098 -0.97376,-2.863641 -0.97379,-0.954549 -1.94755,-1.909098 -2.92132,-1.909098 0,0 -0.97378,0.954549 -1.94755,0.954549 0,0.954549 0.97377,0.954549 0.97377,1.909092 z m -29.21322,15.272769 c -0.97376,0 -0.97376,0 -0.97376,-0.954549 0,-0.95455 0,-1.909099 0.97376,-2.863641 1.94755,0 2.92132,-0.954549 2.92132,-0.954549 0.97379,0 0.97379,0.954549 0.97379,0.954549 0,0.954542 -0.97379,1.909091 -2.92132,3.81819 z M 92.201609,75.881808 c -3.895088,-1.909099 -4.868875,-4.77274 -4.868875,-9.545481 0,-2.863641 0,-4.772739 1.947552,-6.681831 0.973787,-1.909098 2.921323,-2.863641 4.868875,-2.863641 1.947552,0 2.921316,0.954543 4.868868,2.863641 0.973772,2.863641 1.947561,5.727282 1.947561,8.59093 v 1.909093 h 0.97376 V 69.19997 c 0.97376,0 0.97376,-1.909094 0.97376,-5.727284 0,-2.863641 0,-5.727288 -1.94752,-8.590929 -1.947561,-2.863641 -3.895113,-4.77274 -7.790194,-4.77274 -2.921323,0 -5.842662,1.909099 -6.816426,4.77274 -1.947552,3.81819 -2.338967,6.681831 -2.338967,11.45457 0,3.818192 1.365202,7.636382 5.260283,11.454572 0.973787,-0.954542 1.947552,-0.954542 2.921323,-1.909091 z M 213.90424,210.45429 c 0.97376,0 0.97376,-0.38369 0.97376,-1.24463 0,-2.09627 -0.97376,-4.57623 -3.8951,-7.34629 -2.92132,-2.86364 -7.79017,-4.67915 -13.63284,-5.43718 -0.97376,-0.0936 -1.94753,-0.0936 -1.94753,-0.0936 -0.97378,-0.18717 -0.97378,-0.18717 -1.94755,-0.18717 -0.97377,-0.0936 -2.92132,-0.29009 -3.89511,-0.47726 2.92134,-8.88104 3.89511,-16.70459 3.89511,-23.57359 0,-9.54548 -1.94755,-16.22731 -5.84264,-21.95459 -3.8951,-5.7273 -7.79019,-8.59093 -12.65906,-9.54548 -0.97377,0.95455 -0.97377,0.95455 -0.97377,1.9091 4.86885,1.90908 9.73773,5.72728 12.65904,11.45456 2.92132,6.68184 3.89511,12.40912 3.89511,19.09096 0,5.34359 -0.97379,13.27009 -4.86887,23.38642 -3.89509,1.52539 -7.79019,5.05348 -10.71151,10.5936 0,0.86097 0,1.33823 0.97376,1.33823 0,0 0.97379,-0.86097 1.94756,-2.47994 1.94755,-1.61898 2.92131,-3.24733 4.86886,-4.86633 2.92133,-1.61897 4.86888,-2.47995 7.7902,-2.47995 4.86887,0 9.73773,0.66444 12.65907,2.0027 3.89508,1.24463 5.84264,2.57352 6.8164,4.10829 0.97377,1.43182 1.94755,2.77006 2.92132,4.00534 0,1.2353 0.97379,1.81552 0.97379,1.81552 z M 124.33614,72.063618 c -0.97377,-0.95455 -0.97377,-2.863648 -0.97377,-4.772742 0,-3.81819 0,-5.727288 1.94756,-8.590929 1.94753,-1.909092 3.89508,-2.863641 5.84263,-2.863641 2.92132,0 4.86887,1.909092 6.8164,3.81819 0.97379,2.863641 1.94756,4.772739 1.94756,7.63638 0,4.772742 -1.94756,7.636382 -5.84264,8.590932 0,0 0.97376,0.954549 1.94755,0.954549 1.94753,0 2.92132,0.954542 4.86885,1.909092 0.97379,-5.727282 1.94755,-9.545479 1.94755,-14.318214 0,-5.727288 -0.97376,-9.545478 -2.92131,-12.409119 -2.92133,-2.863649 -5.84264,-3.81819 -9.73775,-3.81819 -2.92131,0 -5.84263,0.954541 -8.76395,2.863641 -1.94755,2.863641 -2.92132,4.772739 -2.92132,7.63638 0,4.772739 0.97377,8.590929 2.92132,12.409121 0.97378,0 1.94755,0.95455 2.92132,0.95455 z m 11.68529,15.27276 c -12.65906,8.590925 -22.39681,12.409121 -30.187,12.409121 -6.816401,0 -13.632821,-2.863647 -19.47546,-7.636382 0.973764,1.909092 1.947551,3.818186 2.921316,4.772735 l 5.84264,5.727288 c 3.895103,3.81819 8.763974,5.72729 13.632834,5.72729 6.81641,0 14.60661,-3.8182 24.34435,-10.500029 l 8.76396,-5.727284 c 1.94755,-1.909098 3.89508,-3.81819 3.89508,-6.681838 0,-0.954549 0,-1.909091 -0.97376,-1.909091 -0.97377,-1.909099 -5.84264,-4.772739 -15.58038,-7.63638 -8.76396,-3.81819 -15.58039,-5.727289 -19.47547,-5.727289 -2.92132,0 -7.79019,1.909099 -14.606614,5.727289 -5.84264,3.81819 -9.737721,7.63638 -9.737721,11.45457 0,0 0.973765,0.954549 1.947529,2.863641 5.842662,4.772739 11.685295,7.636382 17.527926,7.636382 7.7902,0 17.52794,-3.818192 30.18698,-13.363671 v 1.909099 c 0.97379,0 0.97379,0.954549 0.97379,0.954549 z m 22.38724,192.790552 c 3.8951,7.17782 10.71151,10.78076 18.50169,10.78076 1.94755,0 3.89511,-0.29012 5.84266,-0.86097 1.94753,-0.38369 3.89509,-1.04812 4.86885,-1.8155 0.97379,-0.66445 1.94755,-1.33825 2.92133,-2.09626 1.94755,-0.66444 1.94755,-1.14172 2.92133,-1.61899 l 16.55416,-14.02812 c 3.89508,-3.04144 7.79019,-5.70855 12.65903,-8.02007 3.89511,-2.29276 7.7902,-3.81819 9.73775,-4.67915 2.92132,-0.76738 4.86887,-1.90909 6.81642,-3.4345 0.97377,-1.43182 1.94754,-3.24733 1.94754,-5.54013 0,-2.77005 -1.94754,-4.86631 -3.89509,-6.39172 -1.94755,-1.5254 -3.89511,-2.57352 -5.84264,-3.24732 -1.94756,-0.67379 -3.89511,-2.1992 -6.81642,-4.77275 -1.94756,-2.47994 -3.89509,-5.91444 -4.86887,-10.40644 l -0.97377,-5.53075 c -0.97376,-2.57355 -0.97376,-4.48264 -1.94755,-5.54012 0,-0.29011 0,-0.38369 -0.97376,-0.38369 -0.97378,0 -2.92133,0.86095 -3.89511,2.47995 -1.94753,1.61898 -3.89509,3.4345 -5.84264,5.34358 -0.97377,1.90911 -3.89509,3.62167 -5.84264,5.25003 -2.92133,1.61898 -5.84264,2.47995 -7.79019,2.47995 -7.7902,0 -11.68528,-2.09627 -14.60659,-6.20458 -1.94756,-3.05079 -2.92133,-6.58823 -3.89511,-10.59358 -1.94753,-1.61901 -2.92132,-2.47996 -4.86887,-2.47996 -4.86886,0 -6.81641,4.95991 -6.81641,14.98266 v 29.68456 c 0,0.86096 -0.97378,2.77005 -0.97378,5.72728 -0.97377,2.95721 -0.97377,6.31686 -0.97377,10.11634 l -1.94755,10.5936 v 0.15909 z M 17.230591,275.04536 c 9.050361,1.30079 19.475471,4.07086 31.256229,8.31018 11.780751,4.20189 18.988571,6.39173 21.613957,6.39173 6.816401,0 12.468122,-2.95723 17.136501,-8.67517 0.973765,-1.85294 0.973765,-4.02407 0.973765,-6.53209 0,-9.02141 -5.546689,-20.4292 -16.649608,-34.26077 l -6.625485,-8.68452 c -1.365195,-1.81551 -3.01678,-4.58557 -5.155266,-8.30082 -2.043015,-3.72461 -3.895088,-6.58825 -5.355768,-8.59092 -1.269716,-2.1992 -3.312731,-4.38906 -5.938096,-6.58827 -2.529908,-2.1992 -5.451224,-3.62166 -8.6685,-4.38903 -4.086022,0.76737 -6.911883,2.09626 -8.277085,3.91177 -1.365179,1.81551 -2.138471,3.81819 -2.338966,5.91445 -0.29593,2.00269 -0.878302,3.34092 -1.852073,4.00535 -0.973766,0.57086 -2.625365,1.04814 -4.868868,1.52542 -0.48688,0 -1.365181,0 -2.625365,0.0936 h -2.625372 c -5.16482,0 -8.6684928,0.57086 -10.5110272,1.5254 -2.4344376,2.77007 -3.7041613,5.91444 -3.7041613,9.25536 0,1.52541 0.3914224,4.10831 1.1647137,7.72998 0.7828377,3.52807 1.1647066,6.39173 1.1647066,8.39439 0,3.91177 -1.1647066,7.82356 -3.5991441,11.73533 -2.43443032,4.1083 -3.7041613,7.1591 -3.7041613,9.33023 0.97377928,3.7059 7.3987763,6.30752 19.1795266,7.83291 z m 32.420936,-86.77962 c 0,-6.58823 1.75661,-13.84093 5.35576,-22.43186 3.503673,-8.59093 7.007347,-14.31821 10.415556,-18.13641 -0.190934,-0.95455 -0.677827,-0.95455 -1.460658,-0.95455 l -0.973787,-0.95454 c -2.825837,2.86364 -6.234047,9.54547 -10.320077,19.09095 -4.086044,8.59093 -6.234069,16.50806 -6.234069,22.33829 0,4.29547 1.069243,8.02007 3.016802,11.25805 2.138471,3.15375 7.303297,7.72996 15.484896,13.55083 l 10.320096,6.58825 c 10.997906,9.3583 16.840546,15.84363 16.840546,19.6618 0,2.00269 -0.973765,4.00536 -3.895081,6.20455 -1.947559,2.29281 -4.572924,3.43452 -6.816427,3.43452 -0.190941,0 -0.295951,0.18716 -0.295951,0.66444 0,0.0936 0.973779,2.00268 3.016794,5.72729 4.08603,5.43718 12.849987,8.11365 24.535283,8.11365 21.42301,0 37.96761,-8.59094 50.62667,-25.77279 0,-4.77274 0,-7.72995 -0.97376,-8.97461 v -3.52809 c 0,-6.20455 0.97376,-10.88372 2.92131,-13.93453 1.94756,-3.05081 3.8951,-4.48262 6.81641,-4.48262 1.94755,0 3.8951,0.66444 5.84267,2.09627 0.97375,-7.34629 0.97375,-13.74736 0.97375,-19.47466 0,-8.68451 0,-15.84361 -1.94755,-22.52545 -0.97377,-5.72729 -2.92132,-10.50002 -4.86887,-14.31821 -1.94753,-2.86365 -3.89508,-5.72728 -5.84264,-8.59093 -1.94755,-2.86365 -2.92132,-5.72729 -4.86887,-8.59092 -0.97376,-3.8182 -1.94754,-6.68185 -1.94754,-11.45458 -2.92131,-4.77274 -4.86886,-9.54547 -7.79018,-14.31822 -1.94756,-4.77273 -3.89511,-9.545476 -5.84264,-13.363664 l -8.76398,6.681834 c -9.73773,6.68183 -17.52791,9.54547 -24.34434,9.54547 -5.84264,0 -10.711503,-0.95454 -13.632827,-4.77272 l -5.84264,-4.77275 c 0,2.86365 -0.973779,6.68183 -2.921316,10.50002 l -6.138592,11.45458 c -2.730396,6.68183 -4.181508,10.50003 -4.47746,13.36366 -0.391415,1.90909 -0.677812,3.81819 -0.878308,3.81819 l -7.303288,14.31822 c -7.885654,14.31821 -11.876221,27.57894 -11.876221,38.55624 0,2.19919 0.190941,4.48263 0.582357,6.77541 -4.381981,-2.95722 -6.520475,-7.06552 -6.520475,-12.40912 z m 69.720283,90.28898 c -12.65907,0 -22.396789,1.68451 -29.213216,5.0067 v -0.29012 c -4.868868,5.7273 -10.3201,8.68453 -17.919345,8.68453 -4.773391,0 -12.267631,-1.81551 -22.396788,-5.43718 -10.224615,-3.43451 -19.274991,-6.07354 -27.160638,-7.80483 -0.782852,-0.21524 -2.529909,-0.54279 -5.355762,-0.98263 -2.730389,-0.43049 -5.26029,-0.87032 -7.4942391,-1.31017 -2.0430151,-0.43048 -4.3819819,-1.0762 -6.9118831,-1.95588 -2.43443752,-0.75803 -4.3819817,-1.74064 -5.8426472,-2.92914 -1.3460946,-1.20722 -2.0048224,-2.55482 -2.0048224,-4.08022 0,-1.52543 0.3341371,-3.15377 0.9928649,-4.89441 0.6205423,-1.04813 1.3079092,-2.09627 1.9857369,-3.05081 0.6778205,-1.04812 1.26972378,-2.00267 1.65159258,-2.95723 0.5823569,-0.86095 0.9737721,-1.72193 1.36519462,-2.67647 0.3914152,-0.86097 0.7828377,-1.72193 0.9737721,-2.77006 0.1909345,-0.95454 0.3914225,-1.90909 0.3914225,-2.86366 0,-0.95454 -0.3914225,-3.81817 -1.1647138,-8.87166 -0.78283772,-4.95991 -1.16470662,-8.11365 -1.16470662,-9.4519 0,-4.20187 0.97377212,-7.54278 3.11225812,-9.92916 2.1384786,-2.38637 4.1910401,-3.63102 6.3295262,-3.63102 H 20.743818 c 0.878308,0 2.243488,-0.47728 4.286504,-1.61899 0.677827,-1.52541 1.269738,-2.77006 1.651599,-3.91178 0.486893,-1.14171 0.677827,-2.00268 0.878301,-2.38636 0.190942,-0.57086 0.391416,-1.14172 0.582357,-1.61899 0.39143,-0.66445 0.878309,-1.43183 1.556137,-2.1992 -0.782845,-0.95455 -1.164707,-2.1992 -1.164707,-3.7246 0,-1.04814 0,-2.00268 0.19092,-2.57354 0,-3.4345 1.6516,-8.30083 5.155274,-14.70192 l 3.408209,-6.01738 c 2.82586,-5.15644 4.964339,-8.97462 6.520475,-12.79282 1.6516,-3.81819 3.408209,-9.54547 5.355747,-17.18185 1.556136,-6.68183 5.260282,-13.36367 11.102937,-20.0455 l 7.303298,-8.59093 c 5.059813,-5.72729 8.372544,-10.50002 10.224617,-14.31822 1.852088,-3.81818 2.825861,-8.590929 2.825861,-12.409116 0,-1.909092 -0.486893,-7.63638 -1.556144,-17.181852 -0.973764,-9.545481 -1.460658,-19.090959 -1.460658,-27.681881 0,-6.681838 0.582357,-11.454579 1.852095,-16.227311 1.269716,-4.772739 3.503674,-9.545479 6.816405,-13.363669 2.921316,-3.81819 6.816419,-7.63638 12.65906,-9.545478 5.842635,-1.909092 12.659065,-2.863641 20.449255,-2.863641 2.92132,0 5.84263,0 8.76396,0.954549 2.92131,0 6.81642,0.9545419 11.68527,2.863641 3.8951,1.909099 7.79019,3.81819 10.71151,6.681831 3.8951,2.863641 6.81642,7.63638 9.73775,12.409119 1.94755,5.727289 3.89508,11.45457 4.86886,19.090959 0.97378,4.772732 0.97378,9.545471 1.94755,16.227309 0,5.727284 0.97378,9.545474 0.97378,12.409114 0.97376,2.863648 0.97376,6.681838 1.94755,11.454571 0.97377,3.818197 1.94753,7.636388 3.89508,10.500024 1.94756,3.818201 3.89511,7.636381 6.81643,11.454581 2.92132,4.77273 6.81641,9.54547 10.71151,15.27275 8.76396,9.54548 15.58038,20.0455 19.47547,30.53616 4.86886,9.54548 7.79019,21.9546 7.79019,35.21533 0,6.58826 -0.97377,12.97999 -2.92133,19.18454 1.94756,0 2.92133,0.76738 3.8951,2.09627 0.97378,1.32886 1.94755,4.20188 2.92131,8.68449 l 0.97379,7.06553 c 0.97377,2.09626 1.94754,4.10831 4.86887,5.82086 1.94753,1.72194 3.89509,3.15377 6.81641,4.29549 1.94755,0.95454 4.86887,2.29277 6.81642,4.00535 1.94753,1.90909 2.92132,3.91178 2.92132,6.00803 0,3.24733 -0.97379,5.6337 -2.92132,7.34628 -1.94755,1.90908 -3.8951,3.24732 -6.81642,4.10829 -1.94756,0.95454 -5.84264,2.86363 -11.68528,5.55884 -4.86887,2.82621 -9.73775,6.25136 -14.60661,10.30349 l -9.73773,8.12303 c -3.89511,3.7246 -7.79019,6.39173 -10.71151,8.02006 -2.92134,1.72192 -6.81643,2.57353 -10.71151,2.57353 l -6.81642,-0.76738 c -7.7902,-2.00268 -12.65906,-5.82087 -15.58039,-11.64173 -15.58038,-1.85295 -28.23942,-2.77006 -36.02961,-2.77006 z"
         id="path1593"
         style="fill:#666666;stroke-width:9.45206" /></g></g><text
     xml:space="preserve"
     style="font-size:36.3852px;font-family:Cantarell;-inkscape-font-specification:Cantarell;fill:#666666;fill-opacity:1;stroke-width:0.189504"
     x="26.625406"
     y="39.70467"
     id="text454"
     transform="scale(0.98255204,1.0177578)"><tspan
       sodipodi:role="line"
       id="tspan452"
       style="fill:#666666;fill-opacity:1;stroke-width:0.189504"
       x="26.625406"
       y="39.70467">KERNEL.ORG</tspan></text></svg>
