<?xml version="1.0" encoding="UTF-8" standalone="no"?>
<svg
   width="700"
   height="150"
   viewBox="0 0 700.00008 150"
   fill="none"
   version="1.1"
   id="svg42"
   sodipodi:docname="lf.svg"
   inkscape:version="1.2.2 (b0a8486541, 2022-12-01)"
   xmlns:inkscape="http://www.inkscape.org/namespaces/inkscape"
   xmlns:sodipodi="http://sodipodi.sourceforge.net/DTD/sodipodi-0.dtd"
   xmlns="http://www.w3.org/2000/svg"
   xmlns:svg="http://www.w3.org/2000/svg">
  <defs
     id="defs46" />
  <sodipodi:namedview
     id="namedview44"
     pagecolor="#ffffff"
     bordercolor="#000000"
     borderopacity="0.25"
     inkscape:showpageshadow="2"
     inkscape:pageopacity="0.0"
     inkscape:pagecheckerboard="0"
     inkscape:deskcolor="#d1d1d1"
     showgrid="false"
     inkscape:zoom="0.51625001"
     inkscape:cx="293.46246"
     inkscape:cy="68.765132"
     inkscape:window-width="1360"
     inkscape:window-height="694"
     inkscape:window-x="0"
     inkscape:window-y="0"
     inkscape:window-maximized="1"
     inkscape:current-layer="svg42" />
  <path
     d="m 210.12227,0.53840116 h 45.98432 V 3.2265423 h -20.1769 V 33.736859 h -5.39616 V 3.2265423 H 210.35664 V 0.53840116 Z"
     fill="white"
     id="path2"
     style="fill:#ececec;stroke-width:4.01328" />
  <path
     d="m 261.50275,0.53840116 h 5.39618 V 14.919953 H 301.3873 V 0.53840116 h 5.39617 V 33.736859 H 301.3873 V 17.608113 h -34.48837 v 16.128746 h -5.39618 z"
     fill="white"
     id="path4"
     style="fill:#ececec;stroke-width:4.01328" />
  <path
     d="m 318.74813,0.53840116 h 39.88454 V 3.2265423 H 324.1443 V 15.188783 h 32.37703 v 2.688132 H 324.1443 v 13.037404 h 34.9576 v 2.688275 h -40.35377 z"
     fill="white"
     id="path6"
     style="fill:#ececec;stroke-width:4.01328" />
  <path
     d="m 210.12227,115.99552 h 36.83464 v 2.68829 h -31.20412 v 11.96209 h 27.68445 v 2.68828 h -27.68445 v 15.85994 h -5.39615 v -33.1986 z"
     fill="white"
     id="path8"
     style="fill:#ececec;stroke-width:4.01328" />
  <path
     d="m 277.9272,115.323 c 18.06552,0 27.21519,8.1988 27.21519,17.33835 0,9.13985 -9.14967,17.33865 -27.21519,17.33865 -18.29987,0 -27.21518,-8.1988 -27.21518,-17.33865 0,-9.13955 9.14968,-17.33835 27.21518,-17.33835 z m 0,31.85446 c 15.24999,0 21.81902,-7.39232 21.81902,-14.65037 0,-7.25806 -6.56903,-14.65038 -21.81902,-14.65038 -15.24999,0 -21.81902,7.39232 -21.81902,14.65038 0,7.39231 6.56903,14.65037 21.81902,14.65037 z"
     fill="white"
     id="path10"
     style="fill:#ececec;stroke-width:4.01328" />
  <path
     d="m 313.3525,115.99552 h 5.39616 v 20.56429 c 0,7.66114 6.33468,10.61826 16.89212,10.61826 10.79233,0 17.12701,-2.95712 17.12701,-10.61826 v -20.56429 h 5.63048 v 21.23651 c 0,6.85466 -6.33464,12.63401 -22.5226,12.63401 -15.95413,0 -22.52317,-5.77935 -22.52317,-12.63401 z"
     fill="white"
     id="path12"
     style="fill:#ececec;stroke-width:4.01328" />
  <path
     d="m 369.42606,115.99552 h 6.10031 l 33.78422,28.09117 h 0.23477 v -28.09117 h 5.63054 v 33.1986 h -6.09978 l -33.78473,-28.09117 h -0.23478 v 28.09117 h -5.63099 z"
     fill="white"
     id="path14"
     style="fill:#ececec;stroke-width:4.01328" />
  <path
     d="m 426.43654,115.99552 h 19.94308 c 17.59304,0.26885 26.51158,5.64509 26.51158,16.53217 0,11.02135 -9.15175,16.39761 -26.51158,16.53217 h -19.94308 z m 5.63107,30.51063 h 11.72979 c 16.65992,0 23.92937,-3.89786 23.92937,-13.8442 0,-9.94603 -7.26945,-13.84388 -23.92937,-13.84388 h -11.72979 z"
     fill="white"
     id="path16"
     style="fill:#ececec;stroke-width:4.01328" />
  <path
     d="m 498.93611,115.99552 h 6.09773 l 22.75745,33.1986 h -5.86428 l -7.03617,-10.34942 h -26.2783 l -7.03618,10.34942 h -5.86967 z m -8.67983,20.1612 h 22.75754 l -11.2622,-16.93526 z"
     fill="white"
     id="path18"
     style="fill:#ececec;stroke-width:4.01328" />
  <path
     d="m 521.45511,115.99552 h 45.98699 v 2.68829 h -20.17535 v 30.51031 h -5.63106 v -30.51031 h -20.18058 z"
     fill="white"
     id="path20"
     style="fill:#ececec;stroke-width:4.01328" />
  <path
     d="m 573.07309,115.99552 h 5.63105 v 33.1986 h -5.63105 z"
     fill="white"
     id="path22"
     style="fill:#ececec;stroke-width:4.01328" />
  <path
     d="m 614.83417,115.323 c 18.06496,0 27.21675,8.1988 27.21675,17.33835 0,9.13985 -9.15179,17.33865 -27.21675,17.33865 -18.30363,0 -27.21687,-8.1988 -27.21687,-17.33865 0,-9.13955 9.15185,-17.33835 27.21687,-17.33835 z m 0,31.85446 c 15.24944,0 21.81898,-7.39232 21.81898,-14.65037 0,-7.25806 -6.56954,-14.65038 -21.81898,-14.65038 -15.24955,0 -21.81909,7.39232 -21.81909,14.65038 0.23359,7.39231 6.56954,14.65037 21.81909,14.65037 z"
     fill="white"
     id="path24"
     style="fill:#ececec;stroke-width:4.01328" />
  <path
     d="m 650.73089,115.99552 h 6.10293 l 33.78106,28.09117 h 0.23881 v -28.09117 h 5.62576 v 33.1986 h -6.09771 l -33.78627,-28.09117 h -0.23295 v 28.09117 h -5.63111 z"
     fill="white"
     id="path26"
     style="fill:#ececec;stroke-width:4.01328" />
  <path
     d="m 210.12227,43.547717 h 31.90774 v 44.085382 h 45.74995 v 15.188031 h -77.65769 z"
     fill="white"
     id="path28"
     style="fill:#ececec;stroke-width:4.01328" />
  <path
     d="m 308.89538,43.547717 h 31.90773 v 59.273413 h -31.90773 z"
     fill="white"
     id="path30"
     style="fill:#ececec;stroke-width:4.01328" />
  <path
     d="m 364.49916,43.547717 h 32.61136 l 30.26561,31.719892 h 0.23477 V 43.547717 h 30.26457 V 102.82113 H 426.90726 L 394.99954,70.56358 h -0.23476 v 32.39211 h -30.26503 z"
     fill="white"
     id="path32"
     style="fill:#ececec;stroke-width:4.01328" />
  <path
     d="m 575.88861,79.971954 c 0,16.532166 -15.24943,24.327576 -47.15878,24.327576 -31.90393,0 -47.39208,-7.79541 -47.39208,-24.327576 V 43.547717 h 31.90935 v 32.392118 c 0,6.048176 -0.23327,13.575062 15.48273,13.575062 15.01617,0 15.01617,-7.661149 15.01617,-13.575062 V 43.547717 h 31.90934 v 36.424237 z"
     fill="white"
     id="path34"
     style="fill:#ececec;stroke-width:4.01328" />
  <path
     d="M 626.56822,71.370062 592.54854,43.547717 h 37.53507 l 15.72138,16.128777 15.48283,-16.128777 h 35.42999 L 663.40336,71.504322 700,102.95569 H 661.52638 L 643.92796,85.213949 625.62967,102.95569 H 589.0278 Z"
     fill="white"
     id="path36"
     style="fill:#ececec;stroke-width:4.01328" />
  <path
     d="M 38.557916,119.3536 V 59.676799 H 0 V 149.19199 H 115.67387 V 119.3536 Z"
     fill="white"
     id="path38"
     style="fill:#ececec;stroke-width:3.45304" />
  <path
     d="M 192.78981,0 H 0 V 44.757593 H 38.557916 V 29.972782 H 154.23184 V 119.3536 h -19.27899 v 29.83839 h 57.83696 z"
     fill="white"
     id="path40"
     style="fill:#ececec;stroke-width:3.45304" />
</svg>
