<?xml version="1.0" encoding="UTF-8" standalone="no"?>
<svg
   version="1.1"
   width="700"
   height="150"
   viewBox="0 0 700 150"
   preserveAspectRatio="none"
   id="svg38"
   sodipodi:docname="sf.svg"
   inkscape:version="1.2.2 (b0a8486541, 2022-12-01)"
   xmlns:inkscape="http://www.inkscape.org/namespaces/inkscape"
   xmlns:sodipodi="http://sodipodi.sourceforge.net/DTD/sodipodi-0.dtd"
   xmlns="http://www.w3.org/2000/svg"
   xmlns:svg="http://www.w3.org/2000/svg">
  <defs
     id="defs42" />
  <sodipodi:namedview
     id="namedview40"
     pagecolor="#ffffff"
     bordercolor="#000000"
     borderopacity="0.25"
     inkscape:showpageshadow="2"
     inkscape:pageopacity="0.0"
     inkscape:pagecheckerboard="0"
     inkscape:deskcolor="#d1d1d1"
     showgrid="false"
     inkscape:zoom="0.67083102"
     inkscape:cx="288.4482"
     inkscape:cy="53.664782"
     inkscape:window-width="1364"
     inkscape:window-height="703"
     inkscape:window-x="0"
     inkscape:window-y="0"
     inkscape:window-maximized="0"
     inkscape:current-layer="svg38" />
  <rect
     width="700"
     height="150"
     fill="#333333"
     id="rect2"
     x="0"
     y="0"
     style="stroke-width:1.24944;fill:#666666" />
  <g
     fill="#ff6700"
     id="g8"
     style="fill:#ffffff"
     transform="matrix(0.94661616,0,0,1.2860063,15.372503,7.2475065)">
    <path
       class="st0"
       d="M 66.9,54.9 C 66.9,35.8 60.1,27.1 56.5,23.8 55.8,23.2 54.7,23.7 54.8,24.7 55.5,35.5 41.9,38.2 41.9,55.1 v 0.1 c 0,10.3 7.8,18.7 17.4,18.7 9.6,0 17.4,-8.4 17.4,-18.7 v -0.1 c 0,-4.8 -1.8,-9.4 -3.6,-12.8 -0.4,-0.7 -1.4,-0.4 -1.3,0.2 3.3,14.6 -4.9,23.6 -4.9,12.4 z"
       id="path4"
       style="fill:#ffffff" />
    <path
       class="st0"
       d="M 46.2,95.2 C 45.8,95.2 45.3,95 45,94.7 L 0.5,50.2 c -0.6,-0.6 -0.6,-1.7 0,-2.4 l 47,-47 c 0.3,-0.2 0.7,-0.4 1.1,-0.4 h 13.5 c 0.8,0 1.3,0.5 1.5,1 0.2,0.5 0.2,1.2 -0.4,1.8 L 19.1,47.4 c -0.9,0.9 -0.9,2.3 0,3.2 l 34.9,35 c 0.6,0.6 0.6,1.7 0,2.4 l -6.7,6.8 C 47,95 46.6,95.2 46.2,95.2 Z m 8.9,7.8 c -0.8,0 -1.3,-0.5 -1.5,-1 -0.2,-0.5 -0.2,-1.2 0.4,-1.8 L 98.2,56 c 0.4,-0.4 0.7,-1 0.7,-1.6 0,-0.6 -0.2,-1.2 -0.7,-1.6 l -35,-35 c -0.6,-0.6 -0.6,-1.7 0,-2.4 L 70,8.6 c 0.3,-0.3 0.7,-0.5 1.2,-0.5 0.5,0 0.8,0.3 1.1,0.6 l 44.4,44.5 c 0.3,0.3 0.5,0.7 0.5,1.2 0,0.5 -0.2,0.9 -0.5,1.2 l -47,47 c -0.3,0.3 -0.7,0.5 -1.2,0.5 H 55.1 Z"
       id="path6"
       style="fill:#ffffff" />
  </g>
  <g
     fill="#ffffff"
     id="g36"
     transform="matrix(1.0541043,0,0,1.2860063,-5.8954885,7.2475065)">
    <path
       class="st1"
       d="m 167.2,32.4 c -0.2,0.4 -0.5,0.6 -1,0.6 -0.3,0 -0.7,-0.2 -1.2,-0.7 -0.5,-0.5 -1.2,-1 -2,-1.5 -0.9,-0.6 -1.9,-1.1 -3.2,-1.5 -1.3,-0.5 -2.9,-0.7 -4.8,-0.7 -1.9,0 -3.5,0.3 -5,0.8 -1.4,0.5 -2.6,1.3 -3.6,2.2 -1,0.9 -1.7,2 -2.2,3.2 -0.5,1.2 -0.8,2.5 -0.8,3.8 0,1.8 0.4,3.2 1.1,4.4 0.7,1.1 1.7,2.1 3,2.9 1.2,0.8 2.6,1.5 4.2,2 1.6,0.6 3.2,1.1 4.8,1.6 1.6,0.5 3.2,1.1 4.8,1.8 1.6,0.6 2.9,1.5 4.2,2.4 1.3,0.9 2.2,2.2 3,3.6 0.7,1.4 1.1,3.2 1.1,5.3 0,2.2 -0.4,4.2 -1.1,6.1 -0.7,1.9 -1.8,3.6 -3.2,5 -1.4,1.4 -3.2,2.5 -5.2,3.4 -2.1,0.8 -4.4,1.2 -7,1.2 -3.4,0 -6.4,-0.6 -8.8,-1.8 -2.5,-1.2 -4.6,-2.9 -6.5,-5 l 1,-1.6 c 0.3,-0.4 0.6,-0.5 1,-0.5 0.2,0 0.5,0.1 0.8,0.4 0.3,0.3 0.8,0.7 1.2,1.1 0.5,0.4 1.1,0.9 1.8,1.4 0.7,0.5 1.5,1 2.4,1.4 0.9,0.4 1.9,0.8 3.1,1.1 1.2,0.3 2.5,0.4 4,0.4 2.1,0 3.9,-0.3 5.5,-0.9 1.6,-0.6 3,-1.5 4.1,-2.5 1.1,-1 2,-2.4 2.6,-3.8 0.6,-1.5 0.9,-3.1 0.9,-4.7 0,-1.8 -0.4,-3.3 -1.1,-4.5 -0.7,-1.2 -1.7,-2.2 -3,-3 -1.2,-0.8 -2.6,-1.5 -4.2,-2 -1.6,-0.5 -3.2,-1.1 -4.8,-1.6 -1.6,-0.5 -3.2,-1.1 -4.8,-1.7 -1.6,-0.6 -2.9,-1.4 -4.2,-2.4 -1.2,-1 -2.2,-2.2 -3,-3.7 -0.7,-1.5 -1.1,-3.3 -1.1,-5.6 0,-1.7 0.3,-3.4 1,-5 0.7,-1.6 1.6,-3 2.9,-4.3 1.3,-1.2 2.8,-2.2 4.7,-3 1.9,-0.7 4,-1.1 6.4,-1.1 2.7,0 5.1,0.4 7.3,1.3 2.1,0.9 4.1,2.2 5.9,3.9 z"
       id="path10" />
    <path
       class="st2"
       d="m 152.9,79.2 c -3.5,0 -6.6,-0.6 -9.1,-1.9 -2.5,-1.2 -4.8,-3 -6.7,-5.1 l -0.3,-0.3 1.3,-2 c 0.6,-0.7 1.1,-0.8 1.5,-0.8 0.4,0 0.8,0.2 1.2,0.6 0.3,0.3 0.8,0.7 1.3,1.1 0.5,0.4 1.1,0.9 1.7,1.4 0.7,0.5 1.4,0.9 2.3,1.3 0.9,0.4 1.9,0.8 3,1 1.1,0.3 2.4,0.4 3.9,0.4 2,0 3.8,-0.3 5.3,-0.9 1.5,-0.6 2.8,-1.4 3.9,-2.4 1,-1 1.9,-2.2 2.4,-3.6 0.6,-1.4 0.8,-2.9 0.8,-4.5 0,-1.7 -0.3,-3.1 -1,-4.2 -0.7,-1.1 -1.6,-2 -2.8,-2.8 -1.2,-0.8 -2.5,-1.4 -4,-1.9 -1.5,-0.5 -3.1,-1.1 -4.8,-1.6 -1.7,-0.5 -3.3,-1.1 -4.8,-1.7 -1.6,-0.7 -3.1,-1.5 -4.3,-2.5 -1.3,-1 -2.3,-2.4 -3.1,-3.9 -0.8,-1.6 -1.2,-3.5 -1.2,-5.8 0,-1.8 0.3,-3.6 1,-5.3 0.7,-1.7 1.7,-3.2 3,-4.5 1.3,-1.3 3,-2.3 4.9,-3.1 1.9,-0.8 4.2,-1.2 6.6,-1.2 2.8,0 5.3,0.4 7.5,1.3 2.2,0.9 4.2,2.3 6.1,4.1 l 0.3,0.3 -1.1,2.1 c -0.6,1.1 -1.7,1.4 -3.1,0.1 -0.5,-0.4 -1.1,-0.9 -2,-1.4 -0.8,-0.5 -1.9,-1 -3.1,-1.5 -1.2,-0.4 -2.7,-0.7 -4.6,-0.7 -1.8,0 -3.4,0.3 -4.8,0.8 -1.3,0.5 -2.5,1.2 -3.4,2.1 -0.9,0.9 -1.6,1.9 -2.1,3 -0.5,1.1 -0.7,2.4 -0.7,3.6 0,1.6 0.3,3 1,4 0.7,1.1 1.6,2 2.8,2.8 1.2,0.8 2.5,1.4 4,2 1.5,0.5 3.1,1.1 4.8,1.6 1.6,0.5 3.3,1.1 4.8,1.8 1.6,0.7 3.1,1.5 4.3,2.5 1.3,1 2.3,2.3 3.1,3.8 0.8,1.5 1.2,3.4 1.2,5.6 0,2.2 -0.4,4.4 -1.2,6.4 -0.8,2 -1.9,3.7 -3.4,5.2 -1.5,1.5 -3.3,2.6 -5.4,3.5 -1.8,0.7 -4.3,1.2 -7,1.2 z m -14.5,-7.5 c 1.7,1.9 3.7,3.4 6,4.5 2.4,1.2 5.3,1.8 8.6,1.8 2.5,0 4.8,-0.4 6.8,-1.2 2,-0.8 3.6,-1.9 5,-3.2 1.3,-1.3 2.4,-3 3.1,-4.8 0.7,-1.8 1.1,-3.8 1.1,-5.9 0,-2 -0.4,-3.7 -1,-5.1 -0.7,-1.3 -1.6,-2.5 -2.8,-3.4 -1.2,-0.9 -2.5,-1.7 -4,-2.4 -1.5,-0.6 -3.1,-1.2 -4.7,-1.8 -1.6,-0.5 -3.2,-1.1 -4.8,-1.6 -1.6,-0.6 -3,-1.3 -4.3,-2.1 -1.3,-0.8 -2.3,-1.9 -3.1,-3.1 -0.8,-1.2 -1.2,-2.8 -1.2,-4.7 0,-1.4 0.3,-2.8 0.8,-4.1 0.5,-1.3 1.3,-2.5 2.3,-3.4 1,-1 2.3,-1.8 3.8,-2.3 1.5,-0.6 3.3,-0.8 5.2,-0.8 1.9,0 3.6,0.2 5,0.7 1.3,0.5 2.5,1 3.3,1.6 0.9,0.6 1.6,1.1 2.1,1.6 0.6,0.5 0.8,0.5 0.8,0.5 0.1,0 0.3,0 0.4,-0.3 l 0.7,-1.3 c -1.6,-1.5 -3.4,-2.7 -5.3,-3.5 -2.1,-0.8 -4.4,-1.2 -7,-1.2 -2.3,0 -4.4,0.4 -6.2,1.1 -1.8,0.7 -3.3,1.7 -4.5,2.8 -1.2,1.2 -2.1,2.5 -2.8,4.1 -0.6,1.5 -0.9,3.1 -0.9,4.8 0,2.1 0.4,3.9 1.1,5.3 0.7,1.4 1.6,2.6 2.8,3.5 1.2,0.9 2.5,1.7 4,2.3 1.5,0.6 3.1,1.2 4.7,1.7 1.6,0.5 3.2,1 4.8,1.6 1.6,0.6 3,1.2 4.3,2.1 1.3,0.8 2.4,1.9 3.1,3.2 0.8,1.3 1.2,2.9 1.2,4.9 0,1.8 -0.3,3.4 -0.9,5 -0.6,1.6 -1.5,2.9 -2.7,4 -1.2,1.1 -2.6,2 -4.3,2.7 -1.7,0.6 -3.6,1 -5.7,1 -1.5,0 -2.9,-0.2 -4.2,-0.5 -1.2,-0.3 -2.3,-0.7 -3.2,-1.1 -0.9,-0.4 -1.8,-0.9 -2.5,-1.5 -0.7,-0.5 -1.3,-1 -1.8,-1.4 -0.5,-0.4 -0.9,-0.8 -1.2,-1.1 -0.3,-0.3 -0.5,-0.3 -0.5,-0.3 -0.1,0 -0.3,0 -0.5,0.3 z"
       id="path12" />
    <path
       class="st1"
       d="m 226.7,52 c 0,4 -0.6,7.6 -1.8,10.9 -1.2,3.3 -2.9,6.1 -5.1,8.4 -2.2,2.3 -4.8,4.1 -7.8,5.4 -3,1.3 -6.4,1.9 -10.1,1.9 -3.6,0 -7,-0.6 -10,-1.9 -3,-1.3 -5.6,-3 -7.8,-5.4 -2.2,-2.3 -3.9,-5.1 -5.1,-8.4 -1.2,-3.3 -1.8,-6.9 -1.8,-10.9 0,-4 0.6,-7.6 1.8,-10.9 1.2,-3.3 2.9,-6.1 5.1,-8.4 2.2,-2.3 4.8,-4.1 7.8,-5.4 3,-1.3 6.4,-1.9 10,-1.9 3.7,0 7.1,0.6 10.1,1.9 3,1.3 5.6,3 7.8,5.4 2.2,2.3 3.9,5.1 5.1,8.4 1.2,3.3 1.8,6.9 1.8,10.9 z m -3.9,0 c 0,-3.6 -0.5,-6.9 -1.5,-9.8 -1,-2.9 -2.4,-5.3 -4.2,-7.3 -1.8,-2 -4,-3.5 -6.6,-4.6 -2.6,-1.1 -5.4,-1.6 -8.5,-1.6 -3.1,0 -5.9,0.5 -8.5,1.6 -2.6,1.1 -4.8,2.6 -6.6,4.6 -1.8,2 -3.3,4.4 -4.3,7.3 -1,2.9 -1.5,6.1 -1.5,9.8 0,3.6 0.5,6.9 1.5,9.8 1,2.9 2.4,5.3 4.3,7.3 1.8,2 4,3.5 6.6,4.6 2.6,1.1 5.4,1.6 8.5,1.6 3.1,0 6,-0.5 8.5,-1.6 2.6,-1 4.8,-2.6 6.6,-4.6 1.8,-2 3.2,-4.4 4.2,-7.3 1,-2.9 1.5,-6.1 1.5,-9.8 z"
       id="path14" />
    <path
       class="st2"
       d="m 202,79.1 c -3.7,0 -7.2,-0.7 -10.2,-1.9 -3.1,-1.3 -5.8,-3.1 -8,-5.5 -2.2,-2.4 -4,-5.2 -5.2,-8.6 -1.2,-3.3 -1.9,-7.1 -1.9,-11.1 0,-4 0.6,-7.8 1.9,-11.1 1.2,-3.3 3,-6.2 5.2,-8.6 2.2,-2.4 4.9,-4.2 8,-5.5 3.1,-1.3 6.5,-2 10.2,-2 3.8,0 7.2,0.7 10.3,1.9 3.1,1.3 5.8,3.1 8,5.5 2.2,2.4 4,5.3 5.2,8.6 1.2,3.3 1.8,7 1.8,11.1 0,4.1 -0.6,7.8 -1.8,11.1 -1.2,3.3 -3,6.2 -5.2,8.6 -2.2,2.4 -4.9,4.2 -8,5.5 -3.1,1.4 -6.6,2 -10.3,2 z m 0,-53 c -3.5,0 -6.8,0.6 -9.8,1.9 -2.9,1.2 -5.5,3 -7.6,5.2 -2.1,2.2 -3.8,5 -4.9,8.2 -1.2,3.2 -1.8,6.8 -1.8,10.7 0,3.9 0.6,7.5 1.8,10.7 1.2,3.2 2.8,5.9 4.9,8.2 2.1,2.2 4.7,4 7.6,5.2 2.9,1.2 6.2,1.8 9.8,1.8 3.6,0 6.9,-0.6 9.8,-1.8 2.9,-1.2 5.5,-3 7.6,-5.2 2.1,-2.2 3.8,-5 4.9,-8.1 1.2,-3.2 1.8,-6.8 1.8,-10.7 0,-3.9 -0.6,-7.5 -1.8,-10.7 -1.2,-3.2 -2.8,-5.9 -4.9,-8.2 -2.1,-2.2 -4.7,-4 -7.6,-5.2 -2.9,-1.4 -6.2,-2 -9.8,-2 z"
       id="path16" />
    <path
       class="st1"
       d="m 256.4,75.3 c 2.5,0 4.7,-0.4 6.7,-1.3 2,-0.9 3.6,-2.1 5,-3.6 1.4,-1.5 2.4,-3.4 3.1,-5.4 0.7,-2.1 1.1,-4.3 1.1,-6.8 V 26.1 h 3.7 v 32.1 c 0,2.9 -0.5,5.5 -1.4,8 -0.9,2.5 -2.2,4.6 -3.9,6.5 -1.7,1.8 -3.8,3.3 -6.2,4.3 -2.4,1 -5.2,1.6 -8.2,1.6 -3,0 -5.8,-0.5 -8.2,-1.6 -2.4,-1.1 -4.5,-2.5 -6.2,-4.3 -1.7,-1.8 -3,-4 -3.9,-6.5 -0.9,-2.5 -1.4,-5.2 -1.4,-8 V 26.1 h 3.8 v 32 c 0,2.4 0.4,4.7 1.1,6.8 0.7,2.1 1.8,3.9 3.1,5.4 1.4,1.5 3,2.7 5,3.6 2,1 4.3,1.4 6.8,1.4 z"
       id="path18" />
    <path
       class="st2"
       d="m 256.4,79.2 c -3.1,0 -5.9,-0.5 -8.4,-1.6 -2.5,-1.1 -4.7,-2.6 -6.4,-4.5 -1.7,-1.9 -3.1,-4.2 -4,-6.7 -0.9,-2.5 -1.4,-5.3 -1.4,-8.2 V 25.5 h 5 v 32.7 c 0,2.3 0.4,4.5 1,6.6 0.7,2 1.7,3.8 3,5.2 1.3,1.5 2.9,2.6 4.8,3.5 1.9,0.8 4,1.3 6.4,1.3 2.4,0 4.6,-0.4 6.4,-1.2 1.9,-0.8 3.5,-2 4.8,-3.5 1.3,-1.5 2.3,-3.2 3,-5.2 0.7,-2 1,-4.2 1,-6.6 V 25.5 h 5 v 32.7 c 0,2.9 -0.5,5.7 -1.4,8.2 -0.9,2.5 -2.3,4.8 -4,6.7 -1.7,1.9 -3.9,3.4 -6.4,4.5 -2.5,1.1 -5.3,1.6 -8.4,1.6 z M 237.3,26.7 v 31.5 c 0,2.8 0.4,5.4 1.3,7.8 0.9,2.4 2.1,4.5 3.8,6.3 1.6,1.8 3.6,3.2 6,4.2 2.3,1 5,1.5 8,1.5 2.9,0 5.6,-0.5 8,-1.5 2.3,-1 4.4,-2.4 6,-4.2 1.6,-1.8 2.9,-3.9 3.8,-6.3 0.9,-2.4 1.3,-5 1.3,-7.8 V 26.7 H 273 v 31.5 c 0,2.5 -0.4,4.8 -1.1,7 -0.7,2.2 -1.8,4.1 -3.3,5.7 -1.4,1.6 -3.2,2.9 -5.2,3.8 -2,0.9 -4.4,1.4 -6.9,1.4 -2.6,0 -4.9,-0.5 -6.9,-1.4 -2,-0.9 -3.8,-2.2 -5.2,-3.8 -1.4,-1.6 -2.5,-3.5 -3.2,-5.7 -0.7,-2.1 -1.1,-4.5 -1.1,-7 V 26.7 Z"
       id="path20" />
    <path
       class="st1"
       d="m 297.5,51.7 h 3.1 c 2.3,0 4.4,-0.3 6.2,-0.8 1.8,-0.6 3.4,-1.3 4.6,-2.4 1.3,-1 2.2,-2.3 2.9,-3.7 0.7,-1.4 1,-3.1 1,-4.9 0,-3.7 -1.2,-6.4 -3.6,-8.2 -2.4,-1.8 -5.9,-2.7 -10.6,-2.7 h -9.5 v 49 h -3.7 V 26.1 h 13.2 c 6,0 10.5,1.2 13.4,3.5 3,2.3 4.4,5.7 4.4,10.2 0,2 -0.3,3.8 -1,5.4 -0.7,1.6 -1.7,3.1 -3,4.3 -1.3,1.2 -2.8,2.3 -4.6,3 -1.8,0.8 -3.9,1.3 -6.1,1.6 0.6,0.4 1.1,0.9 1.6,1.5 L 323.7,78 h -3.3 c -0.4,0 -0.7,-0.1 -1,-0.2 -0.3,-0.1 -0.6,-0.4 -0.8,-0.7 L 302,56.1 c -0.4,-0.5 -0.9,-0.9 -1.3,-1.1 -0.5,-0.2 -3.4,-0.3 -4.4,-0.3 0,-2.7 0.4,-3 1.2,-3 z"
       id="path22" />
    <path
       class="st2"
       d="m 325,78.6 h -4.5 c -0.5,0 -0.9,-0.1 -1.3,-0.3 -0.4,-0.2 -0.7,-0.5 -1,-0.9 l -16.6,-21 c -0.4,-0.5 -0.7,-0.8 -1.1,-1 -0.4,-0.1 -2.8,-0.3 -4.1,-0.3 h -0.6 v -2.6 c 0,-0.9 0.2,-1.4 1.8,-1.4 h 3.2 c 2.2,0 4.2,-0.3 6,-0.8 1.7,-0.5 3.2,-1.3 4.4,-2.3 1.2,-1 2.1,-2.1 2.7,-3.5 0.6,-1.4 0.9,-2.9 0.9,-4.6 0,-3.5 -1.1,-6 -3.4,-7.7 -2.3,-1.7 -5.7,-2.6 -10.2,-2.6 h -8.9 v 48.9 h -5 v -53 h 13.9 c 6.1,0 10.7,1.2 13.8,3.6 3.1,2.4 4.7,6 4.7,10.7 0,2.1 -0.4,4 -1.1,5.7 -0.7,1.7 -1.8,3.2 -3.1,4.5 -1.3,1.3 -3,2.3 -4.8,3.2 -1.5,0.6 -3.1,1.1 -4.9,1.4 0.2,0.2 0.4,0.4 0.6,0.7 z M 296.9,53.9 c 1.1,0 3.4,0.1 4,0.4 0.6,0.3 1.1,0.7 1.6,1.3 l 16.6,21 c 0.2,0.3 0.4,0.5 0.6,0.6 0.2,0.1 0.4,0.2 0.7,0.2 h 2 L 305.3,56 c -0.4,-0.6 -0.9,-1 -1.4,-1.3 l -1.5,-0.9 1.8,-0.2 c 2.2,-0.2 4.2,-0.7 5.9,-1.5 1.7,-0.8 3.2,-1.7 4.5,-2.9 1.2,-1.2 2.2,-2.5 2.8,-4.1 0.6,-1.6 1,-3.3 1,-5.2 0,-4.3 -1.4,-7.5 -4.2,-9.7 -2.8,-2.2 -7.2,-3.3 -13,-3.3 h -12.6 v 50.5 h 2.5 v -49 h 10.1 c 4.7,0 8.4,0.9 10.9,2.8 2.6,1.9 3.9,4.8 3.9,8.7 0,1.9 -0.4,3.6 -1,5.1 -0.7,1.5 -1.7,2.8 -3.1,3.9 -1.3,1.1 -2.9,1.9 -4.8,2.5 -1.9,0.6 -4,0.9 -6.4,0.9 h -3.1 c -0.3,0 -0.6,0 -0.7,1.6 z"
       id="path24" />
    <path
       class="st1"
       d="m 367.6,69.2 c 0.2,0 0.5,0.1 0.6,0.3 l 1.5,1.6 c -1.1,1.1 -2.2,2.2 -3.5,3.1 -1.3,0.9 -2.7,1.7 -4.2,2.3 -1.5,0.6 -3.2,1.1 -4.9,1.5 -1.8,0.4 -3.8,0.5 -5.9,0.5 -3.6,0 -6.9,-0.6 -9.9,-1.9 -3,-1.3 -5.6,-3 -7.7,-5.4 -2.1,-2.3 -3.8,-5.1 -5,-8.4 -1.2,-3.3 -1.8,-6.9 -1.8,-10.9 0,-3.9 0.6,-7.5 1.9,-10.8 1.2,-3.3 3,-6 5.2,-8.4 2.2,-2.3 4.9,-4.1 8,-5.4 3.1,-1.3 6.6,-1.9 10.3,-1.9 1.9,0 3.6,0.1 5.2,0.4 1.6,0.3 3,0.7 4.4,1.2 1.4,0.5 2.6,1.2 3.8,2 1.2,0.8 2.4,1.7 3.5,2.7 l -1.1,1.6 c -0.2,0.3 -0.5,0.4 -0.9,0.4 -0.2,0 -0.5,-0.1 -0.8,-0.4 -0.3,-0.3 -0.8,-0.6 -1.3,-1 -0.5,-0.4 -1.2,-0.8 -1.9,-1.2 -0.7,-0.5 -1.6,-0.9 -2.7,-1.2 -1,-0.4 -2.2,-0.7 -3.6,-1 -1.3,-0.3 -2.9,-0.4 -4.6,-0.4 -3.2,0 -6.1,0.5 -8.7,1.6 -2.6,1.1 -4.9,2.6 -6.8,4.7 -1.9,2 -3.4,4.5 -4.5,7.3 -1.1,2.8 -1.6,6.1 -1.6,9.7 0,3.7 0.5,6.9 1.6,9.8 1.1,2.9 2.5,5.3 4.4,7.3 1.9,2 4.1,3.5 6.6,4.6 2.5,1.1 5.3,1.6 8.2,1.6 1.9,0 3.5,-0.1 5,-0.4 1.5,-0.2 2.8,-0.6 4,-1.1 1.2,-0.5 2.4,-1.1 3.4,-1.8 1.1,-0.7 2.1,-1.5 3.1,-2.5 0.1,-0.1 0.2,-0.2 0.3,-0.2 0.1,0.2 0.3,0.1 0.4,0.1 z"
       id="path26" />
    <path
       class="st2"
       d="m 351.1,79.2 c -3.7,0 -7.1,-0.7 -10.1,-1.9 -3.1,-1.3 -5.7,-3.1 -7.9,-5.5 -2.2,-2.4 -3.9,-5.2 -5.1,-8.6 -1.2,-3.3 -1.8,-7.1 -1.8,-11.1 0,-4 0.6,-7.7 1.9,-11 1.3,-3.3 3.1,-6.2 5.3,-8.6 2.3,-2.4 5.1,-4.3 8.2,-5.6 3.2,-1.3 6.7,-2 10.6,-2 1.9,0 3.7,0.1 5.3,0.4 1.6,0.3 3.1,0.7 4.5,1.2 1.4,0.5 2.7,1.2 3.9,2 1.2,0.8 2.4,1.7 3.6,2.8 l 0.4,0.4 -1.4,2.1 c -0.2,0.3 -0.6,0.7 -1.4,0.7 -0.4,0 -0.7,-0.2 -1.2,-0.5 -0.3,-0.3 -0.8,-0.6 -1.3,-0.9 -0.5,-0.4 -1.1,-0.8 -1.9,-1.2 -0.7,-0.4 -1.6,-0.8 -2.6,-1.2 -1,-0.4 -2.2,-0.7 -3.5,-0.9 -1.3,-0.2 -2.8,-0.4 -4.5,-0.4 -3.1,0 -5.9,0.5 -8.5,1.6 -2.5,1.1 -4.8,2.6 -6.6,4.5 -1.8,1.9 -3.3,4.3 -4.3,7.1 -1,2.8 -1.6,6 -1.6,9.4 0,3.6 0.5,6.8 1.5,9.6 1,2.8 2.4,5.2 4.2,7.1 1.8,1.9 3.9,3.4 6.4,4.4 2.4,1 5.1,1.5 8,1.5 1.8,0 3.5,-0.1 4.9,-0.4 1.4,-0.2 2.7,-0.6 3.9,-1.1 1.2,-0.5 2.3,-1.1 3.3,-1.7 1,-0.7 2,-1.5 3,-2.4 0.2,-0.2 0.3,-0.2 0.5,-0.3 0.5,-0.3 1.3,-0.2 1.7,0.3 l 1.9,2 -0.4,0.4 c -1.1,1.2 -2.3,2.2 -3.6,3.2 -1.3,0.9 -2.7,1.8 -4.3,2.4 -1.5,0.7 -3.2,1.2 -5.1,1.5 -1.7,0.5 -3.7,0.7 -5.9,0.7 z m 1.1,-53.1 c -3.7,0 -7.1,0.6 -10.1,1.9 -3,1.2 -5.7,3 -7.8,5.3 -2.2,2.3 -3.9,5 -5.1,8.2 -1.2,3.2 -1.8,6.7 -1.8,10.6 0,3.9 0.6,7.5 1.8,10.7 1.2,3.2 2.8,5.9 4.9,8.2 2.1,2.2 4.6,4 7.5,5.2 2.9,1.2 6.1,1.8 9.6,1.8 2.1,0 4,-0.2 5.8,-0.5 1.7,-0.3 3.4,-0.8 4.8,-1.5 1.5,-0.6 2.8,-1.4 4,-2.3 1.1,-0.8 2.1,-1.7 3,-2.6 l -1.1,-1.2 c -0.1,-0.1 -0.2,-0.1 -0.3,0 -0.1,0 -0.2,0.1 -0.3,0.2 -1,0.9 -2.1,1.8 -3.2,2.5 -1.1,0.7 -2.3,1.4 -3.5,1.9 -1.3,0.5 -2.7,0.9 -4.1,1.1 -1.5,0.2 -3.2,0.4 -5.1,0.4 -3,0 -5.9,-0.6 -8.5,-1.6 -2.6,-1.1 -4.9,-2.7 -6.8,-4.7 -1.9,-2 -3.4,-4.6 -4.5,-7.5 -1.1,-2.9 -1.6,-6.3 -1.6,-10 0,-3.6 0.5,-6.9 1.6,-9.9 1.1,-2.9 2.6,-5.5 4.6,-7.5 2,-2.1 4.3,-3.7 7,-4.8 2.7,-1.1 5.7,-1.7 8.9,-1.7 1.7,0 3.3,0.1 4.7,0.4 1.4,0.3 2.6,0.6 3.7,1 1.1,0.4 2,0.8 2.8,1.3 0.8,0.5 1.4,0.9 1.9,1.3 0.5,0.4 1,0.7 1.3,1 0.3,0.3 0.5,0.3 0.5,0.3 0.3,0 0.4,-0.1 0.4,-0.2 l 0.8,-1.2 c -1,-0.9 -2,-1.6 -3,-2.3 -1.2,-0.8 -2.4,-1.4 -3.7,-1.9 -1.3,-0.5 -2.8,-0.9 -4.3,-1.2 -1.3,-0.5 -3,-0.7 -4.8,-0.7 z"
       id="path28" />
    <path
       class="st1"
       d="m 410.3,26.1 v 3.1 H 383 v 21 h 22.7 v 3 H 383 v 21.6 h 27.3 v 3.1 H 379.2 V 26.1 Z"
       id="path30" />
    <path
       class="st2"
       d="M 410.9,78.6 H 378.6 V 25.5 h 32.3 v 4.3 h -27.3 v 19.7 h 22.7 v 4.3 h -22.7 v 20.4 h 27.3 z m -31.1,-1.2 h 29.9 V 75.5 H 382.4 V 52.6 h 22.7 V 50.8 H 382.4 V 28.6 h 27.3 v -1.9 h -29.9 z"
       id="path32" />
    <path
       class="st1"
       d="m 456.8,25.5 v 7.9 h -23.5 v 15.7 h 19.8 V 57 h -19.8 v 21.6 h -9.9 v -53 h 33.4 z M 514.3,52 c 0,3.9 -0.6,7.5 -1.9,10.8 -1.3,3.3 -3.1,6.2 -5.5,8.6 -2.3,2.4 -5.2,4.3 -8.5,5.7 -3.3,1.4 -7,2 -11,2 -4,0 -7.7,-0.7 -11,-2 -3.3,-1.4 -6.1,-3.2 -8.5,-5.7 -2.4,-2.4 -4.2,-5.3 -5.5,-8.6 -1.3,-3.3 -1.9,-6.9 -1.9,-10.8 0,-3.9 0.6,-7.5 1.9,-10.8 1.3,-3.3 3.1,-6.2 5.5,-8.6 2.4,-2.4 5.2,-4.3 8.5,-5.7 3.3,-1.4 7,-2 11,-2 4,0 7.7,0.7 11,2.1 3.3,1.4 6.1,3.3 8.5,5.7 2.3,2.4 4.2,5.3 5.5,8.6 1.2,3.2 1.9,6.8 1.9,10.7 z m -10.1,0 c 0,-2.9 -0.4,-5.5 -1.2,-7.8 -0.8,-2.3 -1.9,-4.3 -3.3,-5.9 -1.4,-1.6 -3.2,-2.8 -5.3,-3.7 -2.1,-0.9 -4.4,-1.3 -7,-1.3 -2.6,0 -4.9,0.4 -7,1.3 -2.1,0.9 -3.8,2.1 -5.3,3.7 -1.5,1.6 -2.6,3.6 -3.4,5.9 -0.8,2.3 -1.2,4.9 -1.2,7.8 0,2.9 0.4,5.5 1.2,7.8 0.8,2.3 1.9,4.3 3.4,5.9 1.5,1.6 3.2,2.8 5.3,3.7 2.1,0.9 4.4,1.3 7,1.3 2.6,0 4.9,-0.4 7,-1.3 2.1,-0.9 3.8,-2.1 5.3,-3.7 1.4,-1.6 2.5,-3.6 3.3,-5.9 0.8,-2.3 1.2,-4.9 1.2,-7.8 z m 30.7,-1.2 h 2.3 c 1.9,0 3.5,-0.2 4.9,-0.7 1.4,-0.5 2.5,-1.1 3.4,-1.9 0.9,-0.8 1.6,-1.8 2,-2.9 0.4,-1.1 0.7,-2.4 0.7,-3.7 0,-2.7 -0.9,-4.8 -2.7,-6.2 -1.8,-1.4 -4.5,-2.2 -8.1,-2.2 H 531 v 45.4 h -9.9 v -53 h 16.2 c 3.6,0 6.7,0.4 9.3,1.1 2.6,0.7 4.7,1.8 6.3,3.1 1.6,1.3 2.9,3 3.6,4.8 0.8,1.9 1.2,3.9 1.2,6.2 0,1.8 -0.3,3.5 -0.8,5.1 -0.5,1.6 -1.3,3 -2.3,4.3 -1,1.3 -2.2,2.4 -3.7,3.4 -1.5,1 -3.1,1.8 -5,2.3 1.2,0.7 2.3,1.7 3.2,3 l 13.3,19.6 h -8.9 c -0.9,0 -1.6,-0.2 -2.2,-0.5 -0.6,-0.3 -1.1,-0.8 -1.5,-1.5 l -11.1,-17 c -0.3,-0.4 -0.9,-1.3 -1.5,-1.4 h -3.5 v -6.4 c 0.1,-0.9 1.2,-0.9 1.2,-0.9 z m 56.5,20.5 c 2.2,0 4.2,-0.2 5.8,-0.6 1.6,-0.4 3.2,-1 4.7,-1.7 V 57 h -6.6 c -0.6,0 -1.1,-0.2 -1.5,-0.5 -0.4,-0.4 -0.6,-0.8 -0.6,-1.3 v -5.6 h 17.6 v 23.8 c -1.3,1 -2.7,1.8 -4.2,2.5 -1.5,0.7 -3,1.3 -4.7,1.8 -1.7,0.5 -3.4,0.8 -5.3,1 -1.9,0.2 -3.9,0.3 -6.1,0.3 -3.9,0 -7.4,-0.7 -10.7,-2 -3.3,-1.3 -6.1,-3.2 -8.4,-5.6 -2.4,-2.4 -4.2,-5.3 -5.6,-8.6 -1.3,-3.3 -2,-7 -2,-10.9 0,-4 0.6,-7.6 1.9,-11 1.3,-3.3 3.1,-6.2 5.5,-8.6 2.4,-2.4 5.3,-4.3 8.7,-5.6 3.4,-1.3 7.2,-2 11.4,-2 4.3,0 8.1,0.6 11.2,1.9 3.2,1.3 5.8,3 8,5 l -2.9,4.5 c -0.6,0.9 -1.3,1.4 -2.2,1.4 -0.6,0 -1.2,-0.2 -1.8,-0.6 -0.8,-0.5 -1.6,-0.9 -2.4,-1.4 -0.8,-0.5 -1.7,-0.9 -2.7,-1.2 -1,-0.3 -2.1,-0.6 -3.3,-0.8 -1.2,-0.2 -2.7,-0.3 -4.3,-0.3 -2.6,0 -5,0.4 -7.1,1.3 -2.1,0.9 -3.9,2.1 -5.4,3.8 -1.5,1.6 -2.6,3.6 -3.4,5.9 -0.8,2.3 -1.2,4.9 -1.2,7.7 0,3.1 0.4,5.8 1.3,8.2 0.9,2.4 2.1,4.4 3.6,6 1.5,1.6 3.4,2.9 5.5,3.8 2.1,0.9 4.7,1.4 7.2,1.4 z M 645.7,57.2 H 629.6 V 70.6 H 653 v 7.9 h -33.4 v -53 H 653 v 7.9 H 629.5 V 49.7 H 648 v 5.8 c 0,0 -0.1,1.7 -2.3,1.7 z"
       id="path34" />
  </g>
</svg>
