<?xml version="1.0" encoding="UTF-8" standalone="no"?>
<!-- Generator: Adobe Illustrator 21.1.0, SVG Export Plug-In . SVG Version: 6.00 Build 0)  -->

<svg
   version="1.1"
   id="Layer_1"
   x="0px"
   y="0px"
   viewBox="0 0 117.15 102.7"
   xml:space="preserve"
   sodipodi:docname="sf.svg"
   width="117.15"
   height="102.7"
   inkscape:version="1.2.2 (b0a8486541, 2022-12-01)"
   xmlns:inkscape="http://www.inkscape.org/namespaces/inkscape"
   xmlns:sodipodi="http://sodipodi.sourceforge.net/DTD/sodipodi-0.dtd"
   xmlns="http://www.w3.org/2000/svg"
   xmlns:svg="http://www.w3.org/2000/svg"><defs
   id="defs75" /><sodipodi:namedview
   id="namedview73"
   pagecolor="#ffffff"
   bordercolor="#000000"
   borderopacity="0.25"
   inkscape:showpageshadow="2"
   inkscape:pageopacity="0.0"
   inkscape:pagecheckerboard="0"
   inkscape:deskcolor="#d1d1d1"
   showgrid="false"
   inkscape:zoom="0.68328389"
   inkscape:cx="176.35422"
   inkscape:cy="129.52157"
   inkscape:window-width="1366"
   inkscape:window-height="706"
   inkscape:window-x="0"
   inkscape:window-y="0"
   inkscape:window-maximized="1"
   inkscape:current-layer="Layer_1" />
<style
   type="text/css"
   id="style2">
    .st0{fill:#FF6600;}
    .st1{fill:#FFFFFF;}
    .st2{fill:#FFFFFF;}
</style>
<path
   class="st0"
   d="m 66.85,54.5 c 0,-19.1 -6.8,-27.8 -10.4,-31.1 -0.7,-0.6 -1.8,-0.1 -1.7,0.9 0.7,10.8 -12.9,13.5 -12.9,30.4 v 0 c 0,0 0,0.1 0,0.1 0,10.3 7.8,18.7 17.4,18.7 9.6,0 17.4,-8.4 17.4,-18.7 0,0 0,-0.1 0,-0.1 v 0 c 0,-4.8 -1.8,-9.4 -3.6,-12.8 -0.4,-0.7 -1.4,-0.4 -1.3,0.2 3.3,14.6 -4.9,23.6 -4.9,12.4 z"
   id="path4" />
<g
   id="g8"
   transform="translate(-0.05)">
    <path
   class="st0"
   d="m 46.2,94.8 c -0.4,0 -0.9,-0.2 -1.2,-0.5 L 0.5,49.8 c -0.6,-0.6 -0.6,-1.7 0,-2.4 l 47,-47 C 47.8,0.2 48.2,0 48.6,0 h 13.5 c 0.8,0 1.3,0.5 1.5,1 0.2,0.5 0.2,1.2 -0.4,1.8 L 19.1,47 c -0.9,0.9 -0.9,2.3 0,3.2 l 34.9,35 c 0.6,0.6 0.6,1.7 0,2.4 l -6.7,6.8 c -0.3,0.2 -0.7,0.4 -1.1,0.4 z"
   id="path6" />
</g>
<g
   id="g12"
   transform="translate(-0.05)">
    <path
   class="st0"
   d="m 55.1,102.6 c -0.8,0 -1.3,-0.5 -1.5,-1 -0.2,-0.5 -0.2,-1.2 0.4,-1.8 L 98.2,55.6 c 0.4,-0.4 0.7,-1 0.7,-1.6 0,-0.6 -0.2,-1.2 -0.7,-1.6 l -35,-35 c -0.6,-0.6 -0.6,-1.7 0,-2.4 L 70,8.2 c 0.3,-0.3 0.7,-0.5 1.2,-0.5 0.5,0 0.8,0.3 1.1,0.6 l 44.4,44.5 c 0.3,0.3 0.5,0.7 0.5,1.2 0,0.5 -0.2,0.9 -0.5,1.2 l -47,47 c -0.3,0.3 -0.7,0.5 -1.2,0.5 H 55.1 Z"
   id="path10" />
</g>

</svg>
