<?xml version="1.0" encoding="UTF-8" standalone="no"?>
<!-- Created with Inkscape (http://www.inkscape.org/) -->

<svg
   version="1.1"
   id="svg2"
   width="1007.3561"
   height="147.42345"
   viewBox="0 0 1007.3561 147.42345"
   sodipodi:docname="vendor-logo.svg"
   xml:space="preserve"
   inkscape:export-filename="mini-logotype-openbosniana.svg"
   inkscape:export-xdpi="26.780001"
   inkscape:export-ydpi="26.780001"
   inkscape:version="1.2.2 (b0a8486541, 2022-12-01)"
   xmlns:inkscape="http://www.inkscape.org/namespaces/inkscape"
   xmlns:sodipodi="http://sodipodi.sourceforge.net/DTD/sodipodi-0.dtd"
   xmlns="http://www.w3.org/2000/svg"
   xmlns:svg="http://www.w3.org/2000/svg"><defs
     id="defs6"><linearGradient
       id="linearGradient8856"
       inkscape:swatch="solid"><stop
         style="stop-color:#000000;stop-opacity:1;"
         offset="0"
         id="stop8854" /></linearGradient><linearGradient
       id="h-6"
       gradientUnits="userSpaceOnUse"
       x1="25.636999"
       x2="57.998001"
       y1="40.675999"
       y2="40.675999"
       gradientTransform="matrix(3.3400036,0,0,3.3400036,-1.0227687,4.5486979)"><stop
         offset="0"
         stop-color="#292c2f"
         id="stop9-7" /><stop
         offset="1"
         stop-color="#292c2f"
         stop-opacity="0"
         id="stop11-5" /></linearGradient><linearGradient
       x1="0.71004629"
       y1="1"
       x2="0"
       y2="1"
       id="linearGradient-1"><stop
         stop-color="#394A9F"
         offset="0%"
         id="stop5195" /><stop
         stop-color="#6176B9"
         offset="100%"
         id="stop5197" /></linearGradient></defs><sodipodi:namedview
     id="namedview4"
     pagecolor="#ffffff"
     bordercolor="#000000"
     borderopacity="0.25"
     inkscape:showpageshadow="2"
     inkscape:pageopacity="0.0"
     inkscape:pagecheckerboard="0"
     inkscape:deskcolor="#d1d1d1"
     showgrid="false"
     inkscape:zoom="2"
     inkscape:cx="143.25"
     inkscape:cy="48.25"
     inkscape:window-width="1360"
     inkscape:window-height="694"
     inkscape:window-x="0"
     inkscape:window-y="0"
     inkscape:window-maximized="1"
     inkscape:current-layer="svg2" /><style
     type="text/css"
     id="style183">
	.st0{fill:#15E0ED;}
	.st1{fill:url(#SVGID_1_);}
</style><style
     type="text/css"
     id="style183-2">
	.st0{fill:#15E0ED;}
	.st1{fill:url(#SVGID_1_);}
</style><path
     class="cls-1"
     d="m 75.402575,122.292 a 11.015733,13.877243 18.159581 0 0 2.009097,-0.42569 19.792452,24.93385 18.159581 0 0 6.741855,-3.50575 26.106846,32.888508 18.159579 0 0 5.894115,-5.72709 35.078765,44.19102 18.159582 0 0 5.767857,-8.73815 42.733215,53.833836 18.159587 0 0 4.056255,-9.326455 c 0.460036,-1.309637 0.889426,-2.631284 1.251846,-3.971307 0.17748,-0.65621 0.33093,-1.319044 0.47498,-1.982025 0.14418,-0.663321 0.26376,-1.330479 0.39264,-1.996119 a 2.6265417,3.3088271 18.159579 0 0 0.0669,-0.400426 c 0.0974,-1.068657 0.26607,-2.137617 0.30467,-3.206889 a 19.237817,24.23514 18.159579 0 0 -0.0527,-3.16446 A 16.101626,20.284275 18.159575 0 0 100.702,73.341748 22.084203,27.820918 18.159583 0 0 97.847231,68.546084 38.733296,48.794878 18.159589 0 0 92.421745,62.99196 C 91.060712,61.848805 89.6492,60.790201 88.199811,59.798391 87.330566,59.203718 86.442852,58.643254 85.560238,58.073699 83.261267,56.590232 80.97877,55.076514 78.726277,53.505838 c -1.784598,-1.244329 -3.539335,-2.539154 -5.25224,-3.906249 -1.627019,-1.298605 -3.205592,-2.671756 -4.705006,-4.1641 a 40.330857,50.807424 18.159578 0 1 -3.932671,-4.542556 24.786176,31.224772 18.159574 0 1 -3.211718,-5.779545 17.587009,22.155509 18.159578 0 1 -1.57661,-7.65848 18.967913,23.895124 18.159577 0 1 0.05666,-2.707696 c 0.05563,-0.857762 0.16807,-1.710606 0.293945,-2.566011 a 18.924966,23.841022 18.159576 0 1 0.68842,-3.181558 c 0.0094,-0.03416 -0.0041,-0.07475 -0.01064,-0.111046 a 0.51847675,0.65315928 18.159579 0 0 -0.105297,0.107026 1.7649735,2.223453 18.15958 0 0 -0.159188,0.277865 29.073457,36.625746 18.159568 0 0 -2.528094,6.26976 c -0.272628,0.857448 -0.523827,1.721086 -0.730364,2.591802 a 22.268048,28.052523 18.159579 0 0 -0.777294,4.234381 22.903268,28.85275 18.159576 0 0 1.120203,12.817579 30.385375,38.278446 18.159592 0 0 2.533422,6.14642 43.248821,54.483386 18.159586 0 0 3.622584,5.692768 62.182047,78.334792 18.159588 0 0 6.699799,7.419945 104.76268,131.97643 18.159582 0 0 9.769119,7.880373 c 1.634016,1.15402 3.297384,2.252989 4.971154,3.332565 a 1.3638411,1.7181203 18.159573 0 1 0.193105,0.177011 0.07716771,0.09721324 18.159572 0 1 0.0079,0.07505 c -0.0018,0.01182 -0.03238,0.03125 -0.0461,0.02893 -0.362782,-0.06275 -0.729268,-0.111734 -1.086487,-0.195527 -1.28549,-0.301681 -2.560269,-0.63832 -3.809727,-1.063753 A 52.14746,65.693569 18.159566 0 1 67.852368,67.473967 47.894054,60.335281 18.159581 0 1 62.424473,62.25776 36.258476,45.67719 18.159593 0 1 58.417346,56.669696 22.662335,28.549231 18.159578 0 1 56.115431,51.499476 c -0.191288,-0.617818 -0.343324,-1.258588 -0.51412,-1.888446 -0.03275,-0.120857 -0.06739,-0.2409 -0.105443,-0.358572 -0.0043,-0.01129 -0.03991,-0.0096 -0.06014,-0.0039 -0.01615,0.0047 -0.04323,0.02416 -0.04487,0.03742 -0.06536,0.534169 -0.13252,1.068355 -0.191187,1.602522 -0.0216,0.186666 -0.01137,0.372981 -0.03004,0.559764 -0.0901,0.909905 -0.116284,1.813898 -0.155982,2.719794 -0.05609,1.280276 -0.05242,2.549902 -0.0086,3.812871 a 28.193064,35.516656 18.159573 0 0 0.925299,7.380231 22.886742,28.831932 18.15958 0 0 2.289862,6.302475 24.019593,30.259058 18.159579 0 0 4.312509,5.835326 34.905002,43.972124 18.159595 0 0 4.777849,3.791342 72.809193,91.722509 18.159596 0 0 6.578831,3.607044 q 3.018062,1.455544 6.038132,2.906585 c 0.644668,0.310641 1.29106,0.617772 1.930685,0.939971 a 16.578118,20.884541 18.159585 0 1 3.781048,2.74685 12.601341,15.874736 18.159577 0 1 3.285357,5.922009 12.227099,15.403279 18.159577 0 1 0.525011,4.936888 11.466864,14.44556 18.15958 0 1 -0.326888,3.04485 16.364329,20.615221 18.159583 0 1 -1.172123,4.07286 15.837361,19.951364 18.159582 0 1 -5.285538,8.21205 15.308937,19.285673 18.159576 0 1 -5.178303,3.70918 c -0.537257,0.25312 -1.087784,0.4475 -1.633128,0.66395 a 1.1716686,1.4760277 18.159585 0 0 -0.449682,0.23928 z"
     id="path5388-2-8-5-3"
     style="clip-rule:evenodd;display:inline;mix-blend-mode:normal;fill:#e6e6e6;fill-opacity:1;fill-rule:evenodd;stroke:none;stroke-width:0.71942;stroke-linejoin:round;stroke-miterlimit:10;stroke-opacity:0;enable-background:new" /><path
     class="cls-1"
     d="m 69.875202,32.31119 a 12.196341,19.750206 2.1506475 0 0 0.593426,3.134533 13.464494,21.8038 2.1506395 0 0 0.797144,2.575283 12.961815,20.98978 2.1506425 0 0 3.22462,5.685 19.863204,32.165579 2.1506445 0 0 3.538115,3.324372 40.374982,65.381439 2.1506435 0 0 5.041982,2.964781 c 1.660251,0.804715 3.341677,1.498326 5.017342,2.222428 1.46373,0.632504 2.928243,1.262871 4.382335,1.94438 a 43.285526,70.09464 2.1506345 0 1 4.563205,2.568162 24.742848,40.067458 2.1506455 0 1 3.898209,3.280249 16.460433,26.655284 2.1506485 0 1 3.18259,4.421705 13.62828,22.069023 2.1506455 0 1 1.93559,4.692607 q 0.15484,0.519009 0.30674,1.040479 c 0.0214,0.07299 0.049,0.09153 0.0946,0.03844 a 0.09043224,0.1464419 2.1506445 0 0 0.0381,-0.07131 c 0.0248,-0.157582 0.0504,-0.315513 0.0672,-0.475183 a 12.033867,19.487103 2.1506445 0 1 2.03737,-7.87955 13.344087,21.608816 2.1506455 0 1 2.53271,-4.585942 9.7421621,15.77602 2.1506505 0 1 2.69241,-2.73319 5.4725851,8.8620582 2.1506435 0 1 2.96383,-0.732303 4.8202009,7.8056182 2.1506465 0 1 1.14953,0.511347 0.14258474,0.23089533 2.1506425 0 0 0.2014,-0.126123 2.1949118,3.5543416 2.1506445 0 0 0.16665,-1.629237 1.5069734,2.4403251 2.1506445 0 0 -0.6291,-1.773586 3.1472672,5.0965433 2.1506605 0 0 -0.85484,-0.664332 7.9500368,12.873932 2.1506505 0 0 -1.83038,-0.490295 20.271243,32.826339 2.1506475 0 0 -2.95514,0.0869 c -0.4621,0.06345 -0.92332,0.155316 -1.38515,0.229063 -0.12041,0.01914 -0.24149,0.0194 -0.36226,0.02711 a 0.26240789,0.42493157 2.1506435 0 1 -0.2046,-0.163793 4.2464046,6.8764371 2.1506445 0 1 -0.57027,-1.45378 0.87232617,1.4126059 2.1506435 0 1 -0.0611,-0.371493 0.3017846,0.48869641 2.1506435 0 1 0.25673,-0.575989 1.3134763,2.1269843 2.1506485 0 1 0.29894,-0.0166 2.6079408,4.2231822 2.1506435 0 1 0.747,0.327828 12.312063,19.9376 2.1506455 0 0 1.74364,0.990319 3.3852859,5.4819799 2.1506355 0 0 0.95096,0.183116 1.1913878,1.9292798 2.1506435 0 0 0.23708,-0.07161 0.22805688,0.3693051 2.1506435 0 0 0.13976,-0.394687 3.9986441,6.4752257 2.1506395 0 0 -0.41482,-1.486834 4.9273024,7.9790521 2.1506425 0 0 -3.23051,-3.741796 7.4956349,12.138092 2.1506495 0 0 -2.15819,-0.179446 11.989375,19.415056 2.1506435 0 0 -2.09261,0.571086 12.978102,21.016157 2.1506455 0 0 -1.46979,0.64175 c -0.79728,0.502843 -1.61276,0.91433 -2.40216,1.461366 -0.7313,0.506687 -1.4593,1.025825 -2.177858,1.577283 -0.902954,0.692946 -1.791881,1.437678 -2.681562,2.177648 -0.635409,0.528477 -1.261998,1.086329 -1.892859,1.630033 a 0.36227143,0.58664608 2.1506575 0 1 -0.346057,0.07707 17.807103,28.836022 2.1506465 0 0 -3.394046,-1.820784 c -1.679673,-0.701324 -3.36683,-1.362034 -5.046534,-2.063758 -2.240649,-0.936101 -4.459,-1.980522 -6.624858,-3.275137 a 34.972716,56.63325 2.1506475 0 1 -3.924006,-2.785353 20.121015,32.583068 2.1506425 0 1 -3.043313,-3.159581 11.382414,18.43217 2.1506455 0 1 -2.909168,-5.492299 0.45276328,0.73318462 2.1506375 0 0 -0.06411,-0.151979 c -0.01037,-0.01844 -0.03829,-0.01039 -0.07533,-0.01758 z"
     id="path5390-7-6-7"
     style="clip-rule:evenodd;display:inline;mix-blend-mode:normal;fill:#e6e6e6;fill-opacity:1;fill-rule:evenodd;stroke:none;stroke-width:0.758645;stroke-linejoin:round;stroke-miterlimit:10;stroke-opacity:0;enable-background:new" /><path
     class="cls-1"
     d="m 40.43649,82.927425 a 0.2232957,0.36812272 7.4561054 0 0 0.009,0.302306 c 0.08285,0.269427 0.162184,0.542474 0.249442,0.807539 a 31.338146,51.663713 7.4561097 0 0 2.54706,6.406709 21.150805,34.868975 7.4561044 0 0 4.428087,6.554516 16.750784,27.61515 7.4561035 0 0 4.988285,3.184515 19.532226,32.200604 7.4561048 0 0 1.95294,0.42068 c 0.645158,0.0936 1.302126,0.0327 1.951277,0.066 a 7.9818574,13.158797 7.456109 0 0 0.886091,-0.0937 c 0.180756,-0.0231 0.362123,-0.064 0.542879,-0.0856 a 17.522445,28.887301 7.4561051 0 0 1.924044,-0.44644 c 0.707574,-0.20727 1.40974,-0.483949 2.111699,-0.774928 a 0.39731646,0.65501125 7.4561076 0 1 0.12744,0.0166 0.52200452,0.86057066 7.4561063 0 1 -0.07644,0.213004 9.0375213,14.899152 7.4561031 0 1 -3.575748,4.025234 11.29766,18.625193 7.4561038 0 1 -2.671272,1.28002 c -0.478956,0.14472 -0.954082,0.19674 -1.430975,0.28975 -0.06581,0.013 0.01943,-0.0281 -0.02371,0.061 a 0.04484481,0.07393062 7.4561108 0 0 0.0038,0.0687 0.23197316,0.38242828 7.456105 0 0 0.06873,0.0921 14.24123,23.47793 7.4561023 0 0 2.940622,1.18927 12.01967,19.815489 7.4561052 0 0 2.242955,0.0619 9.6912744,15.976924 7.456108 0 0 4.763761,-2.37149 9.544705,15.73529 7.4561041 0 0 3.635225,-5.294826 10.071545,16.603832 7.4561044 0 0 1.873057,-6.27907 6.7309215,11.096519 7.4561075 0 0 0.242574,-1.908397 c 0.03271,-0.504808 0.08481,-1.010509 0.121974,-1.515691 a 0.5275555,0.86972186 7.4560989 0 0 -0.02508,-0.302677 c -0.008,-0.0407 -0.04435,-0.09639 -0.06548,-0.08928 a 2.8072959,4.6280757 7.4561038 0 0 -0.341957,0.145463 q -1.379933,0.737031 -2.775168,1.328853 c -0.864427,0.36684 -1.730021,0.716739 -2.601629,0.972893 -0.624277,0.183493 -1.248101,0.393563 -1.872777,0.55365 -0.542622,0.1391 -1.086154,0.229386 -1.629266,0.332328 -0.378539,0.0717 -0.757388,0.142186 -1.13531,0.188508 a 18.804474,31.000838 7.4561042 0 1 -1.917546,0.129917 c -0.211426,-0.0087 -0.423423,-0.01548 -0.636444,-5.33e-4 A 17.133671,28.246373 7.4561051 0 1 55.416446,92.376848 28.775365,47.438739 7.4561048 0 1 46.745871,89.123121 29.788064,49.108268 7.4560956 0 1 41.282056,83.94297 C 41.074847,83.686044 40.874832,83.415117 40.668662,83.15608 A 0.50169615,0.82709051 7.4561046 0 0 40.42983,82.94155 Z"
     id="path5392-0-2-5"
     style="clip-rule:evenodd;display:inline;mix-blend-mode:normal;fill:#e6e6e6;fill-opacity:1;fill-rule:evenodd;stroke:none;stroke-width:0.617607;stroke-linejoin:round;stroke-miterlimit:10;stroke-opacity:0;enable-background:new" /><path
     class="cls-1"
     d="m 37.748947,110.92685 a 0.43153982,0.59201222 71.285087 0 0 0.05682,0.37301 23.525216,32.273305 71.285081 0 0 2.393014,2.97941 24.076633,33.02977 71.285086 0 0 3.312737,2.75455 16.734652,22.9576 71.285085 0 0 2.058469,1.25884 c 0.74527,0.36206 1.47566,0.74093 2.239987,1.0814 a 21.402465,29.361188 71.285077 0 0 11.015617,2.44312 16.400456,22.499131 71.285085 0 0 8.342458,-0.93099 14.349374,19.685333 71.28508 0 0 6.370767,-2.55922 12.348192,16.939992 71.285073 0 0 1.892128,-1.25438 14.73625,20.216071 71.285086 0 0 4.726536,-4.57204 13.85122,19.001936 71.285086 0 0 2.520184,-4.79423 16.754238,22.984468 71.28509 0 0 0.605551,-5.68598 20.31869,27.874398 71.285081 0 0 -2.198671,-6.341649 23.212397,31.84416 71.285081 0 0 -3.584598,-4.190597 1.9188273,2.6323626 71.285082 0 0 -0.285346,-0.186447 0.110398,0.1514506 71.285093 0 0 -0.09252,-0.01169 c -0.03086,0.04159 -0.08138,0.09666 -0.07334,0.128432 0.0754,0.24704 0.160685,0.49094 0.247953,0.734045 a 23.805658,32.658032 71.285078 0 1 1.065236,5.409466 16.805668,23.055025 71.285076 0 1 -0.992419,5.86929 13.81889,18.957583 71.285087 0 1 -2.053032,3.67712 12.070804,16.559453 71.285083 0 1 -1.748358,2.0325 13.323224,18.277598 71.285081 0 1 -5.106049,3.70919 15.058799,20.658564 71.28508 0 1 -9.010511,2.95622 18.891003,25.915813 71.28508 0 1 -9.89131,-0.0595 23.376508,32.069298 71.285087 0 1 -3.797396,-0.88636 24.352942,33.408828 71.285085 0 1 -4.361242,-1.77017 27.234198,37.361511 71.285087 0 1 -3.652785,-2.16338 z"
     id="path5396-93-9-9"
     style="clip-rule:evenodd;display:inline;mix-blend-mode:normal;fill:#e6e6e6;fill-opacity:1;fill-rule:evenodd;stroke:none;stroke-width:0.896706;stroke-linejoin:round;stroke-miterlimit:10;stroke-opacity:0;enable-background:new" /><g
     id="layer3-8-6-9"
     style="fill:#f2f2f2"
     transform="matrix(5.5792404,0,0,2.5402269,-2411.8853,-870.34349)" /><path
     d="m 73.711737,147.42345 c 40.709763,0 73.711723,-33.00196 73.711723,-73.711726 C 147.42346,33.001964 114.4215,4.9384545e-7 73.711737,4.9384545e-7 33.001971,4.9384545e-7 2.970185e-6,33.001964 2.970185e-6,73.711724 2.970185e-6,114.42149 33.001971,147.42345 73.711737,147.42345 Z m 0,-6.14264 c -37.31743,0 -67.5690842,-30.25165 -67.5690842,-67.569086 0,-37.317424 30.2516542,-67.5690795 67.5690842,-67.5690795 37.317433,0 67.569083,30.2516555 67.569083,67.5690795 0,37.317436 -30.25165,67.569086 -67.569083,67.569086 z"
     fill="#de5833"
     id="path5204"
     style="fill:#e6e6e6;fill-opacity:1;stroke-width:0.578403" /><g
     id="svgGroup"
     stroke-linecap="round"
     fill-rule="evenodd"
     font-size="12px"
     stroke="#00a6ff00"
     stroke-width="0.25mm"
     fill="#00bfff"
     style="fill:#333333;stroke-width:0.25mm"
     transform="matrix(0.57840339,0,0,0.57840339,-29.249472,285.84797)"><g
       id="svgGroup-3"
       stroke-linecap="round"
       fill-rule="nonzero"
       font-size="12px"
       stroke="#00a6ff00"
       stroke-width="0.25mm"
       fill="#00bfff"
       style="fill:#333333;stroke-width:0.25mm"
       transform="matrix(1,0,0,1.6121776,335.80256,-419.0917)"><path
         d="M 57.715191,73.7 H 38.440509 A 38.662616,35.504 0 0 1 27.1915,72.228 35.278113,32.396 0 0 1 23.14055,70.85 Q 16.116725,68 10.944141,63.05 A 38.103977,34.991 0 0 1 3.2560475,52.143 43.599984,40.038 0 0 1 2.8857994,51.3 Q 4.190404e-5,44.5 4.190404e-5,36.6 A 45.657039,41.927 0 0 1 1.0182242,27.594 38.424133,35.285 0 0 1 2.8857994,22 36.148196,33.195 0 0 1 8.6453356,13.037 33.525968,30.787 0 0 1 10.944141,10.75 Q 16.116725,6.1 23.14055,3.55 A 40.134897,36.856 0 0 1 35.381606,1.09 47.344935,43.477 0 0 1 38.440509,1 h 19.274682 a 45.541608,41.821 0 0 1 9.698323,0.917 38.525406,35.378 0 0 1 6.037222,1.683 36.191754,33.235 0 0 1 10.603253,5.883 34.300222,31.498 0 0 1 1.647604,1.417 35.588468,32.681 0 0 1 7.725119,10.741 40.739272,37.411 0 0 1 0.224326,0.509 40.355957,37.059 0 0 1 2.632029,10.349 A 48.966404,44.966 0 0 1 96.482348,36.6 45.218186,41.524 0 0 1 94.991554,47.388 40.802432,37.469 0 0 1 93.59659,51.3 Q 90.710833,58.1 85.538249,63.05 80.365664,68 73.287391,70.85 A 37.267652,34.223 0 0 1 60.88299,73.598 44.419974,40.791 0 0 1 57.715191,73.7 Z M 38.440509,61 H 57.715191 A 26.433538,24.274 0 0 0 64.486376,60.225 23.378991,21.469 0 0 0 67.73367,59.2 q 4.573653,-1.8 7.894996,-4.95 a 23.867937,21.918 0 0 0 4.750066,-6.602 27.696738,25.434 0 0 0 0.422519,-0.948 q 1.85124,-4.4 1.85124,-9.5 A 29.249602,26.86 0 0 0 81.778052,30.542 25.96855,23.847 0 0 0 80.801251,27.75 Q 78.95001,23.4 75.628666,20.3 72.307323,17.2 67.73367,15.45 A 25.045108,22.999 0 0 0 59.809271,13.767 29.738547,27.309 0 0 0 57.715191,13.7 H 38.440509 a 26.159119,24.022 0 0 0 -6.950864,0.827 23.408393,21.496 0 0 0 -2.90427,0.923 q -4.519205,1.75 -7.7861,4.85 a 23.997523,22.037 0 0 0 -4.757689,6.604 27.686937,25.425 0 0 0 -0.360447,0.796 26.5261,24.359 0 0 0 -1.70423,6.646 32.295437,29.657 0 0 0 -0.147011,2.854 29.368299,26.969 0 0 0 0.998581,7.113 26.578371,24.407 0 0 0 0.85266,2.387 q 1.851241,4.4 5.118136,7.55 3.266895,3.15 7.7861,4.95 A 24.044349,22.08 0 0 0 36.95625,60.965 28.156281,25.856 0 0 0 38.440509,61 Z"
         id="0-6"
         style="fill:#999999;fill-opacity:1;stroke-width:0.260884mm" /><path
         d="M 195.36038,53.5 H 163.5626 V 41.2 h 31.79778 a 20.699048,19.008 0 0 0 4.63681,-0.449 q 4.06402,-0.857 6.74287,-3.351 a 13.943109,12.804 0 0 0 3.85603,-7.203 19.583948,17.984 0 0 0 0.22759,-2.797 18.63437,17.112 0 0 0 -0.54993,-4.276 13.198257,12.12 0 0 0 -3.53369,-5.724 13.407338,12.312 0 0 0 -6.16899,-3.135 q -2.06467,-0.494 -4.50504,-0.556 A 25.587412,23.497 0 0 0 195.36038,13.7 h -41.92516 v 60 H 139.71426 V 1 h 55.64612 q 6.86048,0 12.25085,1.85 a 27.09454,24.881 0 0 1 6.01109,2.855 23.45413,21.538 0 0 1 3.08177,2.345 23.898428,21.946 0 0 1 5.27168,7.245 27.900374,25.621 0 0 1 0.39094,0.905 q 1.96014,4.8 1.96014,10.8 a 36.612095,33.621 0 0 1 -0.61962,6.305 30.077215,27.62 0 0 1 -1.34052,4.445 26.029532,23.903 0 0 1 -4.54752,7.223 24.70644,22.688 0 0 1 -1.1151,1.127 24.943834,22.906 0 0 1 -7.42892,4.794 29.532733,27.12 0 0 1 -1.66394,0.656 29.970497,27.522 0 0 1 -6.91928,1.628 39.069889,35.878 0 0 1 -5.33157,0.322 z"
         id="2-7"
         style="fill:#999999;fill-opacity:1;stroke-width:0.260884mm" /><path
         d="M 336.92584,73.7 H 266.14311 V 1 h 70.67383 V 13.7 H 279.86407 V 61 h 57.06177 z M 333.87673,42.1 H 289.99144 V 31.4 h 43.88529 z"
         id="4-5"
         style="fill:#999999;fill-opacity:1;stroke-width:0.260884mm" /><path
         d="M 449.30703,71.9 393.66092,20.5 v 53.2 h -13.17648 v -66 a 12.332529,11.325 0 0 1 0.2363,-2.282 q 0.4345,-1.939 1.66939,-3.268 a 6.2506595,5.74 0 0 1 4.32972,-2.014 8.8217061,8.101 0 0 1 0.84286,-0.036 q 1.52455,0 2.94021,0.6 a 7.9429113,7.294 0 0 1 1.21419,0.649 q 0.57498,0.368 1.1652,0.86 a 15.766036,14.478 0 0 1 0.56081,0.491 l 55.86391,50.9 V 0.4 h 13.17648 V 67 a 13.006599,11.944 0 0 1 -0.20473,2.19 q -0.2559,1.259 -0.83088,2.25 a 6.6938683,6.147 0 0 1 -0.87008,1.16 6.203834,5.697 0 0 1 -4.53118,1.99 8.2129746,7.542 0 0 1 -0.42361,0.01 7.8928189,7.248 0 0 1 -4.24261,-1.163 11.7532,10.793 0 0 1 -2.07339,-1.537 z"
         id="6-3"
         style="fill:#999999;fill-opacity:1;stroke-width:0.260884mm" /><path
         d="M 567.35085,73.7 H 507.78446 V 1 h 57.93294 a 44.32959,40.708 0 0 1 5.84121,0.339 34.773922,31.933 0 0 1 4.6673,0.861 26.502143,24.337 0 0 1 4.64988,1.6 21.161858,19.433 0 0 1 3.46291,1.95 q 3.37579,2.35 5.22703,5.9 a 18.693174,17.166 0 0 1 1.62256,5.046 24.160868,22.187 0 0 1 0.22868,3.104 28.149747,25.85 0 0 1 -0.16661,2.89 q -0.17423,1.42 -0.53032,2.652 a 16.244092,14.917 0 0 1 -0.17424,0.558 17.455021,16.029 0 0 1 -1.10421,2.542 13.714426,12.594 0 0 1 -1.29151,1.908 q -1.52455,1.85 -3.53914,3.1 a 15.588535,14.315 0 0 1 -3.49884,1.641 14.351471,13.179 0 0 1 -0.69367,0.209 q 5.44482,1.6 8.92951,5.8 a 16.630675,15.272 0 0 1 3.03495,6.284 23.383347,21.473 0 0 1 0.44974,4.316 28.463369,26.138 0 0 1 -0.56408,5.307 23.295141,21.392 0 0 1 -1.23271,3.743 q -1.7968,4.05 -5.11814,6.95 a 21.834839,20.051 0 0 1 -6.33124,3.821 25.98924,23.866 0 0 1 -1.7271,0.629 28.982805,26.615 0 0 1 -6.66229,1.367 36.095925,33.147 0 0 1 -3.84622,0.183 z M 566.80636,42.1 H 531.63279 V 31.4 h 34.19351 a 25.408822,23.333 0 0 0 3.06761,-0.158 q 3.3845,-0.379 5.38493,-1.666 a 7.2710198,6.677 0 0 0 0.25918,-0.176 6.5904166,6.052 0 0 0 2.14635,-2.753 q 0.68495,-1.684 0.68495,-4.047 a 13.576128,12.467 0 0 0 -0.14047,-1.858 q -0.27115,-1.643 -1.05739,-2.792 a 7.6336452,7.01 0 0 0 -2.82259,-2.417 9.4239038,8.654 0 0 0 -0.60765,-0.283 q -2.0919,-0.89 -4.95043,-1.21 A 23.921296,21.967 0 0 0 567.40529,14 q -3.10355,-0.3 -6.91492,-0.3 h -38.87606 v 47.4 h 40.07392 a 44.184758,40.575 0 0 0 4.20558,-0.176 35.569955,32.664 0 0 0 2.6549,-0.324 20.706671,19.015 0 0 0 2.76924,-0.611 15.107212,13.873 0 0 0 2.67558,-1.039 10.394172,9.545 0 0 0 2.19209,-1.452 8.761813,8.046 0 0 0 1.34705,-1.498 q 1.20004,-1.725 1.25013,-4.276 a 13.521679,12.417 0 0 0 0.002,-0.224 12.616749,11.586 0 0 0 -0.35936,-2.851 8.5756,7.875 0 0 0 -2.68974,-4.099 9.7571271,8.96 0 0 0 -3.41173,-1.738 Q 569.97634,42.1 566.80636,42.1 Z"
         id="8-5"
         style="fill:#e6e6e6;fill-opacity:1;stroke-width:0.260884mm" /><path
         d="M 692.36404,73.7 H 673.08936 A 38.662616,35.504 0 0 1 661.84035,72.228 35.278113,32.396 0 0 1 657.7894,70.85 Q 650.76557,68 645.59299,63.05 a 38.103977,34.991 0 0 1 -7.6881,-10.907 43.599984,40.038 0 0 1 -0.37024,-0.843 q -2.88576,-6.8 -2.88576,-14.7 a 45.657039,41.927 0 0 1 1.01818,-9.006 38.424133,35.285 0 0 1 1.86758,-5.594 36.148196,33.195 0 0 1 5.75953,-8.963 33.525968,30.787 0 0 1 2.29881,-2.287 Q 650.76557,6.1 657.7894,3.55 A 40.134897,36.856 0 0 1 670.03045,1.09 47.344935,43.477 0 0 1 673.08936,1 h 19.27468 a 45.541608,41.821 0 0 1 9.69832,0.917 38.525406,35.378 0 0 1 6.03722,1.683 36.191754,33.235 0 0 1 10.60326,5.883 34.300222,31.498 0 0 1 1.6476,1.417 35.588468,32.681 0 0 1 7.72512,10.741 40.739272,37.411 0 0 1 0.22432,0.509 40.355957,37.059 0 0 1 2.63203,10.349 48.966404,44.966 0 0 1 0.19928,4.101 45.218186,41.524 0 0 1 -1.49079,10.788 40.802432,37.469 0 0 1 -1.39496,3.912 q -2.88576,6.8 -8.05835,11.75 -5.17258,4.95 -12.25085,7.8 a 37.267652,34.223 0 0 1 -12.4044,2.748 44.419974,40.791 0 0 1 -3.1678,0.102 z M 673.08936,61 h 19.27468 a 26.433538,24.274 0 0 0 6.77118,-0.775 23.378991,21.469 0 0 0 3.2473,-1.025 q 4.57365,-1.8 7.89499,-4.95 a 23.867937,21.918 0 0 0 4.75007,-6.602 27.696738,25.434 0 0 0 0.42252,-0.948 q 1.85124,-4.4 1.85124,-9.5 a 29.249602,26.86 0 0 0 -0.87444,-6.658 25.96855,23.847 0 0 0 -0.9768,-2.792 q -1.85124,-4.35 -5.17259,-7.45 -3.32134,-3.1 -7.89499,-4.85 a 25.045108,22.999 0 0 0 -7.9244,-1.683 29.738547,27.309 0 0 0 -2.09408,-0.067 h -19.27468 a 26.159119,24.022 0 0 0 -6.95087,0.827 23.408393,21.496 0 0 0 -2.90427,0.923 q -4.5192,1.75 -7.7861,4.85 a 23.997523,22.037 0 0 0 -4.75769,6.604 27.686937,25.425 0 0 0 -0.36045,0.796 26.5261,24.359 0 0 0 -1.70423,6.646 32.295437,29.657 0 0 0 -0.14701,2.854 29.368299,26.969 0 0 0 0.99859,7.113 26.578371,24.407 0 0 0 0.85265,2.387 q 1.85125,4.4 5.11814,7.55 3.2669,3.15 7.7861,4.95 a 24.044349,22.08 0 0 0 8.37088,1.765 28.156281,25.856 0 0 0 1.48426,0.035 z"
         id="10-6"
         style="fill:#e6e6e6;fill-opacity:1;stroke-width:0.260884mm" /><path
         d="M 833.7117,73.7 H 774.36311 V 61 h 59.34859 a 17.451754,16.026 0 0 0 3.36055,-0.278 q 1.934,-0.349 3.43786,-1.135 a 9.0601894,8.32 0 0 0 1.74997,-1.187 9.41737,8.648 0 0 0 2.89011,-5.347 13.161232,12.086 0 0 0 0.10454,-1.553 13.930041,12.792 0 0 0 -0.29184,-2.708 q -0.40727,-1.725 -1.38081,-3.006 a 7.7283851,7.097 0 0 0 -1.322,-1.336 9.7963298,8.996 0 0 0 -3.48469,-1.72 q -1.43634,-0.413 -3.1678,-0.555 A 21.320847,19.579 0 0 0 833.7117,42.1 h -36.37143 a 31.591966,29.011 0 0 1 -5.8423,-0.477 25.567811,23.479 0 0 1 -4.23063,-1.073 23.455219,21.539 0 0 1 -4.86658,-2.263 19.925883,18.298 0 0 1 -2.75617,-2.037 q -3.10355,-2.75 -4.79145,-6.55 -1.68789,-3.8 -1.68789,-8.3 0,-4.4 1.57899,-8.15 1.579,-3.75 4.68255,-6.45 A 20.797055,19.098 0 0 1 784.38921,3.631 25.875988,23.762 0 0 1 787.104,2.55 26.602328,24.429 0 0 1 792.66317,1.297 35.537286,32.634 0 0 1 797.55806,1 h 56.84398 v 12.7 h -56.84398 q -3.68397,0 -6.08078,1.39 a 7.9625126,7.312 0 0 0 -1.32418,0.96 8.3926538,7.707 0 0 0 -2.27594,3.77 q -0.32669,1.231 -0.33649,2.686 a 15.883645,14.586 0 0 0 -10e-4,0.094 12.560123,11.534 0 0 0 0.31254,2.649 q 0.53141,2.073 1.9732,3.498 a 7.918954,7.272 0 0 0 0.38223,0.353 8.918624,8.19 0 0 0 4.08035,1.977 q 1.44615,0.323 3.16127,0.323 h 36.26253 a 41.203172,37.837 0 0 1 6.9868,0.508 q 7.05759,1.117 11.36227,4.692 5.46442,4.538 6.16027,13.186 a 38.624502,35.469 0 0 1 0.10127,2.614 28.853219,26.496 0 0 1 -0.62506,5.607 24.839293,22.81 0 0 1 -0.89949,2.893 q -1.52455,3.9 -4.57365,6.75 -3.0491,2.85 -7.6772,4.45 a 26.03171,23.905 0 0 1 -5.19219,1.225 q -2.30643,0.328 -4.89708,0.369 A 43.215579,39.685 0 0 1 833.7117,73.7 Z"
         id="12"
         style="fill:#e6e6e6;fill-opacity:1;stroke-width:0.260884mm" /><path
         d="M 970.70351,71.9 915.05739,20.5 v 53.2 h -13.17647 v -66 a 12.332529,11.325 0 0 1 0.2363,-2.282 q 0.4345,-1.939 1.66939,-3.268 a 6.2506595,5.74 0 0 1 4.32972,-2.014 8.8217061,8.101 0 0 1 0.84286,-0.036 q 1.52455,0 2.94021,0.6 a 7.9429113,7.294 0 0 1 1.21419,0.649 q 0.57498,0.368 1.16519,0.86 A 15.766036,14.478 0 0 1 914.8396,2.7 l 55.86391,50.9 V 0.4 h 13.17648 V 67 a 13.006599,11.944 0 0 1 -0.20473,2.19 q -0.2559,1.259 -0.83088,2.25 a 6.6938683,6.147 0 0 1 -0.87008,1.16 6.203834,5.697 0 0 1 -4.53118,1.99 8.2129746,7.542 0 0 1 -0.42361,0.01 7.8928189,7.248 0 0 1 -4.24261,-1.163 11.7532,10.793 0 0 1 -2.07339,-1.537 z"
         id="14"
         style="fill:#e6e6e6;fill-opacity:1;stroke-width:0.260884mm" /><path
         d="m 1043.882,73.7 h -13.8299 V 1 h 13.8299 z"
         id="16"
         style="fill:#e6e6e6;fill-opacity:1;stroke-width:0.260884mm" /><path
         d="m 1189.5855,73.7 h -16.6612 l -11.8697,-18.3 h -37.4604 l 6.5338,-10.3 h 24.2839 l -17.6412,-27.2 -35.9359,55.8 h -15.79 l 45.5188,-69.6 q 1.1978,-1.9 2.8313,-3 a 6.1624534,5.659 0 0 1 2.9511,-1.047 7.9853809,7.333 0 0 1 0.9692,-0.053 7.2405288,6.649 0 0 1 1.8969,0.218 5.6789529,5.215 0 0 1 1.9689,0.882 9.6264513,8.84 0 0 1 1.6988,1.539 12.91077,11.856 0 0 1 1.0781,1.461 z"
         id="18"
         style="fill:#e6e6e6;fill-opacity:1;stroke-width:0.260884mm" /><path
         d="m 1298.5909,71.9 -55.6461,-51.4 v 53.2 h -13.1765 v -66 a 12.332529,11.325 0 0 1 0.2363,-2.282 q 0.4345,-1.939 1.6694,-3.268 a 6.2506595,5.74 0 0 1 4.3297,-2.014 8.8217061,8.101 0 0 1 0.8429,-0.036 q 1.5245,0 2.9402,0.6 a 7.9429113,7.294 0 0 1 1.2142,0.649 q 0.5749,0.368 1.1652,0.86 a 15.766036,14.478 0 0 1 0.5608,0.491 l 55.8639,50.9 V 0.4 h 13.1765 V 67 a 13.006599,11.944 0 0 1 -0.2048,2.19 q -0.2559,1.259 -0.8308,2.25 a 6.6938683,6.147 0 0 1 -0.8701,1.16 6.203834,5.697 0 0 1 -4.5312,1.99 8.2129746,7.542 0 0 1 -0.4236,0.01 7.8928189,7.248 0 0 1 -4.2426,-1.163 11.7532,10.793 0 0 1 -2.0734,-1.537 z"
         id="20"
         style="fill:#e6e6e6;fill-opacity:1;stroke-width:0.260884mm" /><path
         d="m 1456.3819,73.7 h -16.6611 L 1427.851,55.4 h -37.4603 l 6.5337,-10.3 h 24.284 l -17.6413,-27.2 -35.9358,55.8 h -15.79 L 1397.36,4.1 q 1.1979,-1.9 2.8313,-3 a 6.1624534,5.659 0 0 1 2.9511,-1.047 7.9853809,7.333 0 0 1 0.9692,-0.053 7.2405288,6.649 0 0 1 1.897,0.218 5.6789529,5.215 0 0 1 1.9688,0.882 9.6264513,8.84 0 0 1 1.6988,1.539 12.91077,11.856 0 0 1 1.0781,1.461 z"
         id="22"
         style="fill:#e6e6e6;fill-opacity:1;stroke-width:0.260884mm" /></g></g></svg>
