<?xml version="1.0" encoding="UTF-8" standalone="no"?>
<!-- Created with Inkscape (http://www.inkscape.org/) -->

<svg
   version="1.1"
   id="svg2"
   width="686.61731"
   height="100"
   viewBox="0 0 686.61731 100"
   sodipodi:docname="vendor-logo.svg"
   xml:space="preserve"
   inkscape:export-filename="mini-logotype-openbosniana.svg"
   inkscape:export-xdpi="26.780001"
   inkscape:export-ydpi="26.780001"
   inkscape:version="1.2.2 (b0a8486541, 2022-12-01)"
   xmlns:inkscape="http://www.inkscape.org/namespaces/inkscape"
   xmlns:sodipodi="http://sodipodi.sourceforge.net/DTD/sodipodi-0.dtd"
   xmlns:xlink="http://www.w3.org/1999/xlink"
   xmlns="http://www.w3.org/2000/svg"
   xmlns:svg="http://www.w3.org/2000/svg"><defs
     id="defs6"><linearGradient
       id="linearGradient8856"
       inkscape:swatch="solid"><stop
         style="stop-color:#000000;stop-opacity:1;"
         offset="0"
         id="stop8854" /></linearGradient><linearGradient
       id="h-6"
       gradientUnits="userSpaceOnUse"
       x1="25.636999"
       x2="57.998001"
       y1="40.675999"
       y2="40.675999"
       gradientTransform="matrix(3.3400036,0,0,3.3400036,-1.0227687,4.5486979)"><stop
         offset="0"
         stop-color="#292c2f"
         id="stop9-7" /><stop
         offset="1"
         stop-color="#292c2f"
         stop-opacity="0"
         id="stop11-5" /></linearGradient><linearGradient
       x1="0.71004629"
       y1="1"
       x2="0"
       y2="1"
       id="linearGradient-1"><stop
         stop-color="#394A9F"
         offset="0%"
         id="stop5195" /><stop
         stop-color="#6176B9"
         offset="100%"
         id="stop5197" /></linearGradient><style
       id="current-color-scheme"
       type="text/css">
         .ColorScheme-Text { color: #0abdc6; } .ColorScheme-Highlight { color:#5294e2; }
      </style><linearGradient
       id="arrongin"
       x1="0"
       x2="0"
       y1="0"
       y2="1"><stop
         offset="0%"
         style="stop-color:#dd9b44; stop-opacity:1"
         id="stop3" /><stop
         offset="100%"
         style="stop-color:#ad6c16; stop-opacity:1"
         id="stop5" /></linearGradient><linearGradient
       id="aurora"
       x1="0"
       x2="0"
       y1="0"
       y2="1"><stop
         offset="0%"
         style="stop-color:#09D4DF; stop-opacity:1"
         id="stop8" /><stop
         offset="100%"
         style="stop-color:#9269F4; stop-opacity:1"
         id="stop10" /></linearGradient><linearGradient
       id="cyberneon"
       x1="0"
       x2="0"
       y1="0"
       y2="1"><stop
         offset="0"
         style="stop-color:#0abdc6; stop-opacity:1"
         id="stop13" /><stop
         offset="1"
         style="stop-color:#ea00d9; stop-opacity:1"
         id="stop15" /></linearGradient><linearGradient
       id="fitdance"
       x1="0"
       x2="0"
       y1="0"
       y2="1"><stop
         offset="0%"
         style="stop-color:#1AD6AB; stop-opacity:1"
         id="stop18" /><stop
         offset="100%"
         style="stop-color:#329DB6; stop-opacity:1"
         id="stop20" /></linearGradient><linearGradient
       id="oomox"
       x1="0"
       x2="0"
       y1="0"
       y2="1"><stop
         offset="0%"
         style="stop-color:#0abdc6; stop-opacity:1"
         id="stop23" /><stop
         offset="100%"
         style="stop-color:#b800ff; stop-opacity:1"
         id="stop25" /></linearGradient><linearGradient
       id="rainblue"
       x1="0"
       x2="0"
       y1="0"
       y2="1"><stop
         offset="0%"
         style="stop-color:#00F260; stop-opacity:1"
         id="stop28" /><stop
         offset="100%"
         style="stop-color:#0575E6; stop-opacity:1"
         id="stop30" /></linearGradient><linearGradient
       id="sunrise"
       x1="0"
       x2="0"
       y1="0"
       y2="1"><stop
         offset="0%"
         style="stop-color: #FF8501; stop-opacity:1"
         id="stop33" /><stop
         offset="100%"
         style="stop-color: #FFCB01; stop-opacity:1"
         id="stop35" /></linearGradient><linearGradient
       id="telinkrin"
       x1="0"
       x2="0"
       y1="0"
       y2="1"><stop
         offset="0%"
         style="stop-color: #b2ced6; stop-opacity:1"
         id="stop38" /><stop
         offset="100%"
         style="stop-color: #6da5b7; stop-opacity:1"
         id="stop40" /></linearGradient><linearGradient
       id="60spsycho"
       x1="0"
       x2="0"
       y1="0"
       y2="1"><stop
         offset="0%"
         style="stop-color: #df5940; stop-opacity:1"
         id="stop43" /><stop
         offset="25%"
         style="stop-color: #d8d15f; stop-opacity:1"
         id="stop45" /><stop
         offset="50%"
         style="stop-color: #e9882a; stop-opacity:1"
         id="stop47" /><stop
         offset="100%"
         style="stop-color: #279362; stop-opacity:1"
         id="stop49" /></linearGradient><linearGradient
       id="90ssummer"
       x1="0"
       x2="0"
       y1="0"
       y2="1"><stop
         offset="0%"
         style="stop-color: #f618c7; stop-opacity:1"
         id="stop52" /><stop
         offset="20%"
         style="stop-color: #94ffab; stop-opacity:1"
         id="stop54" /><stop
         offset="50%"
         style="stop-color: #fbfd54; stop-opacity:1"
         id="stop56" /><stop
         offset="100%"
         style="stop-color: #0f83ae; stop-opacity:1"
         id="stop58" /></linearGradient><radialGradient
       id="radialGradient5521-1"
       cx="10.255"
       cy="9.9089003"
       r="12.672"
       fx="9.7251997"
       gradientTransform="matrix(0,2.0777913,-4.4561904,0,59.970934,-52.146303)"
       gradientUnits="userSpaceOnUse"><stop
         stop-color="#90dbec"
         offset="0"
         id="stop2" /><stop
         stop-color="#42baea"
         offset=".26238"
         id="stop4" /><stop
         stop-color="#3689e6"
         offset=".70495"
         id="stop6" /><stop
         stop-color="#2b63a0"
         offset="1"
         id="stop8-3" /></radialGradient><filter
       id="filter975"
       x="-0.048"
       y="-0.048"
       width="1.096"
       height="1.096"
       color-interpolation-filters="sRGB"><feGaussianBlur
         stdDeviation="0.56"
         id="feGaussianBlur11" /></filter><style
       id="current-color-scheme-6"
       type="text/css">
      .ColorScheme-Text {
        color:#232629;
      }
      </style><filter
       id="filter3888-7"
       color-interpolation-filters="sRGB"
       x="-0.070615493"
       y="-0.053284489"
       width="1.1412309"
       height="1.1273832"><feFlood
         id="feFlood3890-5"
         flood-opacity="0.15"
         flood-color="rgb(0,0,0)"
         result="flood" /><feComposite
         id="feComposite3892-3"
         in2="SourceGraphic"
         in="flood"
         operator="in"
         result="composite1" /><feGaussianBlur
         id="feGaussianBlur3894-5"
         stdDeviation="1.6"
         result="blur" /><feOffset
         id="feOffset3896-6"
         dx="0"
         dy="1.5"
         result="offset" /><feComposite
         id="feComposite3898-2"
         in2="offset"
         in="SourceGraphic"
         operator="over"
         result="fbSourceGraphic" /><feColorMatrix
         result="fbSourceGraphicAlpha"
         in="fbSourceGraphic"
         values="0 0 0 -1 0 0 0 0 -1 0 0 0 0 -1 0 0 0 0 1 0"
         id="feColorMatrix3900-9" /><feFlood
         id="feFlood3902-1"
         flood-opacity="0.5"
         flood-color="rgb(0,0,0)"
         result="flood"
         in="fbSourceGraphic" /><feComposite
         id="feComposite3904-2"
         in2="fbSourceGraphic"
         in="flood"
         operator="in"
         result="composite1" /><feGaussianBlur
         id="feGaussianBlur3906-7"
         stdDeviation="1.6"
         result="blur" /><feOffset
         id="feOffset3908-0"
         dx="0"
         dy="1.5"
         result="offset" /><feComposite
         id="feComposite3910-9"
         in2="offset"
         in="fbSourceGraphic"
         operator="over"
         result="composite2" /></filter><linearGradient
       id="linearGradient8856-3"><stop
         style="stop-color:#000000;stop-opacity:1;"
         offset="0"
         id="stop8854-6" /></linearGradient><radialGradient
       id="radialGradient5521-1-2"
       cx="10.255"
       cy="9.9089003"
       r="12.672"
       fx="9.7251997"
       gradientTransform="matrix(0,2.1295598,-4.2500545,0,56.290049,-53.053023)"
       gradientUnits="userSpaceOnUse"><stop
         stop-color="#90dbec"
         offset="0"
         id="stop2-7" /><stop
         stop-color="#42baea"
         offset=".26238"
         id="stop4-0" /><stop
         stop-color="#3689e6"
         offset=".70495"
         id="stop6-9" /><stop
         stop-color="#2b63a0"
         offset="1"
         id="stop8-3-3" /></radialGradient><filter
       id="filter3888-7-6"
       color-interpolation-filters="sRGB"
       x="-0.070615493"
       y="-0.053284489"
       width="1.1412309"
       height="1.1273832"><feFlood
         id="feFlood3890-5-0"
         flood-opacity="0.15"
         flood-color="rgb(0,0,0)"
         result="flood" /><feComposite
         id="feComposite3892-3-6"
         in2="SourceGraphic"
         in="flood"
         operator="in"
         result="composite1" /><feGaussianBlur
         id="feGaussianBlur3894-5-2"
         stdDeviation="1.6"
         result="blur" /><feOffset
         id="feOffset3896-6-6"
         dx="0"
         dy="1.5"
         result="offset" /><feComposite
         id="feComposite3898-2-1"
         in2="offset"
         in="SourceGraphic"
         operator="over"
         result="fbSourceGraphic" /><feColorMatrix
         result="fbSourceGraphicAlpha"
         in="fbSourceGraphic"
         values="0 0 0 -1 0 0 0 0 -1 0 0 0 0 -1 0 0 0 0 1 0"
         id="feColorMatrix3900-9-8" /><feFlood
         id="feFlood3902-1-7"
         flood-opacity="0.5"
         flood-color="rgb(0,0,0)"
         result="flood"
         in="fbSourceGraphic" /><feComposite
         id="feComposite3904-2-9"
         in2="fbSourceGraphic"
         in="flood"
         operator="in"
         result="composite1" /><feGaussianBlur
         id="feGaussianBlur3906-7-2"
         stdDeviation="1.6"
         result="blur" /><feOffset
         id="feOffset3908-0-0"
         dx="0"
         dy="1.5"
         result="offset" /><feComposite
         id="feComposite3910-9-2"
         in2="offset"
         in="fbSourceGraphic"
         operator="over"
         result="composite2" /></filter><linearGradient
       id="a"
       y1="543.8"
       y2="515.8"
       x2="0"
       gradientUnits="userSpaceOnUse"
       gradientTransform="matrix(1.125,0,0,1,-51.07,0)"><stop
         stop-color="#1d1e1e"
         id="stop337" /><stop
         offset="1"
         stop-color="#44484c"
         id="stop339" /></linearGradient><linearGradient
       id="b"
       y1="525.8"
       y2="503.8"
       x2="0"
       gradientUnits="userSpaceOnUse"><stop
         stop-color="#c6cdd1"
         id="stop342" /><stop
         offset="1"
         stop-color="#e0e5e7"
         id="stop344" /></linearGradient><linearGradient
       id="c"
       y1="14"
       x1="5"
       y2="36"
       x2="27"
       gradientUnits="userSpaceOnUse"
       gradientTransform="matrix(0.71927115,0,0,0.71927115,391.47796,506.75058)"><stop
         stop-color="#383e51"
         id="stop347" /><stop
         offset="1"
         stop-color="#655c6f"
         stop-opacity="0"
         id="stop349" /></linearGradient><linearGradient
       id="d"
       y1="543.8"
       y2="515.8"
       gradientUnits="userSpaceOnUse"
       x2="0"
       gradientTransform="matrix(1.16129,0,0,1,-65.38,0)"><stop
         stop-color="#197cf1"
         id="stop352" /><stop
         offset="1"
         stop-color="#20bcfa"
         id="stop354" /></linearGradient><style
       id="current-color-scheme-3"
       type="text/css">
   .ColorScheme-Text { color:#cecfce; } .ColorScheme-Highlight { color:#3daee9; }
  </style><linearGradient
       id="a-3"
       gradientUnits="userSpaceOnUse"
       x1="16"
       x2="16"
       y1="30"
       y2="2"
       gradientTransform="matrix(0.60490741,0,0,0.5358913,29.83014,13.750933)"><stop
         offset="0"
         stop-color="#197cf1"
         id="stop278"
         style="stop-color:#4df119;stop-opacity:1;" /><stop
         offset="1"
         stop-color="#20bcfa"
         id="stop280"
         style="stop-color:#1ead05;stop-opacity:1;" /></linearGradient><linearGradient
       id="b-6"
       gradientUnits="userSpaceOnUse"
       x1="14"
       x2="25"
       y1="10"
       y2="21"
       gradientTransform="matrix(1.867426,0,0,1.6543645,2.1898328,5.728315)"><stop
         offset="0"
         stop-color="#292c2f"
         id="stop283" /><stop
         offset="1"
         stop-opacity="0"
         id="stop285" /></linearGradient><linearGradient
       id="c-7"
       gradientUnits="userSpaceOnUse"
       x1="14"
       x2="14"
       y1="21"
       y2="9"
       gradientTransform="matrix(1.867426,0,0,1.6543645,2.1898328,5.728315)"><stop
         offset="0"
         stop-color="#7cbaf8"
         id="stop288" /><stop
         offset="1"
         stop-color="#f4fcff"
         id="stop290" /></linearGradient><linearGradient
       id="a-5"
       gradientUnits="userSpaceOnUse"
       x1="16"
       x2="16"
       y1="30"
       y2="2"
       gradientTransform="matrix(1.867426,0,0,1.6543645,2.1898328,5.728315)"><stop
         offset="0"
         stop-color="#197cf1"
         id="stop278-3" /><stop
         offset="1"
         stop-color="#20bcfa"
         id="stop280-5" /></linearGradient><linearGradient
       id="linearGradient3844"
       gradientUnits="userSpaceOnUse"
       gradientTransform="rotate(90,24,24)"
       x1="1"
       x2="47"><stop
         style="stop-color:#3a3a3a;stop-opacity:1"
         id="stop2-6" /><stop
         offset="1"
         style="stop-color:#303030;stop-opacity:1"
         id="stop4-7" /></linearGradient><style
       type="text/css"
       id="current-color-scheme-6-5">
      .ColorScheme-Text {
        color:#eff0f1;
      }
      </style><linearGradient
       id="b-0"
       gradientTransform="matrix(0.5645045,0,0,0.61829849,26.155179,1.759708)"
       gradientUnits="userSpaceOnUse"
       x1="-41.259998"
       x2="-2.994"
       y1="-0.88300002"
       y2="37.956001"><stop
         offset="0"
         stop-color="#21c9fb"
         id="stop375" /><stop
         offset="1"
         stop-color="#1a86f2"
         id="stop377" /></linearGradient><linearGradient
       id="c-6"
       gradientUnits="userSpaceOnUse"
       x1="10.4"
       x2="23.659"
       xlink:href="#a-2"
       y1="6.9000001"
       y2="20.159" /><linearGradient
       id="a-2"><stop
         offset="0"
         id="stop369" /><stop
         offset="1"
         stop-opacity="0"
         id="stop371" /></linearGradient><linearGradient
       id="d-6"
       gradientTransform="matrix(0.49497475,0.49497475,-0.49497475,0.49497475,-0.8001303,-0.80031458)"
       gradientUnits="userSpaceOnUse"
       x1="31.021"
       x2="43.104"
       xlink:href="#a-2"
       y1="-9.8959999"
       y2="-9.8959999" /><linearGradient
       id="e"
       gradientUnits="userSpaceOnUse"
       x1="15.801"
       x2="17.643999"
       xlink:href="#a-2"
       y1="8.4530001"
       y2="10.296" /><linearGradient
       id="a-3-1"
       y1="392.36"
       y2="365.36"
       gradientUnits="userSpaceOnUse"
       x2="0"
       gradientTransform="translate(309.57,152.44)"><stop
         stop-color="#ffffff"
         stop-opacity="0"
         id="stop1025" /><stop
         offset="1"
         stop-color="#ffffff"
         stop-opacity=".15"
         id="stop1027" /></linearGradient><linearGradient
       id="b-6-8"
       y1="17"
       x1="47"
       y2="24"
       gradientUnits="userSpaceOnUse"
       x2="54"
       gradientTransform="translate(357.57,507.8)"><stop
         stop-color="#060606"
         id="stop1030" /><stop
         offset="1"
         stop-opacity="0"
         id="stop1032" /></linearGradient><path
       id="c-7-7"
       d="m389.57 545.8v-28h15l7 7v21h-14z" /><linearGradient
       id="linearGradient4159"><stop
         style="stop-color:#2a2c2f"
         id="stop1079" /><stop
         offset="1"
         style="stop-color:#424649"
         id="stop1081" /></linearGradient><linearGradient
       xlink:href="#linearGradient4159"
       id="linearGradient4250"
       y1="536.798"
       y2="503.798"
       x2="0"
       gradientUnits="userSpaceOnUse"
       gradientTransform="matrix(0.39495396,0,0,0.39495396,220.55896,277.12425)" /><linearGradient
       xlink:href="#linearGradient4303"
       id="linearGradient4272"
       y1="547.798"
       y2="536.798"
       x2="0"
       gradientUnits="userSpaceOnUse"
       gradientTransform="matrix(0.39495396,0,0,0.21542943,220.55896,373.49266)" /><linearGradient
       xlink:href="#linearGradient4424"
       id="linearGradient4235"
       y1="534.798"
       y2="505.798"
       x2="0"
       gradientUnits="userSpaceOnUse"
       gradientTransform="matrix(1,0,0,1.0344837,0,-17.441821)" /><linearGradient
       id="linearGradient4424"><stop
         style="stop-color:#60a5e7;stop-opacity:0"
         id="stop1087" /><stop
         offset="1"
         style="stop-color:#a6f3fb;stop-opacity:0.257732"
         id="stop1089" /></linearGradient><linearGradient
       id="linearGradient4435"><stop
         style="stop-color:#c61423"
         id="stop1092" /><stop
         offset="1"
         style="stop-color:#dc2b41"
         id="stop1094" /></linearGradient><linearGradient
       xlink:href="#linearGradient4435"
       id="linearGradient4389"
       y1="524.798"
       y2="515.798"
       x2="0"
       gradientUnits="userSpaceOnUse"
       gradientTransform="translate(6e-6,0.500061)" /><linearGradient
       xlink:href="#linearGradient4410"
       id="linearGradient4402"
       y1="16"
       x1="15"
       y2="32"
       x2="31"
       gradientUnits="userSpaceOnUse" /><linearGradient
       id="linearGradient4410"><stop
         style="stop-color:#383e51"
         id="stop1099" /><stop
         offset="1"
         style="stop-color:#655c6f;stop-opacity:0"
         id="stop1101" /></linearGradient><linearGradient
       id="linearGradient4303"><stop
         style="stop-color:#c6cdd1"
         id="stop1104" /><stop
         offset="1"
         style="stop-color:#e0e5e7"
         id="stop1106" /></linearGradient><linearGradient
       id="p"
       x1="25"
       x2="25"
       y1="8"
       y2="2"
       gradientUnits="userSpaceOnUse"
       xlink:href="#j"
       gradientTransform="matrix(0.61871217,0,0,0.61871217,4.0441759,4.8825976)" /><linearGradient
       id="j"
       x2="0"
       y1="30"
       y2="8"
       gradientUnits="userSpaceOnUse"><stop
         stop-color="#cea476"
         offset="0"
         id="stop598" /><stop
         stop-color="#dab58b"
         offset="1"
         id="stop600" /></linearGradient><linearGradient
       id="linearGradient2886"
       x2="0"
       y1="30"
       y2="8"
       gradientUnits="userSpaceOnUse"><stop
         stop-color="#cea476"
         offset="0"
         id="stop2882" /><stop
         stop-color="#dab58b"
         offset="1"
         id="stop2884" /></linearGradient><linearGradient
       id="k"
       x2="0"
       y1="30"
       y2="8"
       gradientUnits="userSpaceOnUse"><stop
         stop-color="#cfd2d5"
         offset="0"
         id="stop618" /><stop
         stop-color="#eff0f1"
         offset="1"
         id="stop620" /></linearGradient><linearGradient
       id="o"
       x1="411.427"
       x2="411.427"
       y1="543.79999"
       y2="512.79999"
       gradientTransform="matrix(0.21654923,0,0,0.43908764,-70.201284,-215.33128)"
       gradientUnits="userSpaceOnUse"><stop
         stop-color="#73ba25"
         offset="0"
         id="stop603" /><stop
         stop-color="#81c13b"
         stop-opacity=".85"
         offset="1"
         id="stop605" /></linearGradient><linearGradient
       id="n"
       x1="411.57001"
       x2="411.57001"
       y1="512.80103"
       y2="503.80099"
       gradientTransform="matrix(0.66667,0,0,0.66667,-256.38,-333.867)"
       gradientUnits="userSpaceOnUse"
       xlink:href="#i"><stop
         stop-color="#ebc69a"
         offset="0"
         id="stop613" /><stop
         stop-color="#f4e0c8"
         stop-opacity="0"
         offset="1"
         id="stop615" /></linearGradient><linearGradient
       id="i"
       x1="408.57001"
       x2="408.57001"
       y1="512.79797"
       y2="504.698"
       gradientTransform="matrix(0.66667,0,0,-0.37037,-256.38,197.926)"
       gradientUnits="userSpaceOnUse"><stop
         stop-color="#ebc69a"
         offset="0"
         id="stop608" /><stop
         stop-color="#73ba25"
         stop-opacity="0"
         offset="1"
         id="stop610" /></linearGradient><linearGradient
       id="m"
       x1="18"
       x2="30"
       y1="18"
       y2="30"
       gradientUnits="userSpaceOnUse"
       gradientTransform="matrix(0.61871217,0,0,0.61871217,4.0441759,4.8825976)"><stop
         stop-color="#292c2f"
         offset="0"
         id="stop592" /><stop
         stop-opacity="0"
         offset="1"
         id="stop594" /></linearGradient><linearGradient
       id="l"
       x1="22"
       x2="22"
       y1="30"
       y2="8"
       gradientTransform="matrix(0,-0.61871217,-0.61871217,0,31.267512,32.105933)"
       gradientUnits="userSpaceOnUse"
       xlink:href="#k" /><linearGradient
       id="linearGradient2916"
       x2="0"
       y1="30"
       y2="8"
       gradientUnits="userSpaceOnUse"><stop
         stop-color="#cfd2d5"
         offset="0"
         id="stop2912" /><stop
         stop-color="#eff0f1"
         offset="1"
         id="stop2914" /></linearGradient><radialGradient
       id="SVGID_1_"
       cx="6.7430649"
       cy="817.38867"
       r="11"
       gradientTransform="translate(0,-810)"
       gradientUnits="userSpaceOnUse"
       fx="6.7430649"
       fy="817.38867"><stop
         stop-color="#64A5E1"
         offset=".321"
         id="stop6-2" /><stop
         stop-color="#508CC8"
         offset=".71"
         id="stop8-9" /><stop
         stop-color="#2C68A4"
         offset=".976"
         id="stop10-1" /><stop
         stop-color="#2864A0"
         offset="1"
         id="stop12" /></radialGradient><filter
       id="filter3888-7-2"
       inkscape:label="Drop Shadow"
       color-interpolation-filters="sRGB"
       x="-0.070615493"
       y="-0.053284489"
       width="1.1412309"
       height="1.1273832"><feFlood
         id="feFlood3890-5-7"
         flood-opacity="0.15"
         flood-color="rgb(0,0,0)"
         result="flood" /><feComposite
         id="feComposite3892-3-0"
         in2="SourceGraphic"
         in="flood"
         operator="in"
         result="composite1" /><feGaussianBlur
         id="feGaussianBlur3894-5-9"
         stdDeviation="1.6"
         result="blur" /><feOffset
         id="feOffset3896-6-3"
         dx="0"
         dy="1.5"
         result="offset" /><feComposite
         id="feComposite3898-2-6"
         in2="offset"
         in="SourceGraphic"
         operator="over"
         result="fbSourceGraphic" /><feColorMatrix
         result="fbSourceGraphicAlpha"
         in="fbSourceGraphic"
         values="0 0 0 -1 0 0 0 0 -1 0 0 0 0 -1 0 0 0 0 1 0"
         id="feColorMatrix3900-9-0" /><feFlood
         id="feFlood3902-1-6"
         flood-opacity="0.5"
         flood-color="rgb(0,0,0)"
         result="flood"
         in="fbSourceGraphic" /><feComposite
         id="feComposite3904-2-2"
         in2="fbSourceGraphic"
         in="flood"
         operator="in"
         result="composite1" /><feGaussianBlur
         id="feGaussianBlur3906-7-6"
         stdDeviation="1.6"
         result="blur" /><feOffset
         id="feOffset3908-0-1"
         dx="0"
         dy="1.5"
         result="offset" /><feComposite
         id="feComposite3910-9-8"
         in2="offset"
         in="fbSourceGraphic"
         operator="over"
         result="composite2" /></filter></defs><sodipodi:namedview
     id="namedview4"
     pagecolor="#ffffff"
     bordercolor="#000000"
     borderopacity="0.25"
     inkscape:showpageshadow="2"
     inkscape:pageopacity="0.0"
     inkscape:pagecheckerboard="0"
     inkscape:deskcolor="#d1d1d1"
     showgrid="false"
     inkscape:zoom="1"
     inkscape:cx="114.5"
     inkscape:cy="132.5"
     inkscape:window-width="1360"
     inkscape:window-height="694"
     inkscape:window-x="0"
     inkscape:window-y="0"
     inkscape:window-maximized="1"
     inkscape:current-layer="svg2" /><style
     type="text/css"
     id="style183">
	.st0{fill:#15E0ED;}
	.st1{fill:url(#SVGID_1_);}
</style><style
     type="text/css"
     id="style183-2">
	.st0{fill:#15E0ED;}
	.st1{fill:url(#SVGID_1_);}
</style><path
     d="m 134.19395,78.45383 h -7.61282 a 15.270352,24.093238 0 0 1 -4.44297,-0.99891 13.933594,21.984128 0 0 1 -1.59998,-0.93512 q -2.77418,-1.93403 -4.81714,-5.29313 a 15.04971,23.745111 0 0 1 -3.03653,-7.40156 17.220436,27.170037 0 0 1 -0.14622,-0.57206 q -1.13977,-4.61452 -1.13977,-9.97551 a 18.032901,28.451925 0 0 1 0.40212,-6.11153 15.176161,23.944623 0 0 1 0.73765,-3.79612 14.277246,22.526335 0 0 1 2.2748,-6.08235 13.24156,20.892251 0 0 1 0.90795,-1.55197 q 2.04296,-3.15552 4.81714,-4.88597 a 15.85185,25.010712 0 0 1 4.8348,-1.66937 18.699558,29.503764 0 0 1 1.20815,-0.0611 h 7.61282 a 17.987309,28.379993 0 0 1 3.83047,0.62229 15.216158,24.007733 0 0 1 2.38449,1.14209 14.294449,22.55348 0 0 1 4.18791,3.99224 13.547362,21.374739 0 0 1 0.65073,0.96159 14.056174,22.177531 0 0 1 3.05115,7.28891 16.090557,25.38734 0 0 1 0.0887,0.34541 15.939161,25.14847 0 0 1 1.03954,7.02289 19.33998,30.514209 0 0 1 0.0787,2.78297 17.859568,28.178446 0 0 1 -0.58881,7.3208 16.115502,25.426698 0 0 1 -0.55094,2.65471 q -1.13978,4.61452 -3.18277,7.97362 -2.043,3.3591 -4.83866,5.29313 a 14.719392,23.223942 0 0 1 -4.89927,1.86481 17.544302,27.681028 0 0 1 -1.25117,0.0692 z m -7.61282,-8.6183 h 7.61282 a 10.440303,16.472488 0 0 0 2.67436,-0.52592 9.2338664,14.568998 0 0 0 1.28257,-0.69557 q 1.80644,-1.22149 3.11825,-3.3591 a 9.4269825,14.873692 0 0 0 1.87609,-4.48016 10.939222,17.259672 0 0 0 0.16689,-0.64332 q 0.73117,-2.98587 0.73117,-6.44676 a 11.552547,18.227364 0 0 0 -0.34538,-4.51816 10.25665,16.182723 0 0 0 -0.38579,-1.89467 q -0.73118,-2.95193 -2.04298,-5.05562 -1.31181,-2.10367 -3.11825,-3.29124 a 9.8919235,15.607265 0 0 0 -3.12987,-1.14209 11.745663,18.532059 0 0 0 -0.82706,-0.0455 h -7.61282 a 10.331918,16.301479 0 0 0 -2.74535,0.5612 9.2454791,14.58732 0 0 0 -1.14707,0.62636 q -1.78495,1.18756 -3.07523,3.29124 a 9.4781644,14.954446 0 0 0 -1.87912,4.48151 10.935352,17.253565 0 0 0 -0.14237,0.54017 10.476862,16.53017 0 0 0 -0.67311,4.51002 12.755544,20.125426 0 0 0 -0.0581,1.93674 11.599429,18.301332 0 0 0 0.3944,4.82693 10.497507,16.562744 0 0 0 0.33677,1.61983 q 0.73117,2.98587 2.0215,5.12348 1.29028,2.13761 3.07521,3.3591 a 9.4966592,14.983626 0 0 0 3.30619,1.19774 11.120725,17.546043 0 0 0 0.58625,0.0238 z"
     id="0-6"
     style="font-size:12px;fill:#0595ff;fill-opacity:1;fill-rule:nonzero;stroke-width:0.135063mm;stroke-linecap:round" /><path
     d="m 188.55888,64.74598 h -12.559 v -8.34685 h 12.559 a 8.1753848,12.898948 0 0 0 1.83136,-0.3047 q 1.60512,-0.58156 2.6632,-2.27401 a 5.5070301,8.6888745 0 0 0 1.52299,-4.888 7.7349599,12.204055 0 0 0 0.0899,-1.89806 7.3599104,11.61231 0 0 0 -0.2172,-2.90172 5.2128401,8.224708 0 0 0 -1.39567,-3.88434 5.2954198,8.3550003 0 0 0 -2.43654,-2.12743 q -0.81547,-0.33524 -1.77933,-0.37731 a 10.106113,15.945211 0 0 0 -0.27869,-0.006 h -16.55894 v 40.71637 h -5.41932 V 29.11929 h 21.97826 q 2.70962,0 4.83862,1.25542 a 10.701375,16.884402 0 0 1 2.37417,1.93742 9.2635435,14.615822 0 0 1 1.21718,1.59133 9.4390255,14.892693 0 0 1 2.08215,4.9165 11.019652,17.386571 0 0 1 0.1544,0.61414 q 0.77416,3.25731 0.77416,7.32895 a 14.46047,22.815421 0 0 1 -0.2447,4.27861 11.879425,18.743104 0 0 1 -0.52946,3.0164 10.280736,16.220725 0 0 1 -1.79611,4.90158 9.7581612,15.396219 0 0 1 -0.44044,0.76479 9.8519231,15.544155 0 0 1 -2.93415,3.25323 11.664375,18.403802 0 0 1 -0.6572,0.44517 11.837275,18.676602 0 0 1 -2.73288,1.10477 15.43121,24.347035 0 0 1 -2.10574,0.21851 z"
     id="2-7"
     style="font-size:12px;fill:#0595ff;fill-opacity:1;fill-rule:nonzero;stroke-width:0.135063mm;stroke-linecap:round" /><path
     d="M 244.47218,78.45383 H 216.51552 V 29.11916 h 27.91363 v 8.61829 h -22.49436 v 32.09808 h 22.53739 z m -1.2043,-21.44396 h -17.33312 v -7.26109 h 17.33312 z"
     id="4-5"
     style="font-size:12px;fill:#0595ff;fill-opacity:1;fill-rule:nonzero;stroke-width:0.135063mm;stroke-linecap:round" /><path
     d="M 288.85872,77.23234 266.8805,42.35198 v 36.10185 h -5.20424 V 33.66582 a 4.8709084,7.685216 0 0 1 0.0933,-1.54858 q 0.17161,-1.31582 0.65934,-2.21769 a 2.4687873,3.8951999 0 0 1 1.71009,-1.36671 3.4842588,5.4973892 0 0 1 0.3329,-0.0244 q 0.60215,0 1.16128,0.40716 a 3.1371663,4.9497541 0 0 1 0.47956,0.44042 q 0.2271,0.24972 0.46021,0.5836 a 6.2270211,9.8248615 0 0 1 0.22151,0.33319 L 288.8587,64.81387 V 28.71203 h 5.20424 V 73.9072 a 5.1371419,8.1052732 0 0 1 -0.0809,1.48615 q -0.10109,0.85437 -0.32817,1.52687 a 2.6438388,4.1713927 0 0 1 -0.34365,0.78718 2.4502928,3.8660199 0 0 1 -1.78966,1.35043 3.2438316,5.1180484 0 0 1 -0.16731,0.007 3.1173815,4.9185383 0 0 1 -1.67568,-0.78922 4.6420941,7.3241973 0 0 1 -0.81891,-1.04302 z"
     id="6-3"
     style="font-size:12px;fill:#0595ff;fill-opacity:1;fill-rule:nonzero;stroke-width:0.135063mm;stroke-linecap:round" /><path
     d="m 335.48182,78.45383 h -23.5266 V 29.11916 h 22.88144 a 17.508604,27.624703 0 0 1 2.30707,0.23004 13.734457,21.669934 0 0 1 1.84342,0.58428 10.4674,16.515241 0 0 1 1.83654,1.08577 8.3581781,13.187355 0 0 1 1.36772,1.32328 q 1.33332,1.59473 2.06449,4.00378 a 7.3831361,11.648955 0 0 1 0.64085,3.42425 9.5426799,15.056237 0 0 1 0.0903,2.10639 11.118145,17.541972 0 0 1 -0.0658,1.96117 q -0.0688,0.96362 -0.20945,1.79967 a 6.4158363,10.12277 0 0 1 -0.0688,0.37866 6.8941098,10.87738 0 0 1 -0.43612,1.72502 5.4167084,8.5463672 0 0 1 -0.51011,1.29478 q -0.60214,1.25542 -1.39783,2.10368 a 6.1569145,9.7142485 0 0 1 -1.38192,1.11359 5.6683184,8.9433518 0 0 1 -0.27397,0.14183 q 2.15051,1.08577 3.52683,3.93591 a 6.5685226,10.363675 0 0 1 1.1987,4.26437 9.2355869,14.571712 0 0 1 0.17763,2.92886 11.242014,17.73741 0 0 1 -0.22279,3.60136 9.2007486,14.516745 0 0 1 -0.48687,2.54003 q -0.70967,2.74835 -2.02149,4.71631 a 8.6239815,13.606734 0 0 1 -2.50061,2.59296 10.264822,16.195617 0 0 1 -0.68214,0.42684 11.447173,18.061106 0 0 1 -2.63137,0.92765 14.256599,22.493761 0 0 1 -1.51912,0.12418 z m -0.21506,-21.44396 h -13.8923 v -7.26109 h 13.50522 a 10.035577,15.83392 0 0 0 1.21159,-0.10722 q 1.33676,-0.25719 2.12685,-1.13056 a 2.8717931,4.5310542 0 0 0 0.10237,-0.11943 2.6029792,4.1069252 0 0 0 0.84774,-1.86821 q 0.27053,-1.14277 0.27053,-2.74632 a 5.3620857,8.4601842 0 0 0 -0.0555,-1.26085 q -0.1071,-1.11495 -0.41763,-1.89466 a 3.0150172,4.7570299 0 0 0 -1.11483,-1.6402 3.7221054,5.8726585 0 0 0 -0.23999,-0.19205 q -0.82623,-0.60396 -1.95525,-0.82111 a 9.4480577,14.906944 0 0 0 -0.15226,-0.0271 q -1.22579,-0.20359 -2.73115,-0.20359 h -15.35466 v 32.16594 h 15.82777 a 17.451401,27.534449 0 0 0 1.66105,-0.11944 14.048862,22.165994 0 0 0 1.04859,-0.21987 8.1783955,12.903698 0 0 0 1.09375,-0.41463 5.9668092,9.4143048 0 0 0 1.05676,-0.70507 4.1053267,6.4772967 0 0 0 0.8658,-0.98534 3.460603,5.460066 0 0 0 0.53204,-1.01655 q 0.47397,-1.1706 0.49375,-2.90172 a 5.3405801,8.426254 0 0 0 7.9e-4,-0.152 4.9831653,7.862332 0 0 0 -0.14193,-1.93471 3.3870557,5.3440244 0 0 0 -1.06235,-2.7816 3.8537167,6.080312 0 0 0 -1.34751,-1.17942 q -0.92723,-0.48317 -2.17926,-0.48317 z"
     id="8-5"
     style="font-size:12px;fill:#f9f9f9;fill-rule:nonzero;stroke-width:0.135063mm;stroke-linecap:round" /><path
     d="m 384.85756,78.45383 h -7.61281 a 15.270352,24.093238 0 0 1 -4.44296,-0.99891 13.933594,21.984128 0 0 1 -1.59998,-0.93512 q -2.77416,-1.93403 -4.81714,-5.29313 a 15.04971,23.745111 0 0 1 -3.03653,-7.40156 17.220436,27.170037 0 0 1 -0.14623,-0.57206 q -1.13977,-4.61452 -1.13977,-9.97551 a 18.032901,28.451925 0 0 1 0.40214,-6.11153 15.176161,23.944623 0 0 1 0.73763,-3.79612 14.277246,22.526335 0 0 1 2.27481,-6.08235 13.24156,20.892251 0 0 1 0.90795,-1.55197 q 2.04298,-3.15552 4.81714,-4.88597 a 15.85185,25.010712 0 0 1 4.83478,-1.66937 18.699558,29.503764 0 0 1 1.20816,-0.0611 h 7.61281 a 17.987309,28.379993 0 0 1 3.83049,0.62229 15.216158,24.007733 0 0 1 2.38449,1.14209 14.294449,22.55348 0 0 1 4.18791,3.99224 13.547362,21.374739 0 0 1 0.65074,0.96159 14.056174,22.177531 0 0 1 3.05115,7.28891 16.090557,25.38734 0 0 1 0.0886,0.34541 15.939161,25.14847 0 0 1 1.03956,7.02289 19.33998,30.514209 0 0 1 0.0787,2.78297 17.859568,28.178446 0 0 1 -0.58881,7.3208 16.115502,25.426698 0 0 1 -0.55096,2.65471 q -1.13978,4.61452 -3.18277,7.97362 -2.04298,3.3591 -4.83864,5.29313 a 14.719392,23.223942 0 0 1 -4.8993,1.86481 17.544302,27.681028 0 0 1 -1.25117,0.0692 z m -7.61281,-8.6183 h 7.61281 a 10.440303,16.472488 0 0 0 2.67438,-0.52592 9.2338664,14.568998 0 0 0 1.28256,-0.69557 q 1.80643,-1.22149 3.11824,-3.3591 a 9.4269825,14.873692 0 0 0 1.87611,-4.48016 10.939222,17.259672 0 0 0 0.16688,-0.64332 q 0.73117,-2.98587 0.73117,-6.44676 a 11.552547,18.227364 0 0 0 -0.34537,-4.51816 10.25665,16.182723 0 0 0 -0.3858,-1.89467 q -0.73117,-2.95193 -2.04299,-5.05562 -1.31181,-2.10367 -3.11824,-3.29124 a 9.8919235,15.607265 0 0 0 -3.12985,-1.14209 11.745663,18.532059 0 0 0 -0.82709,-0.0455 h -7.61281 a 10.331918,16.301479 0 0 0 -2.74534,0.5612 9.2454791,14.58732 0 0 0 -1.14709,0.62636 q -1.78492,1.18756 -3.07523,3.29124 a 9.4781644,14.954446 0 0 0 -1.87912,4.48151 10.935352,17.253565 0 0 0 -0.14236,0.54017 10.476862,16.53017 0 0 0 -0.67311,4.51002 12.755544,20.125426 0 0 0 -0.0581,1.93674 11.599429,18.301332 0 0 0 0.39441,4.82693 10.497507,16.562744 0 0 0 0.33676,1.61983 q 0.73118,2.98587 2.02149,5.12348 1.2903,2.13761 3.07523,3.3591 a 9.4966592,14.983626 0 0 0 3.30619,1.19774 11.120725,17.546043 0 0 0 0.58623,0.0238 z"
     id="10-6"
     style="font-size:12px;fill:#f9f9f9;fill-rule:nonzero;stroke-width:0.135063mm;stroke-linecap:round" /><path
     d="m 440.68484,78.45383 h -23.44057 v -8.6183 h 23.44057 a 6.8928196,10.875344 0 0 0 1.32729,-0.18865 q 0.76387,-0.23683 1.35784,-0.77021 a 3.5784512,5.6460041 0 0 0 0.69117,-0.80551 3.7195249,5.868587 0 0 0 1.14149,-3.62851 5.1982167,8.2016353 0 0 0 0.0413,-1.05387 5.5018686,8.6807313 0 0 0 -0.11526,-1.83767 q -0.16086,-1.17059 -0.54537,-2.03989 a 3.052436,4.8160688 0 0 0 -0.52214,-0.90662 3.8692004,6.104742 0 0 0 -1.37632,-1.1672 q -0.56731,-0.28026 -1.25117,-0.37663 a 8.420973,13.286432 0 0 0 -0.74881,-0.0509 h -14.36542 a 12.477698,19.687045 0 0 1 -2.3075,-0.3237 10.098372,15.932996 0 0 1 -1.67095,-0.72814 9.2639737,14.6165 0 0 1 -1.92212,-1.53569 7.8700121,12.417137 0 0 1 -1.08859,-1.38232 q -1.22579,-1.86617 -1.89245,-4.44487 -0.66666,-2.5787 -0.66666,-5.63243 0,-2.98587 0.62365,-5.53064 0.62364,-2.54478 1.84944,-4.37701 a 8.2140938,12.960022 0 0 1 1.95997,-2.15051 10.220091,16.125042 0 0 1 1.07225,-0.73357 10.50697,16.577672 0 0 1 2.19567,-0.85029 14.035959,22.145637 0 0 1 1.93331,-0.20155 h 22.45134 v 8.6183 h -22.45134 q -1.45503,0 -2.40169,0.94326 a 3.144908,4.9619689 0 0 0 -0.523,0.65146 3.3147984,5.2300184 0 0 0 -0.89892,2.55835 q -0.12904,0.83536 -0.13291,1.82274 a 6.2734724,9.8981511 0 0 0 -3.9e-4,0.0638 4.9608001,7.8270447 0 0 0 0.12344,1.79762 q 0.20989,1.40676 0.77935,2.37377 a 3.127704,4.9348247 0 0 0 0.15096,0.23955 3.5225379,5.5577853 0 0 0 1.6116,1.3416 q 0.57117,0.21919 1.24858,0.21919 h 14.32241 a 16.27378,25.676426 0 0 1 2.75954,0.34473 q 2.78749,0.75801 4.48769,3.18402 2.15825,3.07952 2.43308,8.94811 a 15.255299,24.069486 0 0 1 0.04,1.77387 11.395991,17.980351 0 0 1 -0.24687,3.80495 9.8106336,15.479009 0 0 1 -0.35527,1.96321 q -0.60214,2.64656 -1.80643,4.58059 -1.20428,1.93403 -3.03222,3.0198 a 10.281596,16.222082 0 0 1 -2.05073,0.83129 q -0.91095,0.22259 -1.93417,0.25041 a 17.068611,26.930489 0 0 1 -0.29465,0.004 z"
     id="12"
     style="font-size:12px;fill:#f9f9f9;fill-rule:nonzero;stroke-width:0.135063mm;stroke-linecap:round" /><path
     d="M 494.79171,77.23234 472.81348,42.35198 v 36.10185 h -5.20424 V 33.66582 a 4.8709084,7.685216 0 0 1 0.0933,-1.54858 q 0.17162,-1.31582 0.65935,-2.21769 a 2.4687873,3.8951999 0 0 1 1.71009,-1.36671 3.4842588,5.4973892 0 0 1 0.3329,-0.0244 q 0.60214,0 1.16127,0.40716 a 3.1371663,4.9497541 0 0 1 0.47957,0.44042 q 0.22709,0.24972 0.46021,0.5836 a 6.2270211,9.8248615 0 0 1 0.2215,0.33319 l 22.06426,34.54107 V 28.71203 h 5.20424 V 73.9072 a 5.1371419,8.1052732 0 0 1 -0.0809,1.48615 q -0.10107,0.85437 -0.32819,1.52687 a 2.6438388,4.1713927 0 0 1 -0.34365,0.78718 2.4502928,3.8660199 0 0 1 -1.78964,1.35043 3.2438316,5.1180484 0 0 1 -0.16732,0.007 3.1173815,4.9185383 0 0 1 -1.67568,-0.78922 4.6420941,7.3241973 0 0 1 -0.81892,-1.04302 z"
     id="14"
     style="font-size:12px;fill:#f9f9f9;fill-rule:nonzero;stroke-width:0.135063mm;stroke-linecap:round" /><path
     d="m 523.69461,78.45383 h -5.46233 V 29.11916 h 5.46233 z"
     id="16"
     style="font-size:12px;fill:#f9f9f9;fill-rule:nonzero;stroke-width:0.135063mm;stroke-linecap:round" /><path
     d="m 581.24228,78.45383 h -6.58057 L 569.9736,66.03534 h -14.79554 l 2.58063,-6.98965 h 9.59127 L 560.38232,40.5876 546.18893,78.45383 h -6.23649 l 17.97829,-47.231 q 0.47311,-1.28935 1.11828,-2.03582 a 2.433949,3.8402328 0 0 1 1.16556,-0.7105 3.1539402,4.9762198 0 0 1 0.38281,-0.036 2.8597504,4.512053 0 0 1 0.7492,0.14793 2.2429834,3.5389317 0 0 1 0.77765,0.59853 3.8021045,5.9988793 0 0 1 0.67096,1.04438 5.099293,8.0455557 0 0 1 0.42579,0.99144 z"
     id="18"
     style="font-size:12px;fill:#f9f9f9;fill-rule:nonzero;stroke-width:0.135063mm;stroke-linecap:round" /><path
     d="M 624.29553,77.23234 602.3173,42.35198 v 36.10185 h -5.20424 V 33.66582 a 4.8709084,7.685216 0 0 1 0.0934,-1.54858 q 0.17162,-1.31582 0.65936,-2.21769 a 2.4687873,3.8951999 0 0 1 1.71007,-1.36671 3.4842588,5.4973892 0 0 1 0.33293,-0.0244 q 0.60212,0 1.16127,0.40716 a 3.1371663,4.9497541 0 0 1 0.47956,0.44042 q 0.22707,0.24972 0.46021,0.5836 a 6.2270211,9.8248615 0 0 1 0.2215,0.33319 l 22.06421,34.54106 V 28.71203 h 5.20422 V 73.9072 a 5.1371419,8.1052732 0 0 1 -0.081,1.48615 q -0.10119,0.85437 -0.32814,1.52687 a 2.6438388,4.1713927 0 0 1 -0.34366,0.78718 2.4502928,3.8660199 0 0 1 -1.78967,1.35043 3.2438316,5.1180484 0 0 1 -0.16729,0.007 3.1173815,4.9185383 0 0 1 -1.67568,-0.78922 4.6420941,7.3241973 0 0 1 -0.81891,-1.04302 z"
     id="20"
     style="font-size:12px;fill:#f9f9f9;fill-rule:nonzero;stroke-width:0.135063mm;stroke-linecap:round" /><path
     d="m 686.61733,78.45383 h -6.58053 l -4.68816,-12.41849 h -14.79549 l 2.58058,-6.98965 h 9.59133 l -6.9677,-18.45809 -14.19334,37.86623 h -6.2365 l 17.97825,-47.231 q 0.47315,-1.28935 1.11829,-2.03582 a 2.433949,3.8402328 0 0 1 1.16556,-0.7105 3.1539402,4.9762198 0 0 1 0.38281,-0.036 2.8597504,4.512053 0 0 1 0.74923,0.14793 2.2429834,3.5389317 0 0 1 0.77761,0.59853 3.8021045,5.9988793 0 0 1 0.67096,1.04438 5.099293,8.0455557 0 0 1 0.42581,0.99144 z"
     id="22"
     style="font-size:12px;fill:#f9f9f9;fill-rule:nonzero;stroke-width:0.135063mm;stroke-linecap:round" /><g
     id="g24"
     transform="matrix(0.85449843,0,0,0.92774904,88.148497,353.89923)"
     style="font-size:12px;fill:#00bfff;fill-rule:nonzero;stroke-width:0.25mm;stroke-linecap:round" /><rect
     id="rect4575"
     style="font-size:12px;opacity:0.922371;fill:#f2f2f2;fill-rule:nonzero;stroke-width:0.892283mm;stroke-linecap:round"
     height="100"
     rx="49.936337"
     y="-4.2812193e-05"
     x="-2.9415292e-05"
     width="99.872635" /><path
     class="cls-1"
     d="m 50.247862,88.7292 a 7.8666578,10.655951 13.207433 0 0 1.425115,-0.34179 14.13437,19.146014 13.20743 0 0 4.772468,-2.750485 18.643664,25.254176 13.207429 0 0 4.159881,-4.45966 25.050774,33.933063 13.207431 0 0 4.056085,-6.783194 30.517041,41.337515 13.207435 0 0 2.83752,-7.2261 c 0.320633,-1.013982 0.61944,-2.037035 0.870599,-3.073833 0.122984,-0.507721 0.228884,-1.020397 0.328097,-1.533126 0.0993,-0.51299 0.181119,-1.028783 0.269538,-1.543464 a 1.8756904,2.5407569 13.207429 0 0 0.04559,-0.309546 c 0.06415,-0.825582 0.178972,-1.651863 0.20138,-2.477531 a 13.738289,18.609494 13.20743 0 0 -0.05229,-2.442434 11.498643,15.575734 13.207426 0 0 -1.172771,-5.011618 15.770977,21.362914 13.207432 0 0 -2.050298,-3.68324 27.660581,37.468238 13.207438 0 0 -3.8799,-4.251857 c -0.972103,-0.873517 -1.979698,-1.681434 -3.013885,-2.437542 -0.620234,-0.45335 -1.253427,-0.880169 -1.88304,-1.314041 -1.639972,-1.130064 -3.268383,-2.283587 -4.875749,-3.481277 -1.273478,-0.948838 -2.525982,-1.936853 -3.74911,-2.98093 -1.161801,-0.991771 -2.28954,-2.041404 -3.361608,-3.183568 a 28.801447,39.013617 13.207428 0 1 -2.814772,-3.480782 17.700534,23.97664 13.207427 0 1 -2.308461,-4.440396 12.559398,17.012603 13.207429 0 1 -1.155815,-5.901556 13.545542,18.348405 13.207428 0 1 0.02756,-2.090556 c 0.0355,-0.662508 0.111363,-1.321592 0.196764,-1.982741 a 13.514873,18.306862 13.207427 0 1 0.474084,-2.4604955 c 0.0065,-0.026432 -0.0033,-0.057676 -0.0081,-0.085651 a 0.37025944,0.50154296 13.207432 0 0 -0.0743,0.083309 1.2604193,1.7073281 13.207431 0 0 -0.111772,0.2155405 20.762207,28.123898 13.207423 0 0 -1.76637,4.85648 c -0.189634,0.66369 -0.364018,1.332017 -0.506643,2.005514 a 15.902265,21.540757 13.207431 0 0 -0.532277,3.273797 16.355894,22.155229 13.207428 0 0 0.855807,9.887077 21.699086,29.39296 13.207439 0 0 1.828371,4.728054 30.88525,41.836286 13.207437 0 0 2.599904,4.370714 44.406022,60.151121 13.207434 0 0 4.793823,5.6838 74.814096,101.34105 13.207432 0 0 6.976195,6.019082 c 1.166093,0.880114 2.352777,1.717538 3.54676,2.539925 a 0.97395887,1.3192971 13.207427 0 1 0.137997,0.135374 0.05510772,0.07464736 13.207426 0 1 0.006,0.05788 c -0.0012,0.0091 -0.02285,0.02433 -0.03262,0.02263 -0.257988,-0.04606 -0.518541,-0.08146 -0.772675,-0.143806 -0.914529,-0.224444 -1.821615,-0.475945 -2.711131,-0.796154 a 37.240029,50.444277 13.207418 0 1 -9.196111,-5.478604 34.202547,46.329794 13.207431 0 1 -3.880025,-3.99099 25.893241,35.074252 13.207443 0 1 -2.872563,-4.287364 16.183837,21.922165 13.207429 0 1 -1.659349,-3.976005 c -0.138773,-0.475663 -0.249773,-0.969303 -0.374047,-1.454397 -0.02383,-0.09308 -0.049,-0.185518 -0.07658,-0.276104 -0.0031,-0.0087 -0.02839,-0.0071 -0.04274,-0.0026 -0.01145,0.0037 -0.03059,0.01893 -0.0317,0.02918 -0.04392,0.412776 -0.08912,0.825578 -0.12829,1.238309 -0.01447,0.144236 -0.0063,0.287993 -0.0187,0.432303 -0.05974,0.702986 -0.0741,1.400987 -0.09805,2.100547 -0.03384,0.988667 -0.02528,1.96872 0.01176,2.943371 a 20.133493,27.272258 13.207426 0 0 0.691867,5.691039 16.344093,22.139244 13.20743 0 0 1.656098,4.850117 17.153095,23.235095 13.20743 0 0 3.090641,4.476234 24.926685,33.764978 13.207442 0 0 3.411601,2.895342 51.995178,70.431179 13.207441 0 0 4.690019,2.741256 q 2.150628,1.103789 4.302662,2.20409 c 0.459379,0.235567 0.919968,0.468411 1.37582,0.712933 a 11.83892,16.036662 13.207433 0 1 2.698651,2.095596 8.9989871,12.189771 13.207428 0 1 2.361437,4.549888 8.7317299,11.827752 13.207427 0 1 0.396077,3.807541 8.1888232,11.092346 13.20743 0 1 -0.21792,2.352599 11.686247,15.829858 13.207433 0 1 -0.813491,3.151706 11.309924,15.320101 13.207432 0 1 -3.715942,6.373909 10.93256,14.808935 13.207429 0 1 -3.660885,2.897255 c -0.38044,0.198918 -0.770581,0.352581 -1.156938,0.523245 a 0.83672289,1.1334009 13.207434 0 0 -0.318298,0.187663 z"
     id="path5388-2-8-5-3-3"
     style="font-size:12px;clip-rule:evenodd;display:inline;mix-blend-mode:normal;fill:#0595ff;fill-opacity:1;fill-rule:evenodd;stroke:#ffffff;stroke-width:0.53274;stroke-linecap:round;stroke-linejoin:round;stroke-miterlimit:10;stroke-opacity:0;enable-background:new" /><path
     class="cls-1"
     d="m 45.899727,19.305508 a 8.6636565,15.246348 1.5465208 0 0 0.436223,2.415782 9.5644876,16.831639 1.5465137 0 0 0.578305,1.982739 9.2074098,16.203249 1.5465161 0 0 2.317184,4.367329 14.109803,24.830507 1.5465185 0 0 2.528797,2.543003 28.680321,50.471789 1.5465179 0 0 3.595346,2.255552 c 1.183091,0.610299 2.380701,1.134692 3.574362,1.68266 1.042689,0.478651 2.085924,0.955647 3.121997,1.472189 a 30.747823,54.110187 1.5465094 0 1 3.253398,1.952528 17.576053,30.930434 1.5465192 0 1 2.784371,2.50658 11.692649,20.576786 1.546522 0 1 2.281408,3.392414 9.6808328,17.036381 1.5465188 0 1 1.396903,3.609719 q 0.112425,0.399629 0.222764,0.801176 c 0.01555,0.0562 0.03528,0.07034 0.06738,0.02905 a 0.06423844,0.11304714 1.546518 0 0 0.02682,-0.05529 c 0.01682,-0.121807 0.0343,-0.243888 0.04555,-0.367253 a 8.5482433,15.043244 1.5465182 0 1 1.410244,-6.095926 9.4789564,16.681119 1.5465188 0 1 1.777543,-3.556702 6.9203336,12.17844 1.5465233 0 1 1.899672,-2.127531 3.8874444,6.8411453 1.5465172 0 1 2.101839,-0.584746 3.424024,6.025617 1.5465195 0 1 0.818941,0.387186 0.1012849,0.17824172 1.5465161 0 0 0.142468,-0.09868 1.559153,2.7438059 1.5465184 0 0 0.110733,-1.25877 1.0704768,1.8838308 1.5465185 0 0 -0.455177,-1.364977 2.2356576,3.9343223 1.5465311 0 0 -0.610329,-0.507216 5.6472993,9.9381477 1.5465229 0 0 -1.302461,-0.366468 14.399653,25.340587 1.5465201 0 0 -2.0987,0.08647 c -0.327944,0.05201 -0.655135,0.125954 -0.982838,0.185913 -0.08544,0.01556 -0.171439,0.01656 -0.257187,0.02331 a 0.18640113,0.32802973 1.5465171 0 1 -0.146105,-0.125096 3.0164285,5.3083274 1.5465183 0 1 -0.411891,-1.118491 0.61965587,1.0904738 1.5465171 0 1 -0.0451,-0.286369 0.21437234,0.37725358 1.5465177 0 1 0.179657,-0.446314 0.93302634,1.6419446 1.5465213 0 1 0.212269,-0.01477 1.8525476,3.2601234 1.5465175 0 1 0.532144,0.248162 8.7458592,15.391009 1.5465187 0 0 1.2432,0.753027 2.4047339,4.2318636 1.5465107 0 0 0.67635,0.135114 0.84630087,1.4893248 1.546517 0 0 0.168069,-0.05684 0.16199994,0.28508838 1.546517 0 0 0.09742,-0.305592 2.8404321,4.9986085 1.5465139 0 0 -0.301625,-1.145028 3.5001035,6.1595009 1.5465165 0 0 -2.312257,-2.867249 5.3245154,9.3701088 1.5465221 0 0 -1.533867,-0.124361 8.5166381,14.987627 1.5465177 0 0 -1.483749,0.454578 9.2189791,16.223611 1.5465187 0 0 -1.04102,0.505039 c -0.563969,0.393398 -1.141292,0.716393 -1.699464,1.143854 -0.517079,0.395932 -1.031757,0.801454 -1.539588,1.231863 -0.638141,0.54084 -1.266072,1.121563 -1.894567,1.698615 -0.448868,0.412124 -0.891333,0.846865 -1.3369,1.270712 a 0.25733908,0.45286671 1.5465292 0 1 -0.245452,0.06177 12.649255,22.260226 1.5465193 0 0 -2.419411,-1.383266 C 60.186918,31.714538 58.98539,31.21558 57.788965,30.684913 56.192988,29.977001 54.612341,29.185326 53.067809,28.200172 A 24.842827,43.718545 1.5465206 0 1 50.26743,26.075791 14.292939,25.152792 1.5465162 0 1 48.090876,23.65675 8.0854844,14.228878 1.5465188 0 1 45.998669,19.436104 0.32161987,0.56598844 1.5465123 0 0 45.952421,19.319206 c -0.0075,-0.01417 -0.02725,-0.0078 -0.05359,-0.01308 z"
     id="path5390-7-6-7-5"
     style="font-size:12px;clip-rule:evenodd;display:inline;mix-blend-mode:normal;fill:#0595ff;fill-opacity:1;fill-rule:evenodd;stroke:#ffffff;stroke-width:0.561787;stroke-linecap:round;stroke-linejoin:round;stroke-miterlimit:10;stroke-opacity:0;enable-background:new" /><path
     class="cls-1"
     d="m 25.226017,58.571492 a 0.15875164,0.28393613 6.0377001 0 0 0.0078,0.233304 c 0.06011,0.207438 0.117748,0.417693 0.180971,0.621736 a 22.279793,39.848654 6.0377039 0 0 1.83928,4.928893 15.037123,26.894731 6.0376993 0 0 3.176112,5.030647 11.908937,21.299797 6.0376985 0 0 3.558234,2.425521 13.886398,24.836595 6.0376996 0 0 1.389193,0.311929 c 0.458711,0.06805 0.925085,0.0167 1.386349,0.03819 a 5.6746857,10.149491 6.0377032 0 0 0.628974,-0.07814 c 0.128288,-0.01904 0.256926,-0.05179 0.385218,-0.06961 a 12.457547,22.281017 6.0376999 0 0 1.364603,-0.357252 c 0.501636,-0.164648 0.999103,-0.382835 1.496359,-0.61206 a 0.28247135,0.50521565 6.0377018 0 1 0.0906,0.01194 0.37111808,0.66376534 6.0377009 0 1 -0.0533,0.164928 6.4252079,11.491841 6.0376981 0 1 -2.521068,3.130711 8.0320491,14.365767 6.0376988 0 1 -1.891468,1.00564 c -0.339536,0.11485 -0.676785,0.158132 -1.015098,0.23306 -0.04669,0.01046 0.01367,-0.02182 -0.01656,0.0472 a 0.03188233,0.05702331 6.0377045 0 0 0.003,0.053 0.16492086,0.29497013 6.0376997 0 0 0.04925,0.07061 10.124774,18.108724 6.0376976 0 0 2.094374,0.898752 8.5453604,15.283852 6.0377 0 0 1.593516,0.03306 6.8899923,12.323135 6.0377024 0 0 3.372697,-1.861916 6.785789,12.136761 6.0376991 0 0 2.557363,-4.11115 7.160345,12.806675 6.0376993 0 0 1.301037,-4.85937 4.7853353,8.5588377 6.0377017 0 0 0.163358,-1.474764 c 0.0209,-0.389895 0.0555,-0.780611 0.07953,-1.170826 a 0.37506453,0.67082374 6.0376945 0 0 -0.01923,-0.233484 c -0.0059,-0.03136 -0.03196,-0.07412 -0.04693,-0.06849 a 1.9958414,3.5696735 6.0376988 0 0 -0.242218,0.114532 q -0.976745,0.578001 -1.965041,1.04401 c -0.612302,0.288851 -1.225515,0.564634 -1.843439,0.768089 -0.442578,0.145744 -0.884711,0.311999 -1.327683,0.439676 -0.384785,0.110938 -0.770446,0.184201 -1.155749,0.26723 -0.26855,0.05783 -0.537325,0.114729 -0.805555,0.152967 a 13.369003,23.911206 6.0376992 0 1 -1.361471,0.112873 c -0.150224,-0.0053 -0.300841,-0.0092 -0.452085,0.0038 a 12.181149,21.786664 6.0376999 0 1 -1.31604,-0.0492 20.457789,36.589896 6.0376998 0 1 -6.17418,-2.454789 21.177766,37.877618 6.037692 0 1 -3.905371,-3.96292 C 25.682958,59.152844 25.539613,58.945017 25.391951,58.746408 A 0.35667988,0.63794182 6.0376995 0 0 25.221297,58.58237 Z"
     id="path5392-0-2-5-6"
     style="font-size:12px;clip-rule:evenodd;display:inline;mix-blend-mode:normal;fill:#0595ff;fill-opacity:1;fill-rule:evenodd;stroke:#ffffff;stroke-width:0.457346;stroke-linecap:round;stroke-linejoin:round;stroke-miterlimit:10;stroke-opacity:0;enable-background:new" /><path
     class="cls-1"
     d="m 23.448274,80.203058 a 0.32903204,0.42577411 64.730851 0 0 0.04211,0.287569 17.937046,23.210902 64.730844 0 0 1.713787,2.284232 18.35748,23.754951 64.730849 0 0 2.366034,2.104609 12.75951,16.511064 64.73085 0 0 1.468084,0.958249 c 0.531081,0.274592 1.051671,0.562266 1.596188,0.82007 a 16.318533,21.116513 64.730841 0 0 7.836119,1.813662 12.504699,16.181334 64.73085 0 0 5.921488,-0.773413 10.94083,14.157656 64.730843 0 0 4.513313,-2.01738 9.4150073,12.183211 64.730836 0 0 1.338144,-0.980724 11.235807,14.539362 64.730851 0 0 3.335937,-3.560369 10.561007,13.666157 64.730851 0 0 1.767669,-3.717405 12.774443,16.530387 64.730855 0 0 0.403478,-4.393215 15.492197,20.047217 64.730845 0 0 -1.591506,-4.880962 17.698534,22.902262 64.730843 0 0 -2.565877,-3.211373 1.4630299,1.8931904 64.730846 0 0 -0.203562,-0.142054 0.08417411,0.10892299 64.730858 0 0 -0.06578,-0.0084 c -0.02173,0.03231 -0.05735,0.07515 -0.05149,0.09962 0.05472,0.190206 0.116441,0.377922 0.179569,0.565013 a 18.150872,23.487597 64.730841 0 1 0.782027,4.168803 12.813657,16.581132 64.730839 0 1 -0.677419,4.537263 10.536357,13.634259 64.730851 0 1 -1.441078,2.852003 9.2035105,11.909529 64.730846 0 1 -1.232371,1.580443 10.158431,13.145215 64.730843 0 1 -3.609561,2.896787 11.481738,14.857602 64.730843 0 1 -6.386527,2.341165 14.403643,18.638605 64.730842 0 1 -7.02632,0.01895 17.823663,23.064181 64.730853 0 1 -2.701539,-0.659297 18.568154,24.027568 64.730849 0 1 -3.106198,-1.337848 20.764999,26.87033 64.730853 0 1 -2.604806,-1.646036 z"
     id="path5396-93-9-9-2"
     style="font-size:12px;clip-rule:evenodd;display:inline;mix-blend-mode:normal;fill:#0595ff;fill-opacity:1;fill-rule:evenodd;stroke:#ffffff;stroke-width:0.664023;stroke-linecap:round;stroke-linejoin:round;stroke-miterlimit:10;stroke-opacity:0;enable-background:new" /><style
     type="text/css"
     id="style183-9">
	.st0{fill:#15E0ED;}
	.st1{fill:url(#SVGID_1_);}
</style><style
     type="text/css"
     id="style183-2-1">
	.st0{fill:#15E0ED;}
	.st1{fill:url(#SVGID_1_);}
</style><style
     type="text/css"
     id="current-color-scheme-0">
        .ColorScheme-NegativeText {
            color:#da4453;
        }
    </style><style
     type="text/css"
     id="style183-7">
	.st0{fill:#15E0ED;}
	.st1{fill:url(#SVGID_1_);}
</style><style
     type="text/css"
     id="style183-2-9">
	.st0{fill:#15E0ED;}
	.st1{fill:url(#SVGID_1_);}
</style></svg>
