<?xml version="1.0" encoding="UTF-8" standalone="no"?>
<!-- Created with Inkscape (http://www.inkscape.org/) -->

<svg
   version="1.1"
   id="svg2"
   width="1791.6692"
   height="418.50131"
   viewBox="0 0 1791.6691 418.50133"
   sodipodi:docname="vendor-logo.svg"
   xml:space="preserve"
   inkscape:export-filename="mini-logotype-openbosniana.svg"
   inkscape:export-xdpi="26.780001"
   inkscape:export-ydpi="26.780001"
   inkscape:version="1.2.2 (b0a8486541, 2022-12-01)"
   xmlns:inkscape="http://www.inkscape.org/namespaces/inkscape"
   xmlns:sodipodi="http://sodipodi.sourceforge.net/DTD/sodipodi-0.dtd"
   xmlns="http://www.w3.org/2000/svg"
   xmlns:svg="http://www.w3.org/2000/svg"><defs
     id="defs6"><linearGradient
       id="linearGradient8856"
       inkscape:swatch="solid"><stop
         style="stop-color:#000000;stop-opacity:1;"
         offset="0"
         id="stop8854" /></linearGradient><linearGradient
       id="h-6"
       gradientUnits="userSpaceOnUse"
       x1="25.636999"
       x2="57.998001"
       y1="40.675999"
       y2="40.675999"
       gradientTransform="matrix(3.3400036,0,0,3.3400036,-1.0227687,4.5486979)"><stop
         offset="0"
         stop-color="#292c2f"
         id="stop9-7" /><stop
         offset="1"
         stop-color="#292c2f"
         stop-opacity="0"
         id="stop11-5" /></linearGradient><linearGradient
       x1="0.71004629"
       y1="1"
       x2="0"
       y2="1"
       id="linearGradient-1"><stop
         stop-color="#394A9F"
         offset="0%"
         id="stop5195" /><stop
         stop-color="#6176B9"
         offset="100%"
         id="stop5197" /></linearGradient></defs><sodipodi:namedview
     id="namedview4"
     pagecolor="#ffffff"
     bordercolor="#000000"
     borderopacity="0.25"
     inkscape:showpageshadow="2"
     inkscape:pageopacity="0.0"
     inkscape:pagecheckerboard="0"
     inkscape:deskcolor="#d1d1d1"
     showgrid="false"
     inkscape:zoom="0.15018079"
     inkscape:cx="1095.3465"
     inkscape:cy="296.30953"
     inkscape:window-width="1366"
     inkscape:window-height="706"
     inkscape:window-x="0"
     inkscape:window-y="0"
     inkscape:window-maximized="1"
     inkscape:current-layer="svgGroup-3" /><style
     type="text/css"
     id="style183">
	.st0{fill:#15E0ED;}
	.st1{fill:url(#SVGID_1_);}
</style><style
     type="text/css"
     id="style183-2">
	.st0{fill:#15E0ED;}
	.st1{fill:url(#SVGID_1_);}
</style><g
     id="layer3-8-6-9"
     style="fill:#f2f2f2"
     transform="matrix(5.5792404,0,0,2.5402269,-2411.8853,-870.34349)"><g
       id="svgGroup-3"
       stroke-linecap="round"
       fill-rule="nonzero"
       font-size="12px"
       stroke="#00a6ff00"
       stroke-width="0.25mm"
       fill="#00bfff"
       style="fill:#00bfff;stroke-width:0.25mm"
       transform="matrix(0.05116303,0,0,0.20667251,444.11154,439.88444)"><rect
         style="fill:#0096bd;fill-opacity:1;stroke-width:0.463813mm"
         id="rect928"
         width="6276.6294"
         height="291.14658"
         x="-230.93204"
         y="-324.10034"
         transform="scale(1,-1)" /><rect
         style="fill:#f1f1f1;fill-opacity:1;stroke-width:0.61007mm"
         id="rect928-3"
         width="6277.7886"
         height="503.62378"
         x="-230.93204"
         y="-33.02356"
         transform="scale(1,-1)" /><path
         d="m 1008.4241,-83.769237 h -66.54906 a 133.48953,112.91966 0 0 1 -38.83938,-4.68166 121.80391,103.03473 0 0 1 -13.98663,-4.38269 q -24.25102,-9.064363 -42.11021,-24.807733 a 131.56075,111.28808 0 0 1 -26.54444,-34.68944 150.53666,127.33993 0 0 1 -1.27837,-2.68116 q -9.96358,-21.62726 -9.96358,-46.75301 a 157.63901,133.34789 0 0 1 3.51548,-28.64339 132.66611,112.22315 0 0 1 6.4481,-17.79159 124.80803,105.57593 0 0 1 19.88574,-28.50661 115.75433,97.917356 0 0 1 7.93707,-7.27375 q 17.85919,-14.78922 42.11021,-22.89943 a 138.57284,117.21967 0 0 1 42.26464,-7.824 163.46675,138.27761 0 0 1 10.56137,-0.28624 h 66.54906 a 157.24046,133.01073 0 0 1 33.4853,2.9165 133.01576,112.51893 0 0 1 20.8448,5.35275 124.95844,105.70316 0 0 1 36.6095,18.71077 118.42758,100.17868 0 0 1 5.6885,4.50672 122.87549,103.94118 0 0 1 26.6725,34.16148 140.65953,118.98481 0 0 1 0.7744,1.6189 139.3361,117.8653 0 0 1 9.0876,32.91476 169.06518,143.01334 0 0 1 0.6882,13.04313 156.12381,132.06614 0 0 1 -5.1476,34.31098 140.87764,119.1693 0 0 1 -4.8162,12.44203 q -9.9636,21.62723 -27.8229,37.3706 -17.8592,15.74337 -42.298,24.807733 a 128.67318,108.84549 0 0 1 -42.8286,8.73994 153.36781,129.73486 0 0 1 -10.9375,0.32441 z M 941.87504,-124.1613 h 66.54906 a 91.266471,77.202906 0 0 0 23.3788,-2.46486 80.720107,68.281665 0 0 0 11.2118,-3.25998 q 15.7914,-5.72488 27.2589,-15.74336 a 82.408278,69.709702 0 0 0 16.4005,-20.99754 95.62789,80.892258 0 0 0 1.459,-3.01509 q 6.3914,-13.99406 6.3914,-30.21452 a 100.98942,85.42762 0 0 0 -3.019,-21.17564 89.661017,75.844843 0 0 0 -3.3724,-8.87987 q -6.3918,-13.83506 -17.8595,-23.69454 -11.4675,-9.8595 -27.2589,-15.42532 a 86.472666,73.147797 0 0 0 -27.3605,-5.35275 102.67761,86.855652 0 0 0 -7.2301,-0.2131 h -66.54906 a 90.318988,76.401425 0 0 0 -23.99911,2.63026 80.821621,68.367538 0 0 0 -10.02745,2.93559 q -15.6033,5.56582 -26.88299,15.42532 a 82.855697,70.088178 0 0 0 -16.42685,21.00387 95.594052,80.863634 0 0 0 -1.24456,2.53165 91.586058,77.473247 0 0 0 -5.88394,21.13744 111.50573,94.323413 0 0 0 -0.50766,9.07709 101.39925,85.77429 0 0 0 3.44783,22.62274 91.766532,77.625909 0 0 0 2.94377,7.59178 q 6.39182,13.99411 17.67141,24.01263 11.27969,10.01848 26.88299,15.74336 a 83.017373,70.224938 0 0 0 28.90187,5.61353 97.214552,82.23442 0 0 0 5.12469,0.11126 z"
         id="0-6"
         style="fill:#005065;fill-opacity:1;stroke-width:0.864512mm" /><path
         d="m 1483.6685,-148.01488 h -109.7877 v -39.11986 h 109.7877 a 71.467128,60.454511 0 0 0 16.0097,-1.42804 q 14.0316,-2.72566 23.2803,-10.65777 a 48.141053,40.72283 0 0 0 13.3141,-22.90899 67.617047,57.197703 0 0 0 0.7855,-8.8958 64.338462,54.424328 0 0 0 -1.8985,-13.59969 45.569321,38.547383 0 0 0 -12.2011,-18.20507 46.291207,39.158037 0 0 0 -21.2992,-9.97079 q -7.1286,-1.57115 -15.5543,-1.76835 a 88.34507,74.731675 0 0 0 -2.4365,-0.0284 h -144.7542 v 190.828683 h -47.3739 V -314.98986 h 192.1281 q 23.687,0 42.2983,5.88389 a 93.548694,79.133454 0 0 1 20.7544,9.08027 80.979535,68.501117 0 0 1 10.6403,7.45822 82.513554,69.798753 0 0 1 18.2013,23.04257 96.33098,81.487009 0 0 1 1.3497,2.8783 q 6.7679,15.26632 6.7679,34.34918 a 126.40975,106.93081 0 0 1 -2.1394,20.0529 103.8469,87.844781 0 0 1 -4.6285,14.13721 89.871567,76.022949 0 0 1 -15.7011,22.97259 85.303361,72.158667 0 0 1 -3.8499,3.58439 86.123002,72.852011 0 0 1 -25.6496,15.24722 101.967,86.254543 0 0 1 -5.7451,2.08639 103.47845,87.533094 0 0 1 -23.89,5.17783 134.89572,114.10916 0 0 1 -18.4083,1.02409 z"
         id="2-7"
         style="fill:#005065;fill-opacity:1;stroke-width:0.864512mm" /><path
         d="M 1972.4483,-83.769237 H 1728.0585 V -314.98994 h 244.0139 v 40.39207 h -196.64 v 150.43657 h 197.0159 z M 1961.9206,-184.27231 H 1810.399 v -34.0311 h 151.5216 z"
         id="4-5"
         style="fill:#005065;fill-opacity:1;stroke-width:0.864512mm" /><path
         d="M 2360.4642,-89.494097 2168.3364,-252.97062 v 169.201383 h -45.4942 V -293.68072 a 42.58024,36.018904 0 0 1 0.8157,-7.25786 q 1.5004,-6.16694 5.7639,-10.3938 a 21.581509,18.255938 0 0 1 14.9492,-6.40547 30.458501,25.765046 0 0 1 2.91,-0.11441 q 5.2638,0 10.1516,1.90828 a 27.424306,23.198401 0 0 1 4.1925,2.06413 q 1.9853,1.1704 4.0229,2.7352 a 54.435028,46.04695 0 0 1 1.936,1.56161 l 192.8802,161.88632 v -169.20141 h 45.4941 v 211.81979 a 44.907585,37.98762 0 0 1 -0.7067,6.965253 q -0.8835,4.00422 -2.8687,7.15606 a 23.111765,19.550393 0 0 1 -3.0041,3.68937 21.419835,18.119179 0 0 1 -15.6449,6.329137 28.356751,23.987159 0 0 1 -1.4625,0.03177 27.251354,23.052098 0 0 1 -14.6482,-3.698887 40.580003,34.326888 0 0 1 -7.159,-4.88839 z"
         id="6-3"
         style="fill:#005065;fill-opacity:1;stroke-width:0.864512mm" /><path
         d="M 2768.0316,-83.769237 H 2562.368 V -314.98994 h 200.0239 a 153.05577,129.47087 0 0 1 20.1675,1.07818 120.0631,101.56218 0 0 1 16.1148,2.73841 91.50334,77.403276 0 0 1 16.0546,5.08876 73.065063,61.806216 0 0 1 11.9562,6.20191 q 11.6555,7.47416 18.0473,18.76482 a 64.541492,54.596072 0 0 1 5.6023,16.04871 83.419675,70.56525 0 0 1 0.7893,9.87219 97.191977,82.215336 0 0 1 -0.5752,9.19158 q -0.6013,4.51629 -1.8311,8.43464 a 56.085604,47.44318 0 0 1 -0.6016,1.77472 60.266548,50.979869 0 0 1 -3.812,8.08473 47.351484,40.054929 0 0 1 -4.4594,6.06839 q -5.2639,5.88387 -12.2195,9.85947 a 53.822177,45.528532 0 0 1 -12.0804,5.21914 49.550994,41.91551 0 0 1 -2.3951,0.66475 q 18.7994,5.08876 30.8308,18.44674 a 57.420352,48.572247 0 0 1 10.4786,19.98614 80.735146,68.294388 0 0 1 1.553,13.72693 98.274815,83.131317 0 0 1 -1.9478,16.87878 80.430597,68.036769 0 0 1 -4.2563,11.90453 q -6.2036,12.88094 -17.6711,22.10431 a 75.388645,63.771751 0 0 1 -21.8598,12.152613 89.732452,75.90527 0 0 1 -5.963,2.00052 100.06827,84.648403 0 0 1 -23.0027,4.34772 124.62756,105.42328 0 0 1 -13.2797,0.58202 z m -1.88,-100.503073 h -121.443 v -34.0311 h 118.0591 a 87.728457,74.210075 0 0 0 10.5915,-0.50252 q 11.6857,-1.20539 18.5925,-5.29867 a 25.104482,21.236048 0 0 0 0.8947,-0.55979 22.754581,19.248249 0 0 0 7.4107,-8.75584 q 2.365,-5.35592 2.365,-12.87138 a 46.873985,39.65101 0 0 0 -0.4851,-5.90932 q -0.9364,-5.22555 -3.6506,-8.87991 a 26.356511,22.295147 0 0 0 -9.7456,-7.6872 32.537697,27.523848 0 0 0 -2.0982,-0.90007 q -7.2226,-2.83064 -17.0919,-3.84841 a 82.592508,69.865541 0 0 0 -1.3312,-0.12717 q -10.7156,-0.95415 -23.875,-0.95415 h -134.2264 v 150.75462 h 138.3622 a 152.55568,129.04785 0 0 0 14.5206,-0.55976 122.81158,103.88712 0 0 0 9.1664,-1.03047 71.493447,60.476776 0 0 0 9.561,-1.94329 52.160326,44.122759 0 0 0 9.2382,-3.30452 35.887719,30.357654 0 0 0 7.5687,-4.61807 30.251711,25.590119 0 0 0 4.6507,-4.76432 q 4.1435,-5.48632 4.3165,-13.59973 a 46.685991,39.491987 0 0 0 0.014,-0.71241 43.561558,36.849009 0 0 0 -1.2408,-9.06756 29.608778,25.04626 0 0 0 -9.2866,-13.03676 33.688208,28.497079 0 0 0 -11.7795,-5.52767 q -8.1056,-2.26451 -19.0508,-2.26451 z"
         id="8-5"
         style="fill:#0096bd;fill-opacity:1;stroke-width:0.864512mm" /><path
         d="m 3199.6617,-83.769237 h -66.5491 a 133.48953,112.91966 0 0 1 -38.8395,-4.68166 121.80391,103.03473 0 0 1 -13.9866,-4.38269 q -24.2511,-9.064363 -42.1101,-24.807733 a 131.56075,111.28808 0 0 1 -26.5446,-34.68944 150.53666,127.33993 0 0 1 -1.2781,-2.68116 q -9.9637,-21.62726 -9.9637,-46.75301 a 157.63901,133.34789 0 0 1 3.5152,-28.64339 132.66611,112.22315 0 0 1 6.4485,-17.79159 124.80803,105.57593 0 0 1 19.8858,-28.50661 115.75433,97.917356 0 0 1 7.9369,-7.27375 q 17.859,-14.78922 42.1101,-22.89943 a 138.57284,117.21967 0 0 1 42.2643,-7.824 163.46675,138.27761 0 0 1 10.5618,-0.28624 h 66.5491 a 157.24046,133.01073 0 0 1 33.485,2.9165 133.01576,112.51893 0 0 1 20.8446,5.35275 124.95844,105.70316 0 0 1 36.6097,18.71077 118.42758,100.17868 0 0 1 5.6887,4.50672 122.87549,103.94118 0 0 1 26.6725,34.16148 140.65953,118.98481 0 0 1 0.7743,1.6189 139.3361,117.8653 0 0 1 9.0876,32.91476 169.06518,143.01334 0 0 1 0.6878,13.04313 156.12381,132.06614 0 0 1 -5.1472,34.31098 140.87764,119.1693 0 0 1 -4.8162,12.44203 q -9.9634,21.62723 -27.8228,37.3706 -17.8592,15.74337 -42.2984,24.807733 a 128.67318,108.84549 0 0 1 -42.8284,8.73994 153.36781,129.73486 0 0 1 -10.9372,0.32441 z m -66.5491,-40.392063 h 66.5491 a 91.266471,77.202906 0 0 0 23.3786,-2.46486 80.720107,68.281665 0 0 0 11.2118,-3.25998 q 15.7916,-5.72488 27.2589,-15.74336 a 82.408278,69.709702 0 0 0 16.4003,-20.99754 95.62789,80.892258 0 0 0 1.4591,-3.01509 q 6.3919,-13.99406 6.3919,-30.21452 a 100.98942,85.42762 0 0 0 -3.0193,-21.17564 89.661017,75.844843 0 0 0 -3.3726,-8.87987 q -6.3918,-13.83506 -17.8594,-23.69454 -11.4673,-9.8595 -27.2589,-15.42532 a 86.472666,73.147797 0 0 0 -27.3602,-5.35275 102.67761,86.855652 0 0 0 -7.2302,-0.2131 h -66.5491 a 90.318988,76.401425 0 0 0 -23.9994,2.63026 80.821621,68.367538 0 0 0 -10.0276,2.93559 q -15.6029,5.56582 -26.8827,15.42532 a 82.855697,70.088178 0 0 0 -16.4268,21.00387 95.594052,80.863634 0 0 0 -1.2445,2.53165 91.586058,77.473247 0 0 0 -5.8841,21.13744 111.50573,94.323413 0 0 0 -0.5076,9.07709 101.39925,85.77429 0 0 0 3.4477,22.62274 91.766532,77.625909 0 0 0 2.944,7.59178 q 6.3918,13.99411 17.6713,24.01263 11.2798,10.01848 26.8827,15.74336 a 83.017373,70.224938 0 0 0 28.9021,5.61353 97.214552,82.23442 0 0 0 5.1249,0.11126 z"
         id="10-6"
         style="fill:#0096bd;fill-opacity:1;stroke-width:0.864512mm" /><path
         d="M 3687.6895,-83.769237 H 3482.778 V -124.1613 h 204.9115 a 60.25527,50.970328 0 0 0 11.6028,-0.88415 q 6.6775,-1.11 11.8698,-3.60986 a 31.281907,26.46157 0 0 0 6.0422,-3.77521 32.515138,27.504768 0 0 0 9.9787,-17.00602 45.441483,38.439247 0 0 0 0.361,-4.93928 48.095933,40.684665 0 0 0 -1.0078,-8.61274 q -1.4061,-5.48632 -4.7675,-9.5605 a 26.683617,22.571847 0 0 0 -4.5644,-4.24912 33.823563,28.611573 0 0 0 -12.0317,-5.47044 q -4.9591,-1.31354 -10.9372,-1.76516 a 73.613999,62.270566 0 0 0 -6.5459,-0.23853 h -125.5788 a 109.07686,92.268827 0 0 1 -20.1717,-1.51709 88.277394,74.674426 0 0 1 -14.6069,-3.41265 80.983297,68.5043 0 0 1 -16.8026,-7.19742 68.797639,58.196372 0 0 1 -9.5164,-6.47863 q -10.7155,-8.7463 -16.5432,-20.83212 -5.8276,-12.0858 -5.8276,-26.39797 0,-13.99409 5.4516,-25.9209 5.4517,-11.92677 16.1672,-20.51408 a 71.805515,60.740755 0 0 1 17.1336,-10.07892 89.341427,75.574502 0 0 1 9.3734,-3.43809 91.849246,77.695879 0 0 1 19.1942,-3.98515 122.69875,103.7917 0 0 1 16.9003,-0.94461 h 196.2638 v 40.39207 h -196.2638 q -12.7195,0 -20.995,4.42086 a 27.491984,23.255649 0 0 0 -4.5718,3.05326 28.977121,24.511937 0 0 0 -7.858,11.99041 q -1.1281,3.91517 -1.162,8.54274 a 54.841098,46.390441 0 0 0 0,0.29899 43.366047,36.683624 0 0 0 1.0792,8.42508 q 1.8349,6.59313 6.8127,11.12531 a 27.341591,23.12843 0 0 0 1.3197,1.1227 30.79313,26.048108 0 0 0 14.088,6.2878 q 4.9934,1.02731 10.9151,1.02731 h 125.2028 a 142.26122,120.33972 0 0 1 24.123,1.61568 q 24.3678,3.55257 39.2303,14.9228 18.8667,14.433 21.2695,41.93777 a 133.35793,112.80834 0 0 1 0.3494,8.31376 99.620847,84.269924 0 0 1 -2.158,17.83294 85.762055,72.546688 0 0 1 -3.1057,9.20113 q -5.2636,12.40385 -15.7912,21.4682 -10.5277,9.064373 -26.507,14.153133 a 89.879087,76.02931 0 0 1 -17.9271,3.89608 q -7.9633,1.0432 -16.9077,1.17361 a 149.20944,126.21722 0 0 1 -2.5759,0.0192 z"
         id="12"
         style="fill:#0096bd;fill-opacity:1;stroke-width:0.864512mm" /><path
         d="M 4160.6778,-89.494097 3968.5497,-252.97062 v 169.201383 h -45.4938 V -293.68072 a 42.58024,36.018904 0 0 1 0.8157,-7.25786 q 1.5,-6.16694 5.7637,-10.3938 a 21.581509,18.255938 0 0 1 14.9494,-6.40547 30.458501,25.765046 0 0 1 2.9099,-0.11441 q 5.264,0 10.1521,1.90828 a 27.424306,23.198401 0 0 1 4.192,2.06413 q 1.9851,1.1704 4.0228,2.7352 a 54.435028,46.04695 0 0 1 1.9364,1.56161 l 192.8799,161.88632 v -169.20141 h 45.4944 v 211.81979 a 44.907585,37.98762 0 0 1 -0.7066,6.965253 q -0.8835,4.00422 -2.869,7.15606 a 23.111765,19.550393 0 0 1 -3.0043,3.68937 21.419835,18.119179 0 0 1 -15.6446,6.329137 28.356751,23.987159 0 0 1 -1.4626,0.03177 27.251354,23.052098 0 0 1 -14.6482,-3.698887 40.580003,34.326888 0 0 1 -7.1591,-4.88839 z"
         id="14"
         style="fill:#0096bd;fill-opacity:1;stroke-width:0.864512mm" /><path
         d="m 4413.3399,-83.769237 h -47.7503 V -314.98994 h 47.7503 z"
         id="16"
         style="fill:#0096bd;fill-opacity:1;stroke-width:0.864512mm" /><path
         d="m 4916.4072,-83.769237 h -57.5263 l -40.9819,-58.202703 h -129.3386 l 22.5591,-32.75894 h 83.8443 l -60.9095,-86.50899 -124.0751,177.470633 h -54.5177 l 157.1618,-221.361203 q 4.1358,-6.04291 9.7757,-9.54143 a 21.276963,17.998321 0 0 1 10.189,-3.32997 27.570941,23.322441 0 0 1 3.3464,-0.16857 24.999206,21.146993 0 0 1 6.5494,0.69334 19.607591,16.586187 0 0 1 6.798,2.8052 33.237027,28.115419 0 0 1 5.8656,4.89473 44.576719,37.707738 0 0 1 3.7221,4.6467 z"
         id="18"
         style="fill:#0096bd;fill-opacity:1;stroke-width:0.864512mm" /><path
         d="M 5292.7672,-89.494097 5100.6393,-252.97062 v 169.201383 h -45.494 V -293.68072 a 42.58024,36.018904 0 0 1 0.8155,-7.25786 q 1.5001,-6.16694 5.7641,-10.3938 a 21.581509,18.255938 0 0 1 14.949,-6.40547 30.458501,25.765046 0 0 1 2.9104,-0.11441 q 5.2637,0 10.1516,1.90828 a 27.424306,23.198401 0 0 1 4.192,2.06413 q 1.985,1.1704 4.0232,2.7352 a 54.435028,46.04695 0 0 1 1.9361,1.56161 l 192.88,161.88632 v -169.20141 h 45.4941 v 211.81979 a 44.907585,37.98762 0 0 1 -0.7071,6.965253 q -0.8835,4.00422 -2.8684,7.15606 a 23.111765,19.550393 0 0 1 -3.0042,3.68937 21.419835,18.119179 0 0 1 -15.6444,6.329137 28.356751,23.987159 0 0 1 -1.4628,0.03177 27.251354,23.052098 0 0 1 -14.6482,-3.698887 40.580003,34.326888 0 0 1 -7.159,-4.88839 z"
         id="20"
         style="fill:#0096bd;fill-opacity:1;stroke-width:0.864512mm" /><path
         d="m 5837.5687,-83.769237 h -57.5254 l -40.9826,-58.202703 h -129.3384 l 22.5586,-32.75894 h 83.8449 l -60.9095,-86.50899 -124.0749,177.470633 h -54.5178 L 5633.785,-305.13044 q 4.1362,-6.04291 9.7756,-9.54143 a 21.276963,17.998321 0 0 1 10.1895,-3.32997 27.570941,23.322441 0 0 1 3.3465,-0.16857 24.999206,21.146993 0 0 1 6.5491,0.69334 19.607591,16.586187 0 0 1 6.7978,2.8052 33.237027,28.115419 0 0 1 5.8653,4.89473 44.576719,37.707738 0 0 1 3.7225,4.6467 z"
         id="22"
         style="fill:#0096bd;fill-opacity:1;stroke-width:0.864512mm" /><text
         xml:space="preserve"
         style="font-size:412.754px;font-family:Cantarell;-inkscape-font-specification:Cantarell;fill:#eeeeee;fill-opacity:1;stroke-width:0.537441mm"
         x="3.9724829"
         y="414.63669"
         id="text3019"
         transform="scale(1.4490452,0.69010961)"><tspan
           sodipodi:role="line"
           id="tspan3017"
           style="fill:#eeeeee;fill-opacity:1;stroke-width:0.537441mm"
           x="3.9724829"
           y="414.63669">INSTALLATION GUIDE</tspan></text></g></g><g
     id="g5240"
     transform="matrix(0.8117109,0,0,0.8343808,-320.01988,89.395628)"
     style="fill:#0096bd;fill-opacity:1"><path
       d="m 581.53151,178.66815 c 70.383,0 127.44,-57.057 127.44,-127.440002 0,-70.38299 -57.057,-127.439993 -127.44,-127.439993 -70.383,0 -127.44001,57.057003 -127.44001,127.439993 0,70.383002 57.05701,127.440002 127.44001,127.440002 z m 0,-10.62 c -64.518,0 -116.82,-52.302 -116.82,-116.820002 0,-64.51799 52.302,-116.819993 116.82,-116.819993 64.518,0 116.82,52.302003 116.82,116.819993 0,64.518002 -52.302,116.820002 -116.82,116.820002 z"
       fill="#de5833"
       id="path5204"
       style="fill:#0096bd;fill-opacity:1" /></g><g
     id="g4571-2-5-0"
     transform="matrix(0.38975311,-0.08004764,0.05850588,0.52300443,283.31474,302.33101)"
     style="clip-rule:evenodd;fill:#0096bd;fill-opacity:1;fill-rule:evenodd;stroke:none;stroke-linejoin:round;stroke-miterlimit:1.41421;stroke-opacity:0"><g
       id="g3914-1-3-2"
       style="mix-blend-mode:normal;fill:#0096bd;fill-opacity:1;stroke:none;stroke-opacity:0"
       transform="matrix(1.1722401,-0.16856947,-6.1285058e-4,1.4013685,890.42688,-502.66385)"><path
         class="cls-1"
         d="m -995.71689,78.114226 a 37.879052,26.445532 8.1509219 0 0 6.68815,0.603161 68.058957,47.515845 8.15093 0 0 22.81736,-2.031347 89.771834,62.674848 8.1509276 0 0 20.42775,-6.97306 120.62296,84.213776 8.1509296 0 0 20.55465,-12.941459 146.9438,102.58986 8.1509238 0 0 15.02807,-15.311815 c 1.74976,-2.228314 3.40083,-4.501954 4.83487,-6.859264 0.70221,-1.154387 1.32661,-2.338841 1.92006,-3.530303 0.59392,-1.192034 1.10763,-2.409112 1.65161,-3.616599 a 9.0317102,6.3055531 8.1509273 0 0 0.29201,-0.734031 c 0.51289,-2.016763 1.2606,-3.983186 1.58024,-6.043089 a 66.15177,46.184331 8.150927 0 0 0.39649,-6.215391 55.367563,38.65526 8.1509309 0 0 -4.12,-13.84893351 75.939446,53.017663 8.1509287 0 0 -8.53058,-11.40012349 133.18955,92.987236 8.1509191 0 0 -16.85361,-14.715927 c -4.27279,-3.203243 -8.72707,-6.277493 -13.31803,-9.248384 -2.75337,-1.781453 -5.57368,-3.509304 -8.37557,-5.251264 -7.29818,-4.537198 -14.5367,-9.12169 -21.66622,-13.79596 -5.64857,-3.703157 -11.18978,-7.483578 -16.58031,-11.375224 -5.12024,-3.69663 -10.06763,-7.504206 -14.73305,-11.487967 a 138.68297,96.822502 8.1509314 0 1 -12.1233,-11.675462 85.230533,59.504307 8.1509296 0 1 -9.528,-13.575694 60.47525,42.221228 8.1509283 0 1 -3.8088,-16.07658 65.223669,45.53637 8.1509295 0 1 0.6742,-5.24559 c 0.3376,-1.63483 0.8612,-3.21952 1.4295,-4.79961 a 65.075993,45.43327 8.1509293 0 1 2.8385,-5.7197 c 0.037,-0.06 0,-0.14885 -0.015,-0.22438 a 1.7828507,1.2447101 8.15092 0 0 -0.3658,0.13377 6.0690943,4.2371815 8.1509266 0 0 -0.5739,0.42882 99.972914,69.796814 8.1509272 0 0 -9.4487,10.43532 c -1.0516,1.47932 -2.0338,2.98602 -2.8703,4.53842 a 76.57162,53.459025 8.1509255 0 0 -3.3206,7.71161 78.755906,54.984 8.150928 0 0 1.3776,25.822518 104.48412,72.946323 8.1509269 0 0 7.2298,13.807714 148.71678,103.82769 8.1509169 0 0 10.8957,13.699585 213.82117,149.28075 8.1509323 0 0 20.711,19.26811 360.24028,251.50433 8.1509245 0 0 30.72849,22.358018 c 5.16931,3.41936 10.44512,6.752199 15.75866,10.0546083 a 4.6897474,3.274181 8.1509255 0 1 0.60358,0.4834142 0.26535135,0.18525696 8.1509258 0 1 0.0125,0.1521587 c -0.008,0.021818 -0.11217,0.037891 -0.15694,0.023556 -1.18253,-0.3814875 -2.37973,-0.7387123 -3.54016,-1.1573075 -4.17591,-1.5066017 -8.31028,-3.0738053 -12.34533,-4.7962757 a 179.31591,125.19068 8.1509404 0 1 -41.1488,-23.277214 164.69002,114.97951 8.1509281 0 1 -16.9224,-14.057957 124.67956,87.045931 8.1509113 0 1 -12.18,-13.769684 77.927427,54.405591 8.1509272 0 1 -6.6438,-11.736688 c -0.5182,-1.342672 -0.9031,-2.702134 -1.3517,-4.053687 -0.086,-0.259316 -0.1784,-0.518404 -0.2824,-0.775284 -0.012,-0.02508 -0.1296,-0.04714 -0.1972,-0.05049 -0.054,-0.0024 -0.1466,0.0163 -0.1544,0.04102 -0.3113,0.996163 -0.6285,1.991081 -0.9178,2.992012 -0.1047,0.348995 -0.1047,0.720002 -0.1996,1.071363 -0.4604,1.712025 -0.7094,3.458133 -1.0032,5.198313 -0.4152,2.459351 -0.6318,4.940574 -0.7151,7.437457 a 96.945568,67.683247 8.1509272 0 0 1.7156,15.068434 78.699082,54.944327 8.1509264 0 0 6.4002,13.938504 82.594539,57.663969 8.1509259 0 0 13.1404,14.470396 120.02546,83.796628 8.150918 0 0 15.0399,10.8122549 250.36402,174.7934 8.1509246 0 0 20.99971,11.7380996 q 9.66957,4.9960092 19.34656,9.9846615 c 2.0655,1.066642 4.13731,2.12766 6.18413,3.213266 a 57.006045,39.799173 8.1509297 0 1 11.94779,8.061595 43.331374,30.252108 8.1509303 0 1 9.74467,13.906385 42.044493,29.353662 8.1509326 0 1 0.83845,10.012708 39.430322,27.528559 8.150931 0 1 -1.62416,5.710913 56.270906,39.285936 8.1509235 0 1 -4.5908,7.114439 54.458856,38.020839 8.1509261 0 1 -18.87266,12.2587 52.641797,36.752248 8.1509267 0 1 -17.70871,3.544626 c -1.81358,0.110621 -3.66025,0.0971 -5.49384,0.130359 a 4.0289371,2.812831 8.1509271 0 0 -1.5229,0.146129 z"
         id="path5388-2-8-5-3"
         style="clip-rule:evenodd;display:inline;fill:#0096bd;fill-opacity:1;stroke:none;stroke-width:1.84162;stroke-miterlimit:10;stroke-opacity:0;enable-background:new" /><path
         class="cls-1"
         d="m -997.69867,-101.49471 a 41.848467,37.718675 35.975775 0 0 1.38823,6.542946 46.199798,41.640598 35.975843 0 0 2.15935,5.596589 44.474986,40.085996 35.975805 0 0 9.58749,13.400332 68.155247,61.429385 35.975793 0 0 11.04433,9.015632 138.53591,124.86458 35.975819 0 0 16.05798,9.38717 c 5.31856,2.756166 10.72681,5.310546 16.11061,7.920338 4.70287,2.279682 9.4087,4.555749 14.07103,6.924219 a 148.52267,133.86578 35.975839 0 1 14.55387,8.271103 84.898438,76.520286 35.975797 0 1 12.23725,9.186545 56.47955,50.9059 35.975778 0 1 9.67674,10.904089 46.761782,42.147121 35.975783 0 1 5.52435,10.5427783 q 0.41608,1.1237625 0.822,2.2502211 c 0.0573,0.1577787 0.14495,0.2137183 0.30442,0.1425641 a 0.31029395,0.27967276 35.975789 0 0 0.13863,-0.1118995 c 0.10972,-0.2899959 0.22258,-0.579998 0.30694,-0.8796454 a 41.290982,37.216204 35.975789 0 1 8.12378,-13.9283116 45.78665,41.268222 35.975803 0 1 9.16059,-7.14483 33.427612,30.128829 35.975772 0 1 9.35242,-3.413823 18.777706,16.924638 35.975791 0 1 9.88515,0.686108 16.539225,14.907063 35.975829 0 1 3.69075,1.818865 0.48924123,0.44096074 35.975817 0 0 0.68548,-0.10245 7.5312504,6.7880333 35.975798 0 0 0.84185,-3.061686 5.1707746,4.6604996 35.975791 0 0 -1.75074,-3.911527 10.799001,9.7333099 35.975755 0 0 -2.69342,-1.907159 27.278415,24.586462 35.97578 0 0 -5.93504,-2.26379 69.555323,62.691297 35.975788 0 0 -9.74033,-1.939892 c -1.5321,-0.205996 -3.06644,-0.35591 -4.5995,-0.541617 -0.39969,-0.0486 -0.79815,-0.134523 -1.19696,-0.205657 a 0.9003822,0.8115285 35.975809 0 1 -0.64381,-0.465821 14.570397,13.132526 35.975804 0 1 -1.61476,-3.245198 2.993153,2.6977755 35.975819 0 1 -0.13397,-0.768812 1.0354928,0.93330575 35.97579 0 1 0.94857,-0.941197 4.5068409,4.0620858 35.975764 0 1 0.98674,0.181002 8.9484483,8.0653759 35.975808 0 1 2.39913,1.173238 42.245535,38.076557 35.97578 0 0 5.55957,3.178043 11.6157,10.46941 35.975824 0 0 3.09641,1.036329 4.087927,3.6845122 35.975803 0 0 0.79308,0.02943 0.78251596,0.70529383 35.975813 0 0 0.531,-0.670751 13.720274,12.366297 35.975846 0 0 -1.09725,-3.198761 16.906715,15.238285 35.975802 0 0 -9.95689,-9.610955 25.719256,23.181164 35.975736 0 0 -7.06983,-1.890966 41.138319,37.078609 35.975815 0 0 -6.98914,-0.378919 44.53087,40.13637 35.975821 0 0 -4.95234,0.203627 c -2.71423,0.412526 -5.47189,0.633712 -8.16819,1.138129 -2.49778,0.467135 -4.98695,0.960931 -7.45092,1.524551 -3.09623,0.708212 -6.15561,1.527539 -9.21664,2.337027 -2.18617,0.578121 -4.34861,1.219884 -6.52256,1.830976 a 1.243037,1.1203688 35.975757 0 1 -1.15268,-0.09656 61.100291,55.070643 35.975784 0 0 -10.84106,-5.977439 c -5.40145,-2.568287 -10.83449,-5.062527 -16.23561,-7.631516 -7.20485,-3.42698 -14.31681,-7.049507 -21.21096,-11.122997 a 119.99948,108.15741 35.975807 0 1 -12.4113,-8.238817 69.03986,62.226699 35.975806 0 1 -9.44573,-8.340705 39.055696,35.201506 35.975784 0 1 -8.58412,-12.79895 1.5535357,1.4002259 35.975846 0 0 -0.18358,-0.34246 c -0.0308,-0.0434 -0.12413,-0.0477 -0.24474,-0.0881 z"
         id="path5390-7-6-7"
         style="clip-rule:evenodd;display:inline;fill:#0096bd;fill-opacity:1;stroke:none;stroke-width:1.94203;stroke-miterlimit:10;stroke-opacity:0;enable-background:new" /><path
         class="cls-1"
         d="m -1103.6918,-23.695126 a 0.7571163,0.71145131 3.4150368 0 0 -0.025,0.596559 c 0.2241,0.585124 0.436,1.174809 0.6754,1.754566 a 106.25651,99.847724 3.4149763 0 0 7.2278,14.3255947 71.714857,67.389423 3.4150387 0 0 13.3912,15.9569265 56.795951,53.370342 3.4150421 0 0 15.8417,9.7777968 66.226832,62.232404 3.4150371 0 0 6.3509,2.215386 c 2.1062,0.643365 4.2791,0.993378 6.4093,1.521886 a 27.06364,25.431312 3.4150178 0 0 2.9328,0.449628 c 0.599,0.08388 1.2032,0.133538 1.8019,0.220492 a 59.412377,55.828959 3.4150308 0 0 6.412,0.501933 c 2.3658,0.100455 4.7263,0.06156 7.0887,-0.0054 a 1.3471588,1.2659056 3.4150482 0 1 0.4164,0.123288 1.7699317,1.6631794 3.4150268 0 1 -0.2899,0.361269 30.64302,28.794805 3.4150636 0 1 -12.492,5.305615 38.306347,35.995926 3.4150382 0 1 -9.0211,0.59202 c -1.6022,-0.0594 -3.1751,-0.296995 -4.7612,-0.455851 -0.2189,-0.02162 0.069,-0.041 -0.089,0.102047 a 0.1520528,0.14288181 3.415022 0 0 0,0.136793 0.7865385,0.73909893 3.4150402 0 0 0.2096,0.228765 48.286946,45.374554 3.4150416 0 0 9.4627,4.420906 40.754425,38.296348 3.4150355 0 0 7.3699,1.72197 32.859665,30.877756 3.4150048 0 0 16.1036,-1.229069 32.362699,30.410764 3.4150425 0 0 12.9164,-7.74169 34.149027,32.089349 3.4150529 0 0 7.2948,-10.921098 22.822161,21.445655 3.4150377 0 0 1.142,-3.552467 c 0.1987,-0.962117 0.4611,-1.912205 0.6744,-2.8719054 a 1.788753,1.6808655 3.4150973 0 0 -0.028,-0.6087951 c -0.019,-0.085159 -0.1286,-0.2198438 -0.1994,-0.2210386 a 9.5185418,8.9444373 3.4150431 0 0 -1.1515,0.03987 q -4.6738,0.4537839 -9.3718,0.6131621 c -2.9107,0.099083 -5.8222,0.1642591 -8.7366,0.042129 -2.0874,-0.08742 -4.1781,-0.1226359 -6.2626,-0.2560349 -1.8107,-0.115798 -3.6156,-0.3275413 -5.4214,-0.5142779 -1.2586,-0.1302534 -2.518,-0.2630842 -3.77,-0.4424341 a 63.759281,59.913682 3.4150408 0 1 -6.3336,-1.1152181 c -0.6942,-0.1678935 -1.3906,-0.3325009 -2.0943,-0.4553691 a 58.094184,54.590272 3.4150311 0 1 -6.0808,-1.4772475 97.567028,91.682343 3.4150193 0 1 -27.9468,-12.5415424 101.00073,94.908956 3.4150752 0 1 -17.0471,-14.013209 c -0.6356,-0.649495 -1.245,-1.321186 -1.8768,-1.974061 a 1.7010732,1.5984741 3.4150359 0 0 -0.7473,-0.589304 z"
         id="path5392-0-2-5"
         style="clip-rule:evenodd;display:inline;fill:#0096bd;fill-opacity:1;stroke:none;stroke-width:1.58099;stroke-miterlimit:10;stroke-opacity:0;enable-background:new" /><path
         class="cls-1"
         d="m -1117.5792,29.047663 a 1.9318712,0.86657904 7.7414014 0 0 0.1198,0.768763 105.31517,47.241201 7.7413978 0 0 7.3382,7.524765 107.78369,48.348506 7.7414006 0 0 10.4053,7.742312 74.915896,33.605007 7.7414008 0 0 6.5472,3.927005 c 2.3873,1.238821 4.7226,2.499855 7.1765,3.710141 a 95.812264,42.978487 7.7413979 0 0 35.8098,12.633077 73.419809,32.933906 7.7413995 0 0 27.6208,4.137797 64.23774,28.815109 7.7413982 0 0 21.4257,-0.4484 55.279062,24.796517 7.7413959 0 0 6.4525,-1.098133 65.969662,29.591997 7.7414015 0 0 16.37747,-5.551622 62.007658,27.814761 7.7414007 0 0 9.15689,-7.560394 75.003574,33.644336 7.7414025 0 0 3.0169,-10.66805 90.960533,40.802146 7.7413987 0 0 -6.09305,-13.949896 103.91477,46.613027 7.7413993 0 0 -11.04127,-10.739884 8.5900009,3.8532148 7.7413993 0 0 -0.90542,-0.567682 0.49421793,0.22169122 7.7414031 0 0 -0.30238,-0.0888 c -0.10904,0.05916 -0.28521,0.130613 -0.26448,0.198373 0.20363,0.536106 0.44035,1.073133 0.68374,1.610026 a 106.57062,47.80436 7.7413975 0 1 2.53108,11.320941 75.233814,33.747616 7.7413972 0 1 -4.32301,10.749759 61.862926,27.749839 7.7414013 0 1 -7.41839,5.713035 54.037281,24.239492 7.7414002 0 1 -6.11954,2.719828 59.64398,26.754488 7.7413992 0 1 -17.47094,3.596221 67.413618,30.239712 7.7413983 0 1 -30.184,-0.660956 84.569219,37.935197 7.7413988 0 1 -32.5393,-7.177181 104.64945,46.942579 7.741401 0 1 -12.3367,-4.441158 109.02064,48.903364 7.7414002 0 1 -14.033,-6.569066 121.91915,54.689242 7.7413999 0 1 -11.6308,-6.830975 z"
         id="path5396-93-9-9"
         style="clip-rule:evenodd;display:inline;fill:#0096bd;fill-opacity:1;stroke:none;stroke-width:2.29545;stroke-miterlimit:10;stroke-opacity:0;enable-background:new" /></g></g></svg>
