<?xml version="1.0" encoding="iso-8859-1"?>
<!-- Uploaded to: SVG Repo, www.svgrepo.com, Generator: SVG Repo Mixer Tools -->
<svg version="1.1" id="Layer_1" xmlns="http://www.w3.org/2000/svg" xmlns:xlink="http://www.w3.org/1999/xlink" 
	 viewBox="0 0 512 512" xml:space="preserve">
<circle style="fill:#E9EDF1;" cx="256" cy="256" r="256"/>
<path style="fill:#333333;" d="M64,353.176V120.672c0-4.128,3.528-7.504,7.832-7.504H440.16c4.304,0,7.832,3.376,7.832,7.504
	v232.496H64V353.176z"/>
<path style="fill:#636363;" d="M448,353.176v32c0,4.4-3.528,8-7.832,8H71.832c-4.304,0-7.832-3.6-7.832-8v-32H448L448,353.176z"/>
<polygon style="fill:#C9C9C9;" points="200,449.176 312,449.176 304,393.176 208,393.176 "/>
<polygon style="fill:#AAAAAA;" points="304,393.176 208,393.176 203.016,428.08 305.864,406.224 "/>
<rect x="172" y="449.2" style="fill:#636363;" width="168" height="8"/>
<polygon style="fill:#939393;" points="208,393.176 304,393.176 304.544,396.96 205.512,410.624 "/>
<g>
	<circle style="fill:#DB2B42;" cx="112" cy="145.2" r="8"/>
	<circle style="fill:#DB2B42;" cx="176" cy="145.2" r="8"/>
	<circle style="fill:#DB2B42;" cx="144" cy="145.2" r="8"/>
</g>
<rect x="200" y="141.184" style="fill:#E9EDF1;" width="208" height="8"/>
<path style="fill:#DB2B42;" d="M322.584,183.672l-88.48,17.88v84.624c-4.744-3.24-10.872-5.192-17.616-5.192
	c-14.952,0-27.064,9.632-27.064,21.52c0,11.896,12.112,21.52,27.064,21.52s27.064-9.632,27.064-21.52V236.96l68.736-10.824v49.608
	c-4.616-2.888-10.424-4.656-16.776-4.656c-14.952,0-27.064,9.632-27.064,21.52c0,11.896,12.112,21.52,27.064,21.52
	s27.064-9.632,27.064-21.52c0-0.8-0.088-1.64-0.176-2.4h0.176V183.672H322.584z"/>
</svg>