<?xml version="1.0" encoding="UTF-8" standalone="no"?>
<svg
   width="540mm"
   height="406.39999mm"
   viewBox="0 0 2040.9448 1535.9999"
   version="1.1"
   id="svg6"
   sodipodi:docname="security.svg"
   inkscape:version="1.2.2 (b0a8486541, 2022-12-01)"
   xml:space="preserve"
   xmlns:inkscape="http://www.inkscape.org/namespaces/inkscape"
   xmlns:sodipodi="http://sodipodi.sourceforge.net/DTD/sodipodi-0.dtd"
   xmlns="http://www.w3.org/2000/svg"
   xmlns:svg="http://www.w3.org/2000/svg"
   xmlns:rdf="http://www.w3.org/1999/02/22-rdf-syntax-ns#"
   xmlns:cc="http://creativecommons.org/ns#"
   xmlns:dc="http://purl.org/dc/elements/1.1/"><metadata
     id="metadata12"><rdf:RDF><cc:Work
         rdf:about=""><dc:format>image/svg+xml</dc:format><dc:type
           rdf:resource="http://purl.org/dc/dcmitype/StillImage" /><dc:title /></cc:Work></rdf:RDF></metadata><defs
     id="defs10" /><sodipodi:namedview
     pagecolor="#ffffff"
     bordercolor="#666666"
     borderopacity="1"
     objecttolerance="10"
     gridtolerance="10"
     guidetolerance="10"
     inkscape:pageopacity="0"
     inkscape:pageshadow="2"
     inkscape:window-width="1366"
     inkscape:window-height="704"
     id="namedview8"
     showgrid="false"
     inkscape:document-units="px"
     units="mm"
     inkscape:zoom="0.2"
     inkscape:cx="127.5"
     inkscape:cy="537.5"
     inkscape:window-x="0"
     inkscape:window-y="0"
     inkscape:window-maximized="1"
     inkscape:current-layer="svg6"
     inkscape:showpageshadow="2"
     inkscape:pagecheckerboard="0"
     inkscape:deskcolor="#d1d1d1" /><g
     id="g149"
     transform="matrix(3.2787718,0,0,2.9035862,303.96394,17.928619)">
	<path
   style="fill:#595a59"
   d="M 468.125,128.73 C 304.284,99.474 234.069,0 234.069,0 c 0,0 -70.221,99.474 -234.056,128.73 0,64.367 -5.857,277.944 234.056,383.27 C 473.977,406.675 468.125,193.098 468.125,128.73 Z"
   id="path131" />
	<path
   style="fill:#f1f2f1"
   d="M 234.069,466.88 C 63.977,384.073 43.61,240.378 41.256,161.786 136.605,137.994 199.323,92.536 234.07,60.228 c 34.746,32.308 97.458,77.766 192.807,101.558 -2.349,78.592 -22.722,222.287 -192.808,305.094 z"
   id="path133" />
	<path
   style="fill:#f0c57b"
   d="M 410.284,169.867 C 408.471,240.817 391.15,373.583 234.069,449.45 205.019,435.435 180.763,419.461 160.486,402.259 133.075,379.086 112.973,353.691 98.193,327.974 64.847,269.81 58.873,209.949 57.847,169.868 c 88.156,-21.531 145.384,-63.78 176.221,-92.92 15.328,14.483 37.185,32.21 66.118,49.035 26.16,15.183 58.132,29.637 96.284,40.256 4.511,1.286 9.13,2.486 13.814,3.628 z"
   id="path135" />
	<g
   id="g145">
		<path
   style="fill:#727171"
   d="m 234.069,76.947 c -30.837,29.14 -88.066,71.389 -176.221,92.92 0.613,23.74 3.006,54.442 11.742,87.595 h 164.479 z"
   id="path137" />
		<path
   style="opacity:0.26;fill:#f5a519"
   d="M 396.472,166.238 C 358.32,155.62 326.348,141.165 300.188,125.982 271.254,109.157 249.398,91.43 234.07,76.947 v 180.515 h 164.505 c 8.749,-33.153 11.103,-63.841 11.709,-87.595 -4.684,-1.142 -9.303,-2.342 -13.812,-3.629 z"
   id="path139" />
		<path
   style="opacity:0.26;fill:#f5a519"
   d="m 69.59,257.462 c 6.012,22.824 15.011,46.8 28.604,70.512 14.779,25.718 34.882,51.113 62.293,74.285 20.277,17.202 44.533,33.176 73.583,47.191 V 257.462 Z"
   id="path141" />
		<path
   style="fill:#727171"
   d="M 234.069,449.449 C 338.559,398.981 381.202,323.341 398.574,257.461 H 234.069 Z"
   id="path143" />
	</g>
	<path
   style="opacity:0.08;fill:#231815"
   d="m 234.069,0 c 0,0 70.215,99.474 234.056,128.73 0,64.367 5.851,277.944 -234.056,383.27 z"
   id="path147" />
</g></svg>
